<?xml version="1.0" encoding="utf-8"?>
<!-- Generator: Adobe Illustrator 16.0.0, SVG Export Plug-In . SVG Version: 6.00 Build 0)  -->
<!DOCTYPE svg PUBLIC "-//W3C//DTD SVG 1.1//EN" "http://www.w3.org/Graphics/SVG/1.1/DTD/svg11.dtd">
<svg version="1.1" id="Layer_1" xmlns="http://www.w3.org/2000/svg" xmlns:xlink="http://www.w3.org/1999/xlink" x="0px" y="0px"
	 width="15.146px" height="16.463px" viewBox="0 0 15.146 16.463" enable-background="new 0 0 15.146 16.463" xml:space="preserve">
<path display="none" d="M8.865,8.643v0.801c0.145,0.063,0.312,0.138,0.499,0.22c0.188,0.081,0.38,0.167,0.579,0.253
	c0.199,0.088,0.4,0.174,0.604,0.262c0.202,0.086,0.396,0.166,0.578,0.242c0.182,0.074,0.347,0.143,0.492,0.202
	c0.147,0.06,0.266,0.106,0.356,0.138c0.192,0.068,0.349,0.171,0.467,0.312c0.12,0.14,0.212,0.28,0.281,0.428
	c0.081,0.169,0.14,0.347,0.177,0.534v0.869H2.248v-0.869c0.041-0.188,0.102-0.365,0.185-0.534c0.068-0.147,0.161-0.288,0.28-0.428
	c0.119-0.141,0.271-0.243,0.459-0.312c0.096-0.031,0.221-0.079,0.377-0.142c0.156-0.062,0.33-0.133,0.521-0.212
	c0.19-0.078,0.394-0.166,0.605-0.258c0.212-0.09,0.423-0.182,0.633-0.273c0.212-0.092,0.409-0.177,0.596-0.26
	c0.188-0.083,0.354-0.156,0.494-0.219V8.615C6.391,8.578,6.375,8.523,6.354,8.446c-0.021-0.075-0.042-0.15-0.064-0.229
	c-0.027-0.091-0.06-0.189-0.096-0.295C6.061,7.677,5.956,7.397,5.877,7.084C5.801,6.771,5.762,6.438,5.762,6.088
	c0-0.461,0.048-0.853,0.147-1.171c0.099-0.32,0.23-0.58,0.4-0.781c0.169-0.201,0.366-0.348,0.593-0.438
	c0.227-0.092,0.47-0.137,0.729-0.137c0.257,0,0.498,0.043,0.723,0.133C8.58,3.782,8.778,3.926,8.949,4.125
	c0.172,0.198,0.307,0.459,0.405,0.781c0.098,0.321,0.147,0.716,0.147,1.182c0,0.343-0.038,0.667-0.113,0.975
	c-0.076,0.31-0.18,0.587-0.312,0.834C9.04,8.01,9.006,8.118,8.974,8.218c-0.026,0.087-0.052,0.17-0.075,0.249
	C8.875,8.548,8.865,8.605,8.865,8.643z"/>
<polygon display="none" points="11.704,5.246 7.573,11.217 3.442,5.246 "/>
<g display="none">
	<path display="inline" d="M4.166-0.391c1.61,1.306,1.887,2.828,2.55,3.419C6.91,3.203,6.962,3.043,7.435,3.043
		c0.387,0,0.474,0.171,0.658,0.019c0.692-0.571,1.081-2.073,2.637-3.369c0.729-0.607,0.115-0.841-0.881-0.93
		C9.129-1.303,8.7-0.554,7.941-0.554c-0.704,0-2.122-0.827-2.815-0.775C4.032-1.246,3.392-1.019,4.166-0.391z"/>
	<path display="inline" d="M7.573,3.453c-3.683,0-6.668,5.898-6.668,9.105c0,3.208,2.985,5.235,6.668,5.235
		c3.684,0,6.668-2.027,6.668-5.235C14.241,9.352,11.257,3.453,7.573,3.453z M7.978,13.428L8,14.397
		c0.005,0.15-0.047,0.217-0.188,0.222l-0.473,0.02c-0.14,0.007-0.206-0.058-0.212-0.207l-0.023-0.959
		c-1.125-0.082-1.67-0.63-1.688-1.224L5.407,11.98c-0.003-0.131,0.048-0.197,0.178-0.2l0.57-0.02
		c0.142-0.005,0.186,0.059,0.191,0.188l0.007,0.227c0.013,0.389,0.43,0.559,1.119,0.537c0.681-0.021,1.097-0.22,1.084-0.608
		l-0.01-0.291c-0.008-0.26-0.229-0.392-0.589-0.499l-1.637-0.509C5.917,10.679,5.46,10.28,5.442,9.741L5.431,9.343
		c-0.02-0.584,0.42-1.18,1.496-1.344L6.903,7.03C6.898,6.879,6.961,6.812,7.101,6.808l0.475-0.021
		c0.141-0.005,0.195,0.058,0.199,0.21l0.024,0.968c1.042,0.117,1.52,0.678,1.538,1.25l0.009,0.259
		C9.351,9.614,9.31,9.67,9.157,9.675L8.597,9.692c-0.13,0.005-0.186-0.047-0.189-0.188L8.398,9.245
		C8.385,8.857,8.022,8.685,7.354,8.707C6.696,8.729,6.356,8.923,6.368,9.312l0.006,0.184c0.009,0.281,0.275,0.423,0.471,0.482
		l1.638,0.508c0.6,0.185,0.987,0.519,1.005,1.027l0.02,0.604C9.526,12.698,9.02,13.254,7.978,13.428z"/>
</g>
<path display="none" fill-rule="evenodd" clip-rule="evenodd" d="M12.427-0.041H2.719c-1.879,0-3.418,1.539-3.418,3.419v9.707
	c0,1.881,1.539,3.419,3.418,3.419h9.708c1.88,0,3.419-1.538,3.419-3.419V3.378C15.846,1.498,14.307-0.041,12.427-0.041z
	 M12.666,5.862l-6.131,6.131c-0.154,0.154-0.404,0.154-0.558,0l-0.124-0.125v0.001l-0.133-0.133l-0.578-0.579
	c-0.004-0.003-0.006-0.01-0.009-0.013L2.482,8.474c-0.154-0.154-0.154-0.403,0-0.558l0.836-0.835c0.153-0.155,0.402-0.155,0.557,0
	L6.26,9.482l5.012-5.013c0.154-0.154,0.404-0.154,0.558,0l0.837,0.837C12.818,5.459,12.818,5.709,12.666,5.862z"/>
<g>
	<path fill-rule="evenodd" clip-rule="evenodd" d="M14.487,1.975h-2.634V0h-1.317v1.975H4.608V0H3.293v1.975H0.658
		C0.295,1.975,0,2.271,0,2.632V3.95h15.146V2.632C15.146,2.271,14.852,1.975,14.487,1.975z"/>
	<path fill-rule="evenodd" clip-rule="evenodd" d="M0,15.805c0,0.363,0.295,0.658,0.658,0.658h13.829
		c0.364,0,0.658-0.295,0.658-0.658V4.608H0V15.805z M11.195,5.926h2.635v2.635h-2.635V5.926z M11.195,9.218h2.635v2.635h-2.635
		V9.218z M11.195,12.512h2.635v2.634h-2.635V12.512z M7.901,5.926h2.635v2.635H7.901V5.926z M7.901,9.218h2.635v2.635H7.901V9.218z
		 M7.901,12.512h2.635v2.634H7.901V12.512z M4.608,5.926h2.634v2.635H4.608V5.926z M4.608,9.218h2.634v2.635H4.608V9.218z
		 M4.608,12.512h2.634v2.634H4.608V12.512z M1.316,5.926h2.635v2.635H1.316V5.926z M1.316,9.218h2.635v2.635H1.316V9.218z
		 M1.316,12.512h2.635v2.634H1.316V12.512z"/>
</g>
<g display="none">
	<path display="inline" d="M6.758,8.98c0,0,0.027-8.888,0.006-8.888c-4.631,0-8.199,4.037-8.199,8.754s3.824,8.413,8.541,8.413
		s8.541-3.526,8.541-8.242C15.646,8.978,6.758,8.98,6.758,8.98z"/>
	<path display="inline" d="M16.582,7.667c0-4.517-4.029-8.464-8.546-8.464c0.062,0,0,8.464,0,8.464S16.582,7.692,16.582,7.667z"/>
</g>
<path display="none" fill-rule="evenodd" clip-rule="evenodd" d="M11.063,7.553l5.854-5.67c0.166,0.163,0.271,0.39,0.271,0.641
	v11.416c0,0.237-0.094,0.452-0.244,0.613L11.063,7.553z M-1.742,1.856c0.16-0.145,0.37-0.235,0.603-0.235h17.425
	c0.232,0,0.441,0.091,0.602,0.235L7.573,9.133L-1.742,1.856z M-1.799,14.553c-0.149-0.161-0.242-0.376-0.242-0.613V2.523
	c0-0.251,0.103-0.478,0.269-0.641l5.854,5.67L-1.799,14.553z M7.573,10.936l2.444-2.367l6.887,6.025
	c-0.162,0.154-0.379,0.248-0.619,0.248H-1.14c-0.241,0-0.456-0.094-0.618-0.248l6.886-6.025L7.573,10.936z"/>
<polygon display="none" points="11.339,4.244 6.022,9.562 3.808,7.345 2.478,8.675 4.692,10.89 4.692,10.89 6.022,12.219 
	12.669,5.573 "/>
<g display="none">
	<g display="inline">
		<path d="M7.572,13.094c-0.42,0-0.762-0.341-0.762-0.762V4.131c0-0.421,0.342-0.762,0.762-0.762S8.334,3.71,8.334,4.131v8.201
			C8.334,12.753,7.992,13.094,7.572,13.094z"/>
	</g>
	<g display="inline">
		<path d="M11.674,8.994H3.473c-0.421,0-0.762-0.342-0.762-0.762c0-0.421,0.341-0.762,0.762-0.762h8.201
			c0.42,0,0.762,0.341,0.762,0.762C12.436,8.652,12.094,8.994,11.674,8.994z"/>
	</g>
</g>
<g display="none">
	<g display="inline">
		<path d="M11.674,8.993H3.473c-0.421,0-0.762-0.341-0.762-0.762S3.052,7.47,3.473,7.47h8.201c0.42,0,0.762,0.341,0.762,0.762
			S12.094,8.993,11.674,8.993z"/>
	</g>
</g>
<g display="none">
	<path display="inline" d="M12.406,10.389l-2.157-2.156l2.157-2.158c0.738-0.738,0.738-1.936,0-2.674
		c-0.74-0.737-1.937-0.739-2.678,0L7.573,5.556L5.416,3.4c-0.739-0.739-1.936-0.739-2.674,0c-0.74,0.738-0.74,1.937,0,2.674
		l2.156,2.158l-2.156,2.156c-0.74,0.738-0.74,1.938,0,2.676c0.738,0.738,1.935,0.738,2.674,0l2.157-2.156l2.155,2.156
		c0.741,0.738,1.938,0.738,2.678,0C13.145,12.326,13.145,11.127,12.406,10.389z"/>
</g>
<g display="none">
	<path display="inline" d="M13.802,4.366l-1.085-1.084c-0.424-0.425-1.114-0.425-1.538,0L5.755,8.705L3.967,6.92
		c-0.425-0.426-1.113-0.426-1.537,0L1.344,8.004c-0.425,0.426-0.425,1.113,0,1.537l3.438,3.438c0.024,0.027,0.051,0.049,0.078,0.07
		l0.128,0.133c0.427,0.424,1.115,0.424,1.539,0l7.275-7.275C14.228,5.481,14.228,4.792,13.802,4.366z"/>
</g>
<g display="none">
	<path display="inline" d="M14.818,8.036c-0.001-0.031-0.004-0.063-0.004-0.096l-0.001-0.019l-0.001-0.016
		c0-0.021-0.001-0.041-0.002-0.062c-0.003-0.044-0.006-0.087-0.009-0.131l-0.001-0.017l-0.002-0.041
		c-0.004-0.048-0.008-0.094-0.013-0.143c-0.001-0.014-0.003-0.027-0.005-0.041c-0.005-0.052-0.012-0.104-0.019-0.155V7.312
		l-0.001-0.015c-0.12-0.936-0.42-1.828-0.887-2.649c-0.456-0.802-1.052-1.501-1.771-2.076c-0.015-0.012-0.029-0.022-0.046-0.034
		l-0.007-0.005l-0.002-0.001L12.046,2.53C10.758,1.52,9.213,0.985,7.573,0.985C5.933,0.985,4.386,1.52,3.1,2.53L3.097,2.532
		L3.085,2.54C3.07,2.551,3.056,2.562,3.043,2.571C2.324,3.147,1.728,3.845,1.271,4.646c-0.468,0.82-0.766,1.711-0.887,2.646
		L0.383,7.306L0.382,7.319c-0.006,0.049-0.012,0.1-0.017,0.149C0.363,7.484,0.362,7.5,0.36,7.517
		c-0.004,0.045-0.009,0.09-0.013,0.138C0.347,7.675,0.345,7.696,0.344,7.716C0.34,7.759,0.338,7.8,0.335,7.844
		C0.334,7.862,0.333,7.883,0.333,7.902L0.332,7.925L0.331,7.947C0.33,7.977,0.328,8.007,0.327,8.036
		C0.326,8.089,0.326,8.144,0.325,8.198v0.016c0,0.006,0,0.01,0,0.01v0.01c0,0,0,0.01,0,0.015c0,0.007,0,0.012,0,0.012
		C0.326,8.32,0.326,8.373,0.327,8.427C0.328,8.458,0.33,8.489,0.331,8.521l0.001,0.021l0.001,0.027c0,0.017,0.001,0.033,0.002,0.05
		C0.338,8.662,0.34,8.706,0.345,8.75v0.016l0.003,0.042C0.352,8.855,0.356,8.902,0.36,8.949c0.002,0.016,0.003,0.027,0.004,0.042
		c0.005,0.052,0.012,0.103,0.018,0.155l0.001,0.009l0.001,0.01c0.121,0.938,0.419,1.828,0.887,2.649
		c0.456,0.802,1.052,1.5,1.771,2.077c0.015,0.011,0.031,0.021,0.046,0.032l0.006,0.006l0.003,0.001L3.1,13.933
		c1.286,1.01,2.833,1.544,4.474,1.545c1.64-0.001,3.187-0.535,4.473-1.545l0.003-0.002l0.003-0.002l0.009-0.006
		c0.016-0.012,0.029-0.021,0.042-0.031c0.719-0.575,1.314-1.273,1.771-2.075c0.468-0.82,0.768-1.711,0.888-2.646l0.002-0.019
		l0.001-0.008c0.006-0.05,0.012-0.1,0.017-0.148c0.002-0.016,0.005-0.033,0.006-0.049c0.005-0.045,0.009-0.09,0.013-0.137
		c0.001-0.021,0.002-0.042,0.004-0.063c0.002-0.042,0.005-0.084,0.008-0.125c0.001-0.022,0.002-0.043,0.002-0.063l0.001-0.02
		l0.001-0.021c0.002-0.031,0.003-0.061,0.004-0.091c0.001-0.054,0.001-0.107,0.002-0.162c0-0.005,0-0.012,0-0.018V8.233V8.229
		c0,0,0-0.01,0-0.015c0-0.007,0-0.012,0-0.019C14.819,8.144,14.819,8.089,14.818,8.036z M13.003,8.38
		c-0.001,0.022-0.001,0.045-0.002,0.067v0.01C13,8.479,12.999,8.501,12.997,8.523c-0.002,0.032-0.003,0.064-0.007,0.095
		c0,0.016-0.001,0.031-0.002,0.045c-0.004,0.036-0.007,0.072-0.011,0.107l-0.002,0.023v0.005c-0.005,0.041-0.01,0.081-0.015,0.121
		v0.003v0.002c-0.153,1.196-0.688,2.285-1.547,3.146c-1.028,1.025-2.393,1.59-3.841,1.59c-1.449,0-2.814-0.564-3.841-1.59
		c-0.883-0.884-1.438-2.05-1.563-3.282L2.168,8.786V8.784C2.164,8.741,2.16,8.698,2.157,8.654L2.155,8.641V8.635
		C2.152,8.596,2.15,8.557,2.147,8.517V8.495L2.146,8.482C2.146,8.446,2.144,8.41,2.144,8.374C2.143,8.356,2.143,8.338,2.143,8.32
		V8.303V8.281C2.141,8.264,2.141,8.247,2.141,8.229c0-0.049,0.002-0.098,0.003-0.146c0-0.02,0.001-0.039,0.001-0.059l0.001-0.018
		c0.001-0.022,0.002-0.046,0.004-0.068c0.001-0.03,0.003-0.063,0.005-0.095c0.001-0.015,0.001-0.03,0.003-0.045
		C2.16,7.763,2.163,7.727,2.168,7.69L2.17,7.663c0.005-0.04,0.01-0.081,0.014-0.121l0.002-0.003
		c0.152-1.198,0.687-2.286,1.547-3.146c1.026-1.026,2.39-1.591,3.841-1.592c1.448,0.001,2.812,0.565,3.841,1.592
		c0.883,0.884,1.438,2.05,1.562,3.283v0.001v0.001c0.005,0.044,0.01,0.087,0.012,0.13l0.001,0.021
		c0.004,0.039,0.006,0.078,0.008,0.118l0.002,0.023L13,7.981c0.001,0.035,0.002,0.071,0.003,0.107
		c0.002,0.018,0.002,0.035,0.002,0.054v0.017v0.021c0,0.018,0.001,0.035,0.001,0.053C13.006,8.282,13.005,8.331,13.003,8.38z"/>
	<path display="inline" d="M9.612,7.519H8.371V5.16c0-0.508-0.413-0.92-0.92-0.92S6.532,4.652,6.532,5.16v3.278
		c0,0.508,0.412,0.922,0.919,0.922h2.161c0.508,0,0.921-0.414,0.921-0.922C10.533,7.933,10.12,7.519,9.612,7.519z"/>
</g>
<g id="_x37_57-paper-airplane_x40_2x.png_12_" display="none">
	<g display="inline">
		<path d="M15.153,0.923c0-0.15-0.121-0.271-0.271-0.271c-0.037,0-0.075,0.008-0.107,0.025L0.157,6.9
			C0.061,6.94-0.008,7.037-0.008,7.149c0,0.113,0.068,0.213,0.169,0.252l5.851,2.391l2.392,5.852h0.002
			c0.04,0.101,0.138,0.168,0.25,0.168c0.113,0,0.209-0.067,0.247-0.162l0.003-0.005l6.226-14.615l-0.002-0.002
			C15.144,0.994,15.153,0.96,15.153,0.923z M0.966,7.145l12.737-5.426l-7.548,7.55L0.966,7.145z M8.66,14.838L6.536,9.65l7.55-7.548
			L8.66,14.838z"/>
	</g>
</g>
<g id="_x37_08-search_x40_2x.png_16_" display="none">
	<g display="inline">
		<path d="M15.813,16.055l-4.689-4.689c1.117-1.217,1.805-2.836,1.805-4.619c0-3.778-3.062-6.84-6.841-6.84s-6.841,3.062-6.841,6.84
			c0,3.779,3.062,6.842,6.841,6.842c1.783,0,3.401-0.688,4.619-1.807l4.689,4.689c0.115,0.115,0.302,0.115,0.417,0
			C15.928,16.355,15.928,16.17,15.813,16.055z M6.088,12.992c-3.449,0-6.246-2.795-6.246-6.246c0-3.45,2.797-6.246,6.246-6.246
			s6.246,2.796,6.246,6.246C12.334,10.197,9.537,12.992,6.088,12.992z"/>
	</g>
</g>
<path display="none" fill-rule="evenodd" clip-rule="evenodd" d="M7.572-5.369c-7.51,0-13.6,6.089-13.6,13.601
	c0,7.511,6.09,13.601,13.6,13.601c7.512,0,13.602-6.09,13.602-13.601C21.174,0.72,15.084-5.369,7.572-5.369z M14.948,5.285
	l-8.322,8.322c-0.283,0.283-0.674,0.457-1.104,0.457c-0.432,0-0.822-0.174-1.104-0.457l-4.682-4.682
	C-0.546,8.645-0.72,8.254-0.72,7.822c0-0.861,0.699-1.561,1.561-1.561c0.43,0,0.82,0.176,1.104,0.457l3.578,3.578l7.219-7.219
	c0.281-0.281,0.672-0.457,1.104-0.457c0.861,0,1.561,0.699,1.561,1.561C15.405,4.613,15.229,5.002,14.948,5.285z"/>
<g display="none">
	<path display="inline" d="M29.808,6.619c-0.734-2.916-4.383-6.652-8.777-6.652c-0.145,0-0.287,0.004-0.43,0.008
		c-1.979-4.316-7.076-7.826-13.053-7.826c-5.986,0-11.09,4.389-13.061,8.717c-0.283-0.02-0.57-0.029-0.861-0.029
		c-4.422,0-8.088,2.244-8.791,5.184c-2.875,0.439-5.078,3.572-5.078,6.568v1.41c0,3.305,2.682,5.986,5.986,5.986H3.577V17.58h-4.332
		c-0.572-0.008-1.131-0.199-1.527-0.705c-0.18-0.234-0.293-0.539-0.291-0.852c-0.002-0.359,0.146-0.703,0.371-0.949l8.33-9.34
		c0.396-0.43,0.914-0.6,1.445-0.604c0.533,0.004,1.051,0.174,1.447,0.604l8.328,9.34c0.227,0.246,0.375,0.592,0.373,0.949
		c0,0.312-0.111,0.617-0.291,0.852c-0.396,0.506-0.957,0.697-1.527,0.705h-4.334v2.404h17.836c3.305,0,5.984-2.682,5.984-5.986
		v-1.41C35.39,9.418,32.925,6.826,29.808,6.619z"/>
	<path display="inline" d="M7.733,6.902C7.729,6.9,7.722,6.896,7.71,6.891c-0.029-0.01-0.082-0.023-0.137-0.023
		C7.499,6.865,7.433,6.891,7.415,6.902l-7.975,8.939h5.875v8.4c0.053,0.031,0.166,0.074,0.303,0.072h3.91
		c0.102,0,0.189-0.021,0.25-0.047c0.023-0.01,0.039-0.018,0.053-0.025v-8.4h5.875L7.733,6.902z"/>
</g>
<g display="none">
	<g display="inline">
		<path d="M6.101,13.248c-3.141,0-5.697-2.556-5.697-5.695c0-3.142,2.557-5.698,5.697-5.698s5.696,2.557,5.696,5.698
			C11.797,10.692,9.241,13.248,6.101,13.248z M6.101,3.775c-2.083,0-3.776,1.693-3.776,3.777c0,2.081,1.693,3.774,3.776,3.774
			c2.082,0,3.775-1.693,3.775-3.774C9.876,5.469,8.183,3.775,6.101,3.775z"/>
	</g>
	<g display="inline">
		<path d="M13.782,14.608c-0.191,0-0.383-0.056-0.549-0.173l-4.18-2.916c-0.436-0.303-0.542-0.902-0.238-1.337
			c0.303-0.435,0.899-0.542,1.336-0.238l4.182,2.916c0.434,0.304,0.541,0.902,0.237,1.337
			C14.384,14.465,14.085,14.608,13.782,14.608z"/>
	</g>
</g>
</svg>
