<?xml version="1.0" encoding="utf-8"?>
<!-- Generator: Adobe Illustrator 16.0.0, SVG Export Plug-In . SVG Version: 6.00 Build 0)  -->
<!DOCTYPE svg PUBLIC "-//W3C//DTD SVG 1.1//EN" "http://www.w3.org/Graphics/SVG/1.1/DTD/svg11.dtd">
<svg version="1.1" id="Layer_1" xmlns="http://www.w3.org/2000/svg" xmlns:xlink="http://www.w3.org/1999/xlink" x="0px" y="0px"
	 width="13.096px" height="10.537px" viewBox="0 0 13.096 10.537" enable-background="new 0 0 13.096 10.537" xml:space="preserve">
<path display="none" d="M7.84,5.68V6.48C7.984,6.544,8.152,6.618,8.339,6.7c0.188,0.081,0.38,0.167,0.579,0.253
	c0.199,0.088,0.4,0.174,0.604,0.262C9.724,7.301,9.918,7.381,10.1,7.457c0.182,0.074,0.347,0.143,0.492,0.202
	c0.147,0.06,0.266,0.106,0.356,0.138c0.192,0.068,0.349,0.171,0.467,0.312c0.12,0.14,0.212,0.28,0.281,0.428
	c0.081,0.169,0.14,0.347,0.177,0.534v0.869H1.223V9.07c0.041-0.188,0.102-0.365,0.185-0.534c0.068-0.147,0.161-0.288,0.28-0.428
	c0.119-0.141,0.271-0.243,0.459-0.312c0.096-0.031,0.221-0.079,0.377-0.142c0.156-0.062,0.33-0.133,0.521-0.212
	c0.19-0.078,0.394-0.166,0.605-0.258c0.212-0.09,0.423-0.182,0.633-0.273c0.212-0.092,0.409-0.177,0.596-0.26
	c0.188-0.083,0.354-0.156,0.494-0.219V5.652C5.365,5.615,5.35,5.561,5.328,5.483c-0.021-0.075-0.042-0.15-0.064-0.229
	C5.236,5.164,5.204,5.065,5.168,4.96C5.035,4.714,4.931,4.435,4.852,4.121C4.775,3.808,4.736,3.476,4.736,3.125
	c0-0.461,0.048-0.853,0.147-1.171c0.099-0.32,0.23-0.58,0.4-0.781C5.453,0.972,5.65,0.825,5.877,0.734
	c0.227-0.092,0.47-0.137,0.729-0.137c0.257,0,0.498,0.043,0.723,0.133c0.227,0.089,0.425,0.232,0.596,0.432
	C8.096,1.36,8.23,1.621,8.329,1.943c0.098,0.321,0.147,0.716,0.147,1.182c0,0.343-0.038,0.667-0.113,0.975
	c-0.076,0.31-0.18,0.587-0.312,0.834C8.015,5.047,7.98,5.155,7.948,5.255c-0.026,0.087-0.052,0.17-0.075,0.249
	C7.85,5.585,7.84,5.643,7.84,5.68z"/>
<polygon display="none" points="10.679,2.283 6.548,8.254 2.417,2.283 "/>
<g display="none">
	<path display="inline" d="M3.141-3.354c1.61,1.306,1.887,2.828,2.55,3.419C5.885,0.24,5.937,0.08,6.409,0.08
		c0.387,0,0.474,0.171,0.658,0.019C7.76-0.473,8.148-1.975,9.704-3.271c0.729-0.607,0.115-0.841-0.881-0.93
		c-0.72-0.065-1.148,0.684-1.907,0.684c-0.704,0-2.122-0.827-2.815-0.775C3.007-4.209,2.366-3.981,3.141-3.354z"/>
	<path display="inline" d="M6.548,0.49c-3.683,0-6.668,5.898-6.668,9.105c0,3.208,2.985,5.235,6.668,5.235
		c3.684,0,6.668-2.027,6.668-5.235C13.216,6.389,10.231,0.49,6.548,0.49z M6.952,10.465l0.022,0.97
		c0.005,0.15-0.047,0.217-0.188,0.222l-0.473,0.02c-0.14,0.007-0.206-0.058-0.212-0.207L6.079,10.51
		c-1.125-0.082-1.67-0.63-1.688-1.224L4.382,9.018C4.379,8.887,4.43,8.82,4.56,8.817l0.57-0.02c0.142-0.005,0.186,0.059,0.191,0.188
		l0.007,0.227c0.013,0.389,0.43,0.559,1.119,0.537c0.681-0.021,1.097-0.22,1.084-0.608L7.521,8.85
		C7.514,8.59,7.292,8.458,6.933,8.351L5.296,7.842C4.892,7.716,4.435,7.317,4.417,6.778L4.405,6.38
		c-0.02-0.584,0.42-1.18,1.496-1.344L5.878,4.067C5.873,3.916,5.936,3.85,6.075,3.845L6.55,3.824
		c0.141-0.005,0.195,0.058,0.199,0.21l0.024,0.968c1.042,0.117,1.52,0.678,1.538,1.25L8.32,6.511
		c0.005,0.141-0.036,0.196-0.188,0.201L7.571,6.729c-0.13,0.005-0.186-0.047-0.189-0.188L7.373,6.282
		C7.359,5.895,6.997,5.722,6.328,5.744C5.671,5.767,5.331,5.96,5.343,6.349l0.006,0.184c0.009,0.281,0.275,0.423,0.471,0.482
		l1.638,0.508c0.6,0.185,0.987,0.519,1.005,1.027l0.02,0.604C8.501,9.735,7.994,10.291,6.952,10.465z"/>
</g>
<path display="none" fill-rule="evenodd" clip-rule="evenodd" d="M11.401-3.004H1.693c-1.879,0-3.418,1.539-3.418,3.419v9.707
	c0,1.881,1.539,3.419,3.418,3.419h9.708c1.88,0,3.419-1.538,3.419-3.419V0.415C14.82-1.465,13.281-3.004,11.401-3.004z
	 M11.641,2.899L5.51,9.03c-0.154,0.154-0.404,0.154-0.558,0L4.828,8.905v0.001L4.695,8.773L4.117,8.194
	c-0.004-0.003-0.006-0.01-0.009-0.013L1.457,5.511c-0.154-0.154-0.154-0.403,0-0.558l0.836-0.835c0.153-0.155,0.402-0.155,0.557,0
	L5.234,6.52l5.012-5.013c0.154-0.154,0.404-0.154,0.558,0l0.837,0.837C11.793,2.496,11.793,2.746,11.641,2.899z"/>
<g display="none">
	<path display="inline" fill-rule="evenodd" clip-rule="evenodd" d="M13.462-0.988h-2.634v-1.975H9.511v1.975H3.583v-1.975H2.268
		v1.975h-2.635c-0.363,0-0.658,0.296-0.658,0.657v1.318H14.12v-1.318C14.12-0.692,13.826-0.988,13.462-0.988z"/>
	<path display="inline" fill-rule="evenodd" clip-rule="evenodd" d="M-1.025,12.842c0,0.363,0.295,0.658,0.658,0.658h13.829
		c0.364,0,0.658-0.295,0.658-0.658V1.646H-1.025V12.842z M10.17,2.963h2.635v2.635H10.17V2.963z M10.17,6.255h2.635V8.89H10.17
		V6.255z M10.17,9.549h2.635v2.634H10.17V9.549z M6.876,2.963h2.635v2.635H6.876V2.963z M6.876,6.255h2.635V8.89H6.876V6.255z
		 M6.876,9.549h2.635v2.634H6.876V9.549z M3.583,2.963h2.634v2.635H3.583V2.963z M3.583,6.255h2.634V8.89H3.583V6.255z M3.583,9.549
		h2.634v2.634H3.583V9.549z M0.291,2.963h2.635v2.635H0.291V2.963z M0.291,6.255h2.635V8.89H0.291V6.255z M0.291,9.549h2.635v2.634
		H0.291V9.549z"/>
</g>
<g display="none">
	<path display="inline" d="M5.732,6.018c0,0,0.027-8.888,0.006-8.888c-4.631,0-8.199,4.037-8.199,8.754s3.824,8.413,8.541,8.413
		s8.541-3.526,8.541-8.242C14.621,6.015,5.732,6.018,5.732,6.018z"/>
	<path display="inline" d="M15.557,4.704c0-4.517-4.029-8.464-8.546-8.464c0.062,0,0,8.464,0,8.464S15.557,4.729,15.557,4.704z"/>
</g>
<path display="none" fill-rule="evenodd" clip-rule="evenodd" d="M10.038,4.59l5.854-5.67c0.166,0.163,0.271,0.39,0.271,0.641
	v11.416c0,0.237-0.094,0.452-0.244,0.613L10.038,4.59z M-2.768-1.106c0.16-0.145,0.37-0.235,0.603-0.235H15.26
	c0.232,0,0.441,0.091,0.602,0.235L6.548,6.17L-2.768-1.106z M-2.824,11.59c-0.149-0.161-0.242-0.376-0.242-0.613V-0.439
	c0-0.251,0.103-0.478,0.269-0.641l5.854,5.67L-2.824,11.59z M6.548,7.973l2.444-2.367l6.887,6.025
	c-0.162,0.154-0.379,0.248-0.619,0.248H-2.165c-0.241,0-0.456-0.094-0.618-0.248l6.886-6.025L6.548,7.973z"/>
<polygon display="none" points="10.313,1.281 4.997,6.599 2.782,4.382 1.452,5.712 3.667,7.927 3.667,7.927 4.997,9.256 
	11.644,2.61 "/>
<g display="none">
	<g display="inline">
		<path d="M6.547,10.131c-0.42,0-0.762-0.341-0.762-0.762V1.168c0-0.421,0.342-0.762,0.762-0.762s0.762,0.341,0.762,0.762v8.201
			C7.309,9.79,6.967,10.131,6.547,10.131z"/>
	</g>
	<g display="inline">
		<path d="M10.648,6.031H2.447c-0.421,0-0.762-0.342-0.762-0.762c0-0.421,0.341-0.762,0.762-0.762h8.201
			c0.42,0,0.762,0.341,0.762,0.762C11.41,5.689,11.068,6.031,10.648,6.031z"/>
	</g>
</g>
<g display="none">
	<g display="inline">
		<path d="M10.648,6.03H2.447c-0.421,0-0.762-0.341-0.762-0.762s0.341-0.762,0.762-0.762h8.201c0.42,0,0.762,0.341,0.762,0.762
			S11.068,6.03,10.648,6.03z"/>
	</g>
</g>
<g display="none">
	<path display="inline" d="M11.381,7.426L9.224,5.27l2.157-2.158c0.738-0.738,0.738-1.936,0-2.674c-0.74-0.737-1.937-0.739-2.678,0
		L6.548,2.593L4.391,0.437c-0.739-0.739-1.936-0.739-2.674,0c-0.74,0.738-0.74,1.937,0,2.674L3.873,5.27L1.717,7.426
		c-0.74,0.738-0.74,1.938,0,2.676c0.738,0.738,1.935,0.738,2.674,0l2.157-2.156l2.155,2.156c0.741,0.738,1.938,0.738,2.678,0
		C12.119,9.363,12.119,8.164,11.381,7.426z"/>
</g>
<g>
	<path d="M12.776,1.403l-1.085-1.084c-0.424-0.425-1.114-0.425-1.538,0L4.729,5.742L2.941,3.957c-0.425-0.426-1.113-0.426-1.537,0
		L0.318,5.041c-0.425,0.426-0.425,1.113,0,1.537l3.438,3.438c0.024,0.027,0.051,0.049,0.078,0.07l0.128,0.133
		c0.427,0.424,1.115,0.424,1.539,0l7.275-7.275C13.202,2.518,13.202,1.829,12.776,1.403z"/>
</g>
<g display="none">
	<path display="inline" d="M13.793,5.073c-0.001-0.031-0.004-0.063-0.004-0.096l-0.001-0.019l-0.001-0.016
		c0-0.021-0.001-0.041-0.002-0.062c-0.003-0.044-0.006-0.087-0.009-0.131l-0.001-0.017l-0.002-0.041
		c-0.004-0.048-0.008-0.094-0.013-0.143c-0.001-0.014-0.003-0.027-0.005-0.041c-0.005-0.052-0.012-0.104-0.019-0.155V4.35
		l-0.001-0.015c-0.12-0.936-0.42-1.828-0.887-2.649c-0.456-0.802-1.052-1.501-1.771-2.076c-0.015-0.012-0.029-0.022-0.046-0.034
		L11.025-0.43l-0.002-0.001l-0.003-0.002C9.732-1.443,8.188-1.978,6.548-1.978c-1.641,0-3.188,0.534-4.474,1.545L2.071-0.431
		L2.06-0.423C2.045-0.412,2.03-0.401,2.018-0.392C1.299,0.185,0.702,0.882,0.246,1.684C-0.222,2.504-0.52,3.395-0.641,4.33
		l-0.002,0.013l-0.001,0.014c-0.006,0.049-0.012,0.1-0.017,0.149c-0.002,0.016-0.003,0.031-0.005,0.048
		c-0.004,0.045-0.009,0.09-0.013,0.138c-0.001,0.021-0.003,0.042-0.004,0.062C-0.686,4.796-0.688,4.837-0.69,4.881
		C-0.691,4.899-0.692,4.92-0.692,4.939l-0.001,0.022l-0.001,0.022c-0.001,0.029-0.003,0.06-0.004,0.089
		C-0.699,5.126-0.699,5.181-0.7,5.235v0.016c0,0.006,0,0.01,0,0.01v0.01c0,0,0,0.01,0,0.015c0,0.007,0,0.012,0,0.012
		c0.001,0.061,0.001,0.113,0.002,0.167c0.001,0.031,0.003,0.062,0.004,0.094l0.001,0.021l0.001,0.027
		c0,0.017,0.001,0.033,0.002,0.05c0.003,0.044,0.005,0.088,0.01,0.132v0.016l0.003,0.042c0.004,0.048,0.009,0.095,0.013,0.142
		c0.002,0.016,0.003,0.027,0.004,0.042c0.005,0.052,0.012,0.103,0.018,0.155l0.001,0.009l0.001,0.01
		C-0.521,7.14-0.223,8.03,0.245,8.852c0.456,0.802,1.052,1.5,1.771,2.077c0.015,0.011,0.031,0.021,0.046,0.032l0.006,0.006
		l0.003,0.001l0.003,0.002c1.286,1.01,2.833,1.544,4.474,1.545c1.64-0.001,3.187-0.535,4.473-1.545l0.003-0.002l0.003-0.002
		l0.009-0.006c0.016-0.012,0.029-0.021,0.042-0.031c0.719-0.575,1.314-1.273,1.771-2.075c0.468-0.82,0.768-1.711,0.888-2.646
		l0.002-0.019l0.001-0.008c0.006-0.05,0.012-0.1,0.017-0.148c0.002-0.016,0.005-0.033,0.006-0.049
		c0.005-0.045,0.009-0.09,0.013-0.137c0.001-0.021,0.002-0.042,0.004-0.063c0.002-0.042,0.005-0.084,0.008-0.125
		c0.001-0.022,0.002-0.043,0.002-0.063l0.001-0.02l0.001-0.021c0.002-0.031,0.003-0.061,0.004-0.091
		c0.001-0.054,0.001-0.107,0.002-0.162c0-0.005,0-0.012,0-0.018V5.271V5.267c0,0,0-0.01,0-0.015c0-0.007,0-0.012,0-0.019
		C13.794,5.181,13.794,5.126,13.793,5.073z M11.978,5.417c-0.001,0.022-0.001,0.045-0.002,0.067v0.01
		c-0.001,0.022-0.002,0.044-0.004,0.066c-0.002,0.032-0.003,0.064-0.007,0.095c0,0.016-0.001,0.031-0.002,0.045
		c-0.004,0.036-0.007,0.072-0.011,0.107L11.95,5.831v0.005c-0.005,0.041-0.01,0.081-0.015,0.121V5.96v0.002
		c-0.153,1.196-0.688,2.285-1.547,3.146c-1.028,1.025-2.393,1.59-3.841,1.59c-1.449,0-2.814-0.564-3.841-1.59
		C1.824,8.224,1.27,7.058,1.144,5.825L1.143,5.823V5.821c-0.004-0.043-0.008-0.086-0.011-0.13L1.13,5.678V5.672
		C1.127,5.633,1.125,5.594,1.122,5.554V5.532L1.121,5.52C1.12,5.483,1.118,5.447,1.118,5.411C1.117,5.394,1.117,5.375,1.117,5.357
		V5.34V5.318C1.115,5.301,1.115,5.284,1.115,5.267c0-0.049,0.002-0.098,0.003-0.146c0-0.02,0.001-0.039,0.001-0.059L1.12,5.044
		c0.001-0.022,0.002-0.046,0.004-0.068c0.001-0.03,0.003-0.063,0.005-0.095C1.13,4.866,1.13,4.851,1.132,4.836
		C1.135,4.8,1.138,4.764,1.143,4.728L1.145,4.7c0.005-0.04,0.01-0.081,0.014-0.121L1.16,4.576C1.312,3.378,1.847,2.29,2.707,1.43
		c1.026-1.026,2.39-1.591,3.841-1.592C7.996-0.161,9.36,0.403,10.389,1.43c0.883,0.884,1.438,2.05,1.562,3.283v0.001v0.001
		c0.005,0.044,0.01,0.087,0.012,0.13l0.001,0.021c0.004,0.039,0.006,0.078,0.008,0.118l0.002,0.023l0.001,0.012
		c0.001,0.035,0.002,0.071,0.003,0.107c0.002,0.018,0.002,0.035,0.002,0.054v0.017v0.021c0,0.018,0.001,0.035,0.001,0.053
		C11.98,5.319,11.979,5.368,11.978,5.417z"/>
	<path display="inline" d="M8.587,4.556H7.346V2.197c0-0.508-0.413-0.92-0.92-0.92s-0.919,0.412-0.919,0.92v3.278
		c0,0.508,0.412,0.922,0.919,0.922h2.161c0.508,0,0.921-0.414,0.921-0.922C9.508,4.97,9.095,4.556,8.587,4.556z"/>
</g>
<g id="_x37_57-paper-airplane_x40_2x.png_12_" display="none">
	<g display="inline">
		<path d="M14.128-2.04c0-0.15-0.121-0.271-0.271-0.271c-0.037,0-0.075,0.008-0.107,0.025L-0.868,3.938
			c-0.097,0.04-0.165,0.137-0.165,0.249c0,0.113,0.068,0.213,0.169,0.252l5.851,2.391l2.392,5.852H7.38
			c0.04,0.101,0.138,0.168,0.25,0.168c0.113,0,0.209-0.067,0.247-0.162l0.003-0.005l6.226-14.615l-0.002-0.002
			C14.118-1.969,14.128-2.003,14.128-2.04z M-0.06,4.182l12.737-5.426L5.13,6.306L-0.06,4.182z M7.635,11.875L5.511,6.688
			l7.55-7.548L7.635,11.875z"/>
	</g>
</g>
<g id="_x37_08-search_x40_2x.png_16_" display="none">
	<g display="inline">
		<path d="M14.788,13.092l-4.689-4.689c1.117-1.217,1.805-2.836,1.805-4.619c0-3.778-3.062-6.84-6.841-6.84s-6.841,3.062-6.841,6.84
			c0,3.779,3.062,6.842,6.841,6.842c1.783,0,3.401-0.688,4.619-1.807l4.689,4.689c0.115,0.115,0.302,0.115,0.417,0
			C14.902,13.393,14.902,13.207,14.788,13.092z M5.062,10.029c-3.449,0-6.246-2.795-6.246-6.246c0-3.45,2.797-6.246,6.246-6.246
			s6.246,2.796,6.246,6.246C11.309,7.234,8.512,10.029,5.062,10.029z"/>
	</g>
</g>
<path display="none" fill-rule="evenodd" clip-rule="evenodd" d="M6.547-8.332c-7.51,0-13.6,6.089-13.6,13.601
	c0,7.511,6.09,13.601,13.6,13.601c7.512,0,13.602-6.09,13.602-13.601C20.148-2.243,14.059-8.332,6.547-8.332z M13.923,2.322
	l-8.322,8.322c-0.283,0.283-0.674,0.457-1.104,0.457c-0.432,0-0.822-0.174-1.104-0.457l-4.682-4.682
	c-0.283-0.281-0.457-0.672-0.457-1.104c0-0.861,0.699-1.561,1.561-1.561c0.43,0,0.82,0.176,1.104,0.457l3.578,3.578l7.219-7.219
	c0.281-0.281,0.672-0.457,1.104-0.457c0.861,0,1.561,0.699,1.561,1.561C14.38,1.65,14.204,2.039,13.923,2.322z"/>
<g display="none">
	<path display="inline" d="M28.782,3.656c-0.734-2.916-4.383-6.652-8.777-6.652c-0.145,0-0.287,0.004-0.43,0.008
		c-1.979-4.316-7.076-7.826-13.053-7.826c-5.986,0-11.09,4.389-13.061,8.717c-0.283-0.02-0.57-0.029-0.861-0.029
		c-4.422,0-8.088,2.244-8.791,5.184c-2.875,0.439-5.078,3.572-5.078,6.568v1.41c0,3.305,2.682,5.986,5.986,5.986H2.552v-2.404H-1.78
		c-0.572-0.008-1.131-0.199-1.527-0.705c-0.18-0.234-0.293-0.539-0.291-0.852c-0.002-0.359,0.146-0.703,0.371-0.949l8.33-9.34
		c0.396-0.43,0.914-0.6,1.445-0.604c0.533,0.004,1.051,0.174,1.447,0.604l8.328,9.34c0.227,0.246,0.375,0.592,0.373,0.949
		c0,0.312-0.111,0.617-0.291,0.852c-0.396,0.506-0.957,0.697-1.527,0.705h-4.334v2.404H28.38c3.305,0,5.984-2.682,5.984-5.986v-1.41
		C34.364,6.455,31.899,3.863,28.782,3.656z"/>
	<path display="inline" d="M6.708,3.939C6.704,3.938,6.696,3.934,6.685,3.928c-0.029-0.01-0.082-0.023-0.137-0.023
		C6.474,3.902,6.407,3.928,6.39,3.939l-7.975,8.939H4.29v8.4c0.053,0.031,0.166,0.074,0.303,0.072h3.91
		c0.102,0,0.189-0.021,0.25-0.047c0.023-0.01,0.039-0.018,0.053-0.025v-8.4h5.875L6.708,3.939z"/>
</g>
<g display="none">
	<g display="inline">
		<path d="M5.075,10.285c-3.141,0-5.697-2.556-5.697-5.695c0-3.142,2.557-5.698,5.697-5.698s5.696,2.557,5.696,5.698
			C10.771,7.729,8.216,10.285,5.075,10.285z M5.075,0.812c-2.083,0-3.776,1.693-3.776,3.777c0,2.081,1.693,3.774,3.776,3.774
			c2.082,0,3.775-1.693,3.775-3.774C8.851,2.506,7.157,0.812,5.075,0.812z"/>
	</g>
	<g display="inline">
		<path d="M12.757,11.646c-0.191,0-0.383-0.056-0.549-0.173l-4.18-2.916C7.593,8.254,7.486,7.654,7.79,7.22
			c0.303-0.435,0.899-0.542,1.336-0.238l4.182,2.916c0.434,0.304,0.541,0.902,0.237,1.337C13.358,11.502,13.06,11.646,12.757,11.646
			z"/>
	</g>
</g>
</svg>
