<?xml version="1.0" encoding="utf-8"?>
<!-- Generator: Adobe Illustrator 16.0.0, SVG Export Plug-In . SVG Version: 6.00 Build 0)  -->
<!DOCTYPE svg PUBLIC "-//W3C//DTD SVG 1.1//EN" "http://www.w3.org/Graphics/SVG/1.1/DTD/svg11.dtd">
<svg version="1.1" id="Layer_1" xmlns="http://www.w3.org/2000/svg" xmlns:xlink="http://www.w3.org/1999/xlink" x="0px" y="0px"
	 width="14.489px" height="14.492px" viewBox="0 0 14.489 14.492" enable-background="new 0 0 14.489 14.492" xml:space="preserve">
<path display="none" d="M8.534,7.657v0.801c0.145,0.063,0.312,0.138,0.499,0.22c0.188,0.081,0.38,0.167,0.579,0.253
	c0.199,0.088,0.4,0.174,0.604,0.262c0.202,0.086,0.396,0.166,0.578,0.242c0.182,0.074,0.347,0.143,0.492,0.202
	c0.147,0.06,0.266,0.106,0.356,0.138c0.192,0.068,0.349,0.171,0.467,0.312c0.12,0.14,0.212,0.28,0.281,0.428
	c0.081,0.169,0.14,0.347,0.177,0.534v0.869H1.917v-0.869c0.041-0.188,0.102-0.365,0.185-0.534c0.068-0.147,0.161-0.288,0.28-0.428
	c0.119-0.141,0.271-0.243,0.459-0.312c0.096-0.031,0.221-0.079,0.377-0.142C3.374,9.571,3.548,9.5,3.739,9.421
	c0.19-0.078,0.394-0.166,0.605-0.258c0.212-0.09,0.423-0.182,0.633-0.273c0.212-0.092,0.409-0.177,0.596-0.26
	c0.188-0.083,0.354-0.156,0.494-0.219V7.63C6.06,7.593,6.044,7.538,6.022,7.461C6.002,7.386,5.98,7.311,5.958,7.232
	c-0.027-0.091-0.06-0.189-0.096-0.295C5.729,6.691,5.625,6.412,5.546,6.099C5.47,5.785,5.431,5.453,5.431,5.103
	c0-0.461,0.048-0.853,0.147-1.171c0.099-0.32,0.23-0.58,0.4-0.781c0.169-0.201,0.366-0.348,0.593-0.438
	C6.798,2.62,7.041,2.575,7.3,2.575c0.257,0,0.498,0.043,0.723,0.133C8.249,2.797,8.447,2.94,8.618,3.14
	C8.79,3.338,8.925,3.599,9.023,3.921c0.098,0.321,0.147,0.716,0.147,1.182c0,0.343-0.038,0.667-0.113,0.975
	c-0.076,0.31-0.18,0.587-0.312,0.834C8.709,7.024,8.675,7.133,8.643,7.232c-0.026,0.087-0.052,0.17-0.075,0.249
	C8.544,7.562,8.534,7.62,8.534,7.657z"/>
<polygon display="none" points="11.373,4.261 7.242,10.231 3.111,4.261 "/>
<g display="none">
	<path display="inline" d="M3.835-1.376c1.61,1.306,1.887,2.828,2.55,3.419c0.194,0.175,0.246,0.015,0.719,0.015
		c0.387,0,0.474,0.171,0.658,0.019c0.692-0.571,1.081-2.073,2.637-3.369c0.729-0.607,0.115-0.841-0.881-0.93
		C8.798-2.288,8.369-1.539,7.61-1.539c-0.704,0-2.122-0.827-2.815-0.775C3.701-2.231,3.061-2.004,3.835-1.376z"/>
	<path display="inline" d="M7.242,2.468c-3.683,0-6.668,5.898-6.668,9.105c0,3.208,2.985,5.235,6.668,5.235
		c3.684,0,6.668-2.027,6.668-5.235C13.91,8.366,10.926,2.468,7.242,2.468z M7.646,12.442l0.022,0.97
		c0.005,0.15-0.047,0.217-0.188,0.222l-0.473,0.02c-0.14,0.007-0.206-0.058-0.212-0.207l-0.023-0.959
		c-1.125-0.082-1.67-0.63-1.688-1.224l-0.009-0.269c-0.003-0.131,0.048-0.197,0.178-0.2l0.57-0.02
		c0.142-0.005,0.186,0.059,0.191,0.188l0.007,0.227c0.013,0.389,0.43,0.559,1.119,0.537c0.681-0.021,1.097-0.22,1.084-0.608
		l-0.01-0.291c-0.008-0.26-0.229-0.392-0.589-0.499L5.99,9.819C5.586,9.693,5.129,9.295,5.111,8.756L5.1,8.357
		c-0.02-0.584,0.42-1.18,1.496-1.344L6.572,6.045C6.567,5.894,6.63,5.827,6.77,5.822l0.475-0.021
		c0.141-0.005,0.195,0.058,0.199,0.21l0.024,0.968c1.042,0.117,1.52,0.678,1.538,1.25l0.009,0.259
		C9.02,8.629,8.979,8.685,8.826,8.689L8.266,8.707C8.136,8.712,8.08,8.66,8.076,8.519L8.067,8.26
		C8.054,7.872,7.691,7.699,7.022,7.722C6.365,7.744,6.025,7.938,6.037,8.326L6.043,8.51c0.009,0.281,0.275,0.423,0.471,0.482
		L8.151,9.5c0.6,0.185,0.987,0.519,1.005,1.027l0.02,0.604C9.195,11.713,8.688,12.269,7.646,12.442z"/>
</g>
<path display="none" fill-rule="evenodd" clip-rule="evenodd" d="M12.096-1.026H2.388c-1.879,0-3.418,1.539-3.418,3.419V12.1
	c0,1.881,1.539,3.419,3.418,3.419h9.708c1.88,0,3.419-1.538,3.419-3.419V2.393C15.515,0.513,13.976-1.026,12.096-1.026z
	 M12.335,4.877l-6.131,6.131c-0.154,0.154-0.404,0.154-0.558,0l-0.124-0.125v0.001L5.39,10.751l-0.578-0.579
	c-0.004-0.003-0.006-0.01-0.009-0.013L2.151,7.488c-0.154-0.154-0.154-0.403,0-0.558l0.836-0.835c0.153-0.155,0.402-0.155,0.557,0
	l2.385,2.401l5.012-5.013c0.154-0.154,0.404-0.154,0.558,0l0.837,0.837C12.487,4.474,12.487,4.724,12.335,4.877z"/>
<g display="none">
	<path display="inline" fill-rule="evenodd" clip-rule="evenodd" d="M14.156,0.989h-2.634v-1.975h-1.317v1.975H4.277v-1.975H2.962
		v1.975H0.327c-0.363,0-0.658,0.296-0.658,0.657v1.318h15.146V1.646C14.814,1.285,14.521,0.989,14.156,0.989z"/>
	<path display="inline" fill-rule="evenodd" clip-rule="evenodd" d="M-0.331,14.819c0,0.363,0.295,0.658,0.658,0.658h13.829
		c0.364,0,0.658-0.295,0.658-0.658V3.623H-0.331V14.819z M10.864,4.94h2.635v2.635h-2.635V4.94z M10.864,8.232h2.635v2.635h-2.635
		V8.232z M10.864,11.526h2.635v2.634h-2.635V11.526z M7.57,4.94h2.635v2.635H7.57V4.94z M7.57,8.232h2.635v2.635H7.57V8.232z
		 M7.57,11.526h2.635v2.634H7.57V11.526z M4.277,4.94h2.634v2.635H4.277V4.94z M4.277,8.232h2.634v2.635H4.277V8.232z M4.277,11.526
		h2.634v2.634H4.277V11.526z M0.985,4.94H3.62v2.635H0.985V4.94z M0.985,8.232H3.62v2.635H0.985V8.232z M0.985,11.526H3.62v2.634
		H0.985V11.526z"/>
</g>
<g display="none">
	<path display="inline" d="M6.427,7.995c0,0,0.027-8.888,0.006-8.888c-4.631,0-8.199,4.037-8.199,8.754s3.824,8.413,8.541,8.413
		s8.541-3.526,8.541-8.242C15.315,7.992,6.427,7.995,6.427,7.995z"/>
	<path display="inline" d="M16.251,6.682c0-4.517-4.029-8.464-8.546-8.464c0.062,0,0,8.464,0,8.464S16.251,6.707,16.251,6.682z"/>
</g>
<path display="none" fill-rule="evenodd" clip-rule="evenodd" d="M10.732,6.567l5.854-5.67c0.166,0.163,0.271,0.39,0.271,0.641
	v11.416c0,0.237-0.094,0.452-0.244,0.613L10.732,6.567z M-2.073,0.871c0.16-0.145,0.37-0.235,0.603-0.235h17.425
	c0.232,0,0.441,0.091,0.602,0.235L7.242,8.147L-2.073,0.871z M-2.13,13.567c-0.149-0.161-0.242-0.376-0.242-0.613V1.538
	c0-0.251,0.103-0.478,0.269-0.641l5.854,5.67L-2.13,13.567z M7.242,9.95l2.444-2.367l6.887,6.025
	c-0.162,0.154-0.379,0.248-0.619,0.248H-1.471c-0.241,0-0.456-0.094-0.618-0.248l6.886-6.025L7.242,9.95z"/>
<polygon display="none" points="11.008,3.259 5.691,8.576 3.477,6.359 2.146,7.689 4.361,9.904 4.361,9.904 5.691,11.233 
	12.338,4.588 "/>
<g display="none">
	<g display="inline">
		<path d="M7.241,12.108c-0.42,0-0.762-0.341-0.762-0.762V3.146c0-0.421,0.342-0.762,0.762-0.762s0.762,0.341,0.762,0.762v8.201
			C8.003,11.768,7.661,12.108,7.241,12.108z"/>
	</g>
	<g display="inline">
		<path d="M11.343,8.009H3.142c-0.421,0-0.762-0.342-0.762-0.762c0-0.421,0.341-0.762,0.762-0.762h8.201
			c0.42,0,0.762,0.341,0.762,0.762C12.104,7.667,11.763,8.009,11.343,8.009z"/>
	</g>
</g>
<g display="none">
	<g display="inline">
		<path d="M11.343,8.008H3.142c-0.421,0-0.762-0.341-0.762-0.762s0.341-0.762,0.762-0.762h8.201c0.42,0,0.762,0.341,0.762,0.762
			S11.763,8.008,11.343,8.008z"/>
	</g>
</g>
<g display="none">
	<path display="inline" d="M12.075,9.403L9.918,7.247l2.157-2.158c0.738-0.738,0.738-1.936,0-2.674c-0.74-0.737-1.937-0.739-2.678,0
		L7.242,4.571L5.085,2.415c-0.739-0.739-1.936-0.739-2.674,0c-0.74,0.738-0.74,1.937,0,2.674l2.156,2.158L2.411,9.403
		c-0.74,0.738-0.74,1.938,0,2.676c0.738,0.738,1.935,0.738,2.674,0l2.157-2.156l2.155,2.156c0.741,0.738,1.938,0.738,2.678,0
		C12.813,11.341,12.813,10.142,12.075,9.403z"/>
</g>
<g display="none">
	<path display="inline" d="M13.471,3.38l-1.085-1.084c-0.424-0.425-1.114-0.425-1.538,0L5.424,7.72L3.636,5.935
		c-0.425-0.426-1.113-0.426-1.537,0L1.013,7.019c-0.425,0.426-0.425,1.113,0,1.537l3.438,3.438c0.024,0.027,0.051,0.049,0.078,0.07
		l0.128,0.133c0.427,0.424,1.115,0.424,1.539,0l7.275-7.275C13.896,4.496,13.896,3.806,13.471,3.38z"/>
</g>
<g>
	<path d="M14.487,7.051c-0.001-0.031-0.004-0.063-0.004-0.096l-0.001-0.019l-0.001-0.016c0-0.021-0.001-0.041-0.002-0.062
		c-0.003-0.044-0.006-0.087-0.009-0.131L14.47,6.711L14.468,6.67c-0.004-0.048-0.008-0.094-0.013-0.143
		C14.454,6.514,14.452,6.5,14.45,6.486c-0.005-0.052-0.012-0.104-0.019-0.155V6.327l-0.001-0.015
		c-0.12-0.936-0.42-1.828-0.887-2.649c-0.456-0.802-1.052-1.501-1.771-2.076c-0.015-0.012-0.029-0.022-0.046-0.034L11.72,1.548
		l-0.002-0.001l-0.003-0.002C10.427,0.534,8.882,0,7.242,0C5.602,0,4.055,0.534,2.769,1.545L2.766,1.547L2.754,1.555
		C2.739,1.565,2.725,1.576,2.712,1.586C1.993,2.162,1.396,2.859,0.94,3.661c-0.468,0.82-0.766,1.711-0.887,2.646L0.052,6.32
		L0.051,6.334c-0.006,0.049-0.012,0.1-0.017,0.149C0.032,6.499,0.031,6.515,0.029,6.531c-0.004,0.045-0.009,0.09-0.013,0.138
		C0.016,6.689,0.014,6.711,0.013,6.73C0.009,6.773,0.007,6.814,0.004,6.858C0.003,6.877,0.002,6.897,0.002,6.917L0.001,6.939
		L0,6.962c-0.001,0.029-0.003,0.06-0.004,0.089c-0.001,0.053-0.001,0.107-0.002,0.162v0.016c0,0.006,0,0.01,0,0.01v0.01
		c0,0,0,0.01,0,0.015c0,0.007,0,0.012,0,0.012c0.001,0.061,0.001,0.113,0.002,0.167C-0.003,7.473-0.001,7.504,0,7.535l0.001,0.021
		l0.001,0.027c0,0.017,0.001,0.033,0.002,0.05c0.003,0.044,0.005,0.088,0.01,0.132V7.78l0.003,0.042
		C0.021,7.87,0.025,7.917,0.029,7.964c0.002,0.016,0.003,0.027,0.004,0.042c0.005,0.052,0.012,0.103,0.018,0.155L0.052,8.17
		l0.001,0.01c0.121,0.938,0.419,1.828,0.887,2.649c0.456,0.802,1.052,1.5,1.771,2.077c0.015,0.011,0.031,0.021,0.046,0.032
		l0.006,0.006l0.003,0.001l0.003,0.002c1.286,1.01,2.833,1.544,4.474,1.545c1.64-0.001,3.187-0.535,4.473-1.545l0.003-0.002
		l0.003-0.002l0.009-0.006c0.016-0.012,0.029-0.021,0.042-0.031c0.719-0.575,1.314-1.273,1.771-2.075
		c0.468-0.82,0.768-1.711,0.888-2.646l0.002-0.019l0.001-0.008c0.006-0.05,0.012-0.1,0.017-0.148
		c0.002-0.016,0.005-0.033,0.006-0.049c0.005-0.045,0.009-0.09,0.013-0.137c0.001-0.021,0.002-0.042,0.004-0.063
		c0.002-0.042,0.005-0.084,0.008-0.125c0.001-0.022,0.002-0.043,0.002-0.063l0.001-0.02l0.001-0.021
		c0.002-0.031,0.003-0.061,0.004-0.091c0.001-0.054,0.001-0.107,0.002-0.162c0-0.005,0-0.012,0-0.018V7.248V7.244
		c0,0,0-0.01,0-0.015c0-0.007,0-0.012,0-0.019C14.488,7.158,14.488,7.104,14.487,7.051z M12.672,7.395
		c-0.001,0.022-0.001,0.045-0.002,0.067v0.01c-0.001,0.022-0.002,0.044-0.004,0.066c-0.002,0.032-0.003,0.064-0.007,0.095
		c0,0.016-0.001,0.031-0.002,0.045c-0.004,0.036-0.007,0.072-0.011,0.107l-0.002,0.023v0.005c-0.005,0.041-0.01,0.081-0.015,0.121
		v0.003v0.002c-0.153,1.196-0.688,2.285-1.547,3.146c-1.028,1.025-2.393,1.59-3.841,1.59c-1.449,0-2.814-0.564-3.841-1.59
		c-0.883-0.884-1.438-2.05-1.563-3.282L1.837,7.801V7.799c-0.004-0.043-0.008-0.086-0.011-0.13L1.824,7.655V7.649
		C1.821,7.61,1.819,7.571,1.816,7.531V7.51L1.815,7.497C1.814,7.461,1.812,7.425,1.812,7.389C1.812,7.371,1.812,7.353,1.812,7.335
		V7.317V7.296C1.81,7.278,1.81,7.262,1.81,7.244c0-0.049,0.002-0.098,0.003-0.146c0-0.02,0.001-0.039,0.001-0.059l0.001-0.018
		c0.001-0.022,0.002-0.046,0.004-0.068c0.001-0.03,0.003-0.063,0.005-0.095c0.001-0.015,0.001-0.03,0.003-0.045
		c0.003-0.036,0.006-0.072,0.011-0.108l0.002-0.027c0.005-0.04,0.01-0.081,0.014-0.121l0.002-0.003
		c0.152-1.198,0.687-2.286,1.547-3.146c1.026-1.026,2.39-1.591,3.841-1.592c1.448,0.001,2.812,0.565,3.841,1.592
		c0.883,0.884,1.438,2.05,1.562,3.283v0.001v0.001c0.005,0.044,0.01,0.087,0.012,0.13l0.001,0.021
		c0.004,0.039,0.006,0.078,0.008,0.118l0.002,0.023l0.001,0.012c0.001,0.035,0.002,0.071,0.003,0.107
		c0.002,0.018,0.002,0.035,0.002,0.054v0.017v0.021c0,0.018,0.001,0.035,0.001,0.053C12.675,7.297,12.674,7.346,12.672,7.395z"/>
	<path d="M9.281,6.533H8.04V4.175c0-0.508-0.413-0.92-0.92-0.92s-0.919,0.412-0.919,0.92v3.278c0,0.508,0.412,0.922,0.919,0.922
		h2.161c0.508,0,0.921-0.414,0.921-0.922C10.202,6.947,9.789,6.533,9.281,6.533z"/>
</g>
<g id="_x37_57-paper-airplane_x40_2x.png_12_" display="none">
	<g display="inline">
		<path d="M14.822-0.062c0-0.15-0.121-0.271-0.271-0.271c-0.037,0-0.075,0.008-0.107,0.025L-0.174,5.915
			c-0.097,0.04-0.165,0.137-0.165,0.249c0,0.113,0.068,0.213,0.169,0.252l5.851,2.391l2.392,5.852h0.002
			c0.04,0.101,0.138,0.168,0.25,0.168c0.113,0,0.209-0.067,0.247-0.162l0.003-0.005L14.8,0.044l-0.002-0.002
			C14.812,0.009,14.822-0.025,14.822-0.062z M0.635,6.159l12.737-5.426l-7.548,7.55L0.635,6.159z M8.329,13.853L6.205,8.665
			l7.55-7.548L8.329,13.853z"/>
	</g>
</g>
<g id="_x37_08-search_x40_2x.png_16_" display="none">
	<g display="inline">
		<path d="M15.482,15.069l-4.689-4.689c1.117-1.217,1.805-2.836,1.805-4.619c0-3.778-3.062-6.84-6.841-6.84s-6.841,3.062-6.841,6.84
			c0,3.779,3.062,6.842,6.841,6.842c1.783,0,3.401-0.688,4.619-1.807l4.689,4.689c0.115,0.115,0.302,0.115,0.417,0
			C15.597,15.37,15.597,15.185,15.482,15.069z M5.757,12.007c-3.449,0-6.246-2.795-6.246-6.246c0-3.45,2.797-6.246,6.246-6.246
			s6.246,2.796,6.246,6.246C12.003,9.212,9.206,12.007,5.757,12.007z"/>
	</g>
</g>
<path display="none" fill-rule="evenodd" clip-rule="evenodd" d="M7.241-6.354c-7.51,0-13.6,6.089-13.6,13.601
	c0,7.511,6.09,13.601,13.6,13.601c7.512,0,13.602-6.09,13.602-13.601C20.843-0.266,14.753-6.354,7.241-6.354z M14.617,4.3
	l-8.322,8.322c-0.283,0.283-0.674,0.457-1.104,0.457c-0.432,0-0.822-0.174-1.104-0.457L-0.594,7.94
	c-0.283-0.281-0.457-0.672-0.457-1.104c0-0.861,0.699-1.561,1.561-1.561c0.43,0,0.82,0.176,1.104,0.457l3.578,3.578l7.219-7.219
	c0.281-0.281,0.672-0.457,1.104-0.457c0.861,0,1.561,0.699,1.561,1.561C15.074,3.628,14.898,4.017,14.617,4.3z"/>
<g display="none">
	<path display="inline" d="M29.477,5.634c-0.734-2.916-4.383-6.652-8.777-6.652c-0.145,0-0.287,0.004-0.43,0.008
		c-1.979-4.316-7.076-7.826-13.053-7.826c-5.986,0-11.09,4.389-13.061,8.717c-0.283-0.02-0.57-0.029-0.861-0.029
		c-4.422,0-8.088,2.244-8.791,5.184c-2.875,0.439-5.078,3.572-5.078,6.568v1.41c0,3.305,2.682,5.986,5.986,5.986H3.246v-2.404
		h-4.332c-0.572-0.008-1.131-0.199-1.527-0.705c-0.18-0.234-0.293-0.539-0.291-0.852c-0.002-0.359,0.146-0.703,0.371-0.949
		l8.33-9.34c0.396-0.43,0.914-0.6,1.445-0.604c0.533,0.004,1.051,0.174,1.447,0.604l8.328,9.34c0.227,0.246,0.375,0.592,0.373,0.949
		c0,0.312-0.111,0.617-0.291,0.852c-0.396,0.506-0.957,0.697-1.527,0.705h-4.334v2.404h17.836c3.305,0,5.984-2.682,5.984-5.986
		v-1.41C35.059,8.433,32.594,5.841,29.477,5.634z"/>
	<path display="inline" d="M7.402,5.917C7.398,5.915,7.391,5.911,7.379,5.905C7.35,5.896,7.297,5.882,7.242,5.882
		C7.168,5.88,7.102,5.905,7.084,5.917l-7.975,8.939h5.875v8.4c0.053,0.031,0.166,0.074,0.303,0.072h3.91
		c0.102,0,0.189-0.021,0.25-0.047c0.023-0.01,0.039-0.018,0.053-0.025v-8.4h5.875L7.402,5.917z"/>
</g>
<g display="none">
	<g display="inline">
		<path d="M5.77,12.263c-3.141,0-5.697-2.556-5.697-5.695c0-3.142,2.557-5.698,5.697-5.698s5.696,2.557,5.696,5.698
			C11.466,9.707,8.91,12.263,5.77,12.263z M5.77,2.79c-2.083,0-3.776,1.693-3.776,3.777c0,2.081,1.693,3.774,3.776,3.774
			c2.082,0,3.775-1.693,3.775-3.774C9.545,4.483,7.852,2.79,5.77,2.79z"/>
	</g>
	<g display="inline">
		<path d="M13.451,13.623c-0.191,0-0.383-0.056-0.549-0.173l-4.18-2.916c-0.436-0.303-0.542-0.902-0.238-1.337
			C8.787,8.763,9.384,8.655,9.82,8.959l4.182,2.916c0.434,0.304,0.541,0.902,0.237,1.337C14.053,13.479,13.754,13.623,13.451,13.623
			z"/>
	</g>
</g>
</svg>
