<?xml version="1.0" encoding="utf-8"?>
<!-- Generator: Adobe Illustrator 16.0.0, SVG Export Plug-In . SVG Version: 6.00 Build 0)  -->
<!DOCTYPE svg PUBLIC "-//W3C//DTD SVG 1.1//EN" "http://www.w3.org/Graphics/SVG/1.1/DTD/svg11.dtd">
<svg version="1.1" id="Layer_1" xmlns="http://www.w3.org/2000/svg" xmlns:xlink="http://www.w3.org/1999/xlink" x="0px" y="0px"
	 width="10.772px" height="10.772px" viewBox="0 0 10.772 10.772" enable-background="new 0 0 10.772 10.772" xml:space="preserve">
<path display="none" d="M6.678,5.797v0.801c0.145,0.063,0.312,0.138,0.499,0.22c0.188,0.081,0.38,0.167,0.579,0.253
	c0.199,0.088,0.4,0.174,0.604,0.262c0.202,0.086,0.396,0.166,0.578,0.242C9.119,7.648,9.284,7.717,9.43,7.776
	c0.147,0.06,0.266,0.106,0.356,0.138c0.192,0.068,0.349,0.171,0.467,0.312c0.12,0.14,0.212,0.28,0.281,0.428
	c0.081,0.169,0.14,0.347,0.177,0.534v0.869H0.061V9.188C0.102,9,0.162,8.822,0.245,8.653c0.068-0.147,0.161-0.288,0.28-0.428
	c0.119-0.141,0.271-0.243,0.459-0.312C1.08,7.883,1.205,7.835,1.361,7.772c0.156-0.062,0.33-0.133,0.521-0.212
	c0.19-0.078,0.394-0.166,0.605-0.258C2.7,7.213,2.911,7.121,3.121,7.029C3.333,6.938,3.53,6.853,3.717,6.77
	C3.905,6.687,4.07,6.613,4.211,6.551V5.77C4.203,5.732,4.188,5.678,4.166,5.601C4.146,5.525,4.124,5.45,4.102,5.372
	c-0.027-0.091-0.06-0.189-0.096-0.295C3.873,4.831,3.769,4.552,3.689,4.238C3.613,3.925,3.574,3.593,3.574,3.242
	c0-0.461,0.048-0.853,0.147-1.171c0.099-0.32,0.23-0.58,0.4-0.781c0.169-0.201,0.366-0.348,0.593-0.438
	c0.227-0.092,0.47-0.137,0.729-0.137c0.257,0,0.498,0.043,0.723,0.133C6.393,0.937,6.591,1.08,6.762,1.279
	c0.172,0.198,0.307,0.459,0.405,0.781c0.098,0.321,0.147,0.716,0.147,1.182c0,0.343-0.038,0.667-0.113,0.975
	c-0.076,0.31-0.18,0.587-0.312,0.834C6.853,5.164,6.818,5.272,6.786,5.372C6.76,5.459,6.734,5.542,6.711,5.621
	C6.688,5.702,6.678,5.76,6.678,5.797z"/>
<polygon display="none" points="9.517,2.4 5.386,8.371 1.255,2.4 "/>
<g display="none">
	<path display="inline" d="M1.979-3.236c1.61,1.306,1.887,2.828,2.55,3.419c0.194,0.175,0.246,0.015,0.719,0.015
		c0.387,0,0.474,0.171,0.658,0.019c0.692-0.571,1.081-2.073,2.637-3.369c0.729-0.607,0.115-0.841-0.881-0.93
		c-0.72-0.065-1.148,0.684-1.907,0.684c-0.704,0-2.122-0.827-2.815-0.775C1.845-4.092,1.204-3.864,1.979-3.236z"/>
	<path display="inline" d="M5.386,0.607c-3.683,0-6.668,5.898-6.668,9.105c0,3.208,2.985,5.235,6.668,5.235
		c3.684,0,6.668-2.027,6.668-5.235C12.054,6.506,9.069,0.607,5.386,0.607z M5.79,10.582l0.022,0.97
		c0.005,0.15-0.047,0.217-0.188,0.222l-0.473,0.02c-0.14,0.007-0.206-0.058-0.212-0.207l-0.023-0.959
		c-1.125-0.082-1.67-0.63-1.688-1.224L3.22,9.135c-0.003-0.131,0.048-0.197,0.178-0.2l0.57-0.02C4.109,8.91,4.153,8.974,4.159,9.103
		l0.007,0.227c0.013,0.389,0.43,0.559,1.119,0.537c0.681-0.021,1.097-0.22,1.084-0.608l-0.01-0.291
		C6.352,8.707,6.13,8.575,5.771,8.468L4.134,7.959C3.729,7.833,3.272,7.435,3.255,6.896L3.243,6.497
		c-0.02-0.584,0.42-1.18,1.496-1.344L4.716,4.185C4.711,4.033,4.773,3.967,4.913,3.962l0.475-0.021
		c0.141-0.005,0.195,0.058,0.199,0.21l0.024,0.968c1.042,0.117,1.52,0.678,1.538,1.25l0.009,0.259
		C7.163,6.769,7.122,6.824,6.97,6.829L6.409,6.847C6.279,6.852,6.224,6.8,6.22,6.658L6.211,6.399
		C6.197,6.012,5.835,5.839,5.166,5.861C4.509,5.884,4.169,6.077,4.181,6.466l0.006,0.184c0.009,0.281,0.275,0.423,0.471,0.482
		L6.295,7.64c0.6,0.185,0.987,0.519,1.005,1.027l0.02,0.604C7.339,9.853,6.832,10.408,5.79,10.582z"/>
</g>
<path display="none" fill-rule="evenodd" clip-rule="evenodd" d="M10.239-2.887H0.531c-1.879,0-3.418,1.539-3.418,3.419v9.707
	c0,1.881,1.539,3.419,3.418,3.419h9.708c1.88,0,3.419-1.538,3.419-3.419V0.532C13.658-1.348,12.119-2.887,10.239-2.887z
	 M10.479,3.017L4.348,9.147c-0.154,0.154-0.404,0.154-0.558,0L3.666,9.022v0.001L3.533,8.891L2.955,8.312
	c-0.004-0.003-0.006-0.01-0.009-0.013L0.295,5.628c-0.154-0.154-0.154-0.403,0-0.558l0.836-0.835c0.153-0.155,0.402-0.155,0.557,0
	l2.385,2.401l5.012-5.013c0.154-0.154,0.404-0.154,0.558,0l0.837,0.837C10.631,2.613,10.631,2.863,10.479,3.017z"/>
<g display="none">
	<path display="inline" fill-rule="evenodd" clip-rule="evenodd" d="M12.3-0.871H9.666v-1.975H8.349v1.975H2.421v-1.975H1.105v1.975
		h-2.635c-0.363,0-0.658,0.296-0.658,0.657v1.318h15.146v-1.318C12.958-0.575,12.664-0.871,12.3-0.871z"/>
	<path display="inline" fill-rule="evenodd" clip-rule="evenodd" d="M-2.188,12.959c0,0.363,0.295,0.658,0.658,0.658H12.3
		c0.364,0,0.658-0.295,0.658-0.658V1.763H-2.188V12.959z M9.008,3.08h2.635v2.635H9.008V3.08z M9.008,6.372h2.635v2.635H9.008V6.372
		z M9.008,9.666h2.635V12.3H9.008V9.666z M5.714,3.08h2.635v2.635H5.714V3.08z M5.714,6.372h2.635v2.635H5.714V6.372z M5.714,9.666
		h2.635V12.3H5.714V9.666z M2.421,3.08h2.634v2.635H2.421V3.08z M2.421,6.372h2.634v2.635H2.421V6.372z M2.421,9.666h2.634V12.3
		H2.421V9.666z M-0.871,3.08h2.635v2.635h-2.635V3.08z M-0.871,6.372h2.635v2.635h-2.635V6.372z M-0.871,9.666h2.635V12.3h-2.635
		V9.666z"/>
</g>
<g display="none">
	<path display="inline" d="M4.57,6.135c0,0,0.027-8.888,0.006-8.888c-4.631,0-8.199,4.037-8.199,8.754s3.824,8.413,8.541,8.413
		s8.541-3.526,8.541-8.242C13.459,6.132,4.57,6.135,4.57,6.135z"/>
	<path display="inline" d="M14.395,4.821c0-4.517-4.029-8.464-8.546-8.464c0.062,0,0,8.464,0,8.464S14.395,4.847,14.395,4.821z"/>
</g>
<path display="none" fill-rule="evenodd" clip-rule="evenodd" d="M8.876,4.707l5.854-5.67C14.896-0.8,15-0.573,15-0.322v11.416
	c0,0.237-0.094,0.452-0.244,0.613L8.876,4.707z M-3.93-0.989c0.16-0.145,0.37-0.235,0.603-0.235h17.425
	c0.232,0,0.441,0.091,0.602,0.235L5.386,6.287L-3.93-0.989z M-3.986,11.707c-0.149-0.161-0.242-0.376-0.242-0.613V-0.322
	c0-0.251,0.103-0.478,0.269-0.641l5.854,5.67L-3.986,11.707z M5.386,8.09L7.83,5.723l6.887,6.025
	c-0.162,0.154-0.379,0.248-0.619,0.248H-3.327c-0.241,0-0.456-0.094-0.618-0.248L2.94,5.723L5.386,8.09z"/>
<polygon display="none" points="9.151,1.398 3.835,6.716 1.62,4.499 0.29,5.829 2.505,8.044 2.505,8.044 3.835,9.373 10.481,2.728 
	"/>
<g display="none">
	<g display="inline">
		<path d="M5.385,10.248c-0.42,0-0.762-0.341-0.762-0.762V1.285c0-0.421,0.342-0.762,0.762-0.762s0.762,0.341,0.762,0.762v8.201
			C6.146,9.907,5.805,10.248,5.385,10.248z"/>
	</g>
	<g display="inline">
		<path d="M9.486,6.148H1.285c-0.421,0-0.762-0.342-0.762-0.762c0-0.421,0.341-0.762,0.762-0.762h8.201
			c0.42,0,0.762,0.341,0.762,0.762C10.248,5.807,9.906,6.148,9.486,6.148z"/>
	</g>
</g>
<g display="none">
	<g display="inline">
		<path d="M9.486,6.147H1.285c-0.421,0-0.762-0.341-0.762-0.762s0.341-0.762,0.762-0.762h8.201c0.42,0,0.762,0.341,0.762,0.762
			S9.906,6.147,9.486,6.147z"/>
	</g>
</g>
<g>
	<path d="M10.219,7.543L8.062,5.387l2.157-2.158c0.738-0.738,0.738-1.936,0-2.674c-0.74-0.737-1.937-0.739-2.678,0L5.386,2.71
		L3.229,0.554c-0.739-0.739-1.936-0.739-2.674,0c-0.74,0.738-0.74,1.937,0,2.674l2.156,2.158L0.555,7.543
		c-0.74,0.738-0.74,1.938,0,2.676c0.738,0.738,1.935,0.738,2.674,0l2.157-2.156l2.155,2.156c0.741,0.738,1.938,0.738,2.678,0
		C10.957,9.48,10.957,8.281,10.219,7.543z"/>
</g>
<g display="none">
	<path display="inline" d="M11.614,1.52l-1.085-1.084c-0.424-0.425-1.114-0.425-1.538,0L3.567,5.859L1.779,4.074
		c-0.425-0.426-1.113-0.426-1.537,0l-1.086,1.084c-0.425,0.426-0.425,1.113,0,1.537l3.438,3.438c0.024,0.027,0.051,0.049,0.078,0.07
		L2.8,10.336c0.427,0.424,1.115,0.424,1.539,0l7.275-7.275C12.04,2.635,12.04,1.946,11.614,1.52z"/>
</g>
<g display="none">
	<path display="inline" d="M12.631,5.19c-0.001-0.031-0.004-0.063-0.004-0.096l-0.001-0.019l-0.001-0.016
		c0-0.021-0.001-0.041-0.002-0.062c-0.003-0.044-0.006-0.087-0.009-0.131l-0.001-0.017L12.611,4.81
		c-0.004-0.048-0.008-0.094-0.013-0.143c-0.001-0.014-0.003-0.027-0.005-0.041c-0.005-0.052-0.012-0.104-0.019-0.155V4.467
		l-0.001-0.015c-0.12-0.936-0.42-1.828-0.887-2.649c-0.456-0.802-1.052-1.501-1.771-2.076C9.901-0.285,9.887-0.296,9.87-0.308
		L9.863-0.312L9.861-0.313L9.858-0.315C8.57-1.326,7.025-1.86,5.386-1.86c-1.641,0-3.188,0.534-4.474,1.545L0.909-0.313L0.897-0.306
		C0.883-0.295,0.868-0.284,0.855-0.274C0.137,0.302-0.46,0.999-0.916,1.801c-0.468,0.82-0.766,1.711-0.887,2.646L-1.805,4.46
		l-0.001,0.014c-0.006,0.049-0.012,0.1-0.017,0.149c-0.002,0.016-0.003,0.031-0.005,0.048c-0.004,0.045-0.009,0.09-0.013,0.138
		C-1.841,4.829-1.843,4.851-1.844,4.87C-1.848,4.913-1.85,4.954-1.853,4.998c-0.001,0.019-0.002,0.039-0.002,0.059l-0.001,0.022
		l-0.001,0.022C-1.857,5.131-1.859,5.161-1.86,5.19c-0.001,0.053-0.001,0.107-0.002,0.162v0.016c0,0.006,0,0.01,0,0.01v0.01
		c0,0,0,0.01,0,0.015c0,0.007,0,0.012,0,0.012c0.001,0.061,0.001,0.113,0.002,0.167c0.001,0.031,0.003,0.062,0.004,0.094
		l0.001,0.021l0.001,0.027c0,0.017,0.001,0.033,0.002,0.05c0.003,0.044,0.005,0.088,0.01,0.132V5.92l0.003,0.042
		c0.004,0.048,0.009,0.095,0.013,0.142c0.002,0.016,0.003,0.027,0.004,0.042c0.005,0.052,0.012,0.103,0.018,0.155l0.001,0.009
		l0.001,0.01c0.121,0.938,0.419,1.828,0.887,2.649c0.456,0.802,1.052,1.5,1.771,2.077c0.015,0.011,0.031,0.021,0.046,0.032
		l0.006,0.006l0.003,0.001l0.003,0.002c1.286,1.01,2.833,1.544,4.474,1.545c1.64-0.001,3.187-0.535,4.473-1.545l0.003-0.002
		l0.003-0.002l0.009-0.006c0.016-0.012,0.029-0.021,0.042-0.031c0.719-0.575,1.314-1.273,1.771-2.075
		c0.468-0.82,0.768-1.711,0.888-2.646l0.002-0.019l0.001-0.008c0.006-0.05,0.012-0.1,0.017-0.148
		c0.002-0.016,0.005-0.033,0.006-0.049c0.005-0.045,0.009-0.09,0.013-0.137c0.001-0.021,0.002-0.042,0.004-0.063
		c0.002-0.042,0.005-0.084,0.008-0.125c0.001-0.022,0.002-0.043,0.002-0.063l0.001-0.02l0.001-0.021
		c0.002-0.031,0.003-0.061,0.004-0.091c0.001-0.054,0.001-0.107,0.002-0.162c0-0.005,0-0.012,0-0.018V5.388V5.384
		c0,0,0-0.01,0-0.015c0-0.007,0-0.012,0-0.019C12.632,5.298,12.632,5.243,12.631,5.19z M10.815,5.534
		c-0.001,0.022-0.001,0.045-0.002,0.067v0.01c-0.001,0.022-0.002,0.044-0.004,0.066c-0.002,0.032-0.003,0.064-0.007,0.095
		c0,0.016-0.001,0.031-0.002,0.045c-0.004,0.036-0.007,0.072-0.011,0.107l-0.002,0.023v0.005c-0.005,0.041-0.01,0.081-0.015,0.121
		v0.003v0.002c-0.153,1.196-0.688,2.285-1.547,3.146c-1.028,1.025-2.393,1.59-3.841,1.59c-1.449,0-2.814-0.564-3.841-1.59
		c-0.883-0.884-1.438-2.05-1.563-3.282L-0.02,5.94V5.938c-0.004-0.043-0.008-0.086-0.011-0.13l-0.002-0.014V5.789
		C-0.035,5.75-0.037,5.711-0.04,5.671V5.649l-0.001-0.013c-0.001-0.036-0.003-0.072-0.003-0.108
		c-0.001-0.018-0.001-0.036-0.001-0.054V5.457V5.436c-0.002-0.018-0.002-0.034-0.002-0.052c0-0.049,0.002-0.098,0.003-0.146
		c0-0.02,0.001-0.039,0.001-0.059l0.001-0.018c0.001-0.022,0.002-0.046,0.004-0.068c0.001-0.03,0.003-0.063,0.005-0.095
		c0.001-0.015,0.001-0.03,0.003-0.045c0.003-0.036,0.006-0.072,0.011-0.108l0.002-0.027c0.005-0.04,0.01-0.081,0.014-0.121
		l0.002-0.003C0.15,3.495,0.685,2.407,1.545,1.547c1.026-1.026,2.39-1.591,3.841-1.592c1.448,0.001,2.812,0.565,3.841,1.592
		c0.883,0.884,1.438,2.05,1.562,3.283v0.001v0.001c0.005,0.044,0.01,0.087,0.012,0.13l0.001,0.021
		c0.004,0.039,0.006,0.078,0.008,0.118l0.002,0.023l0.001,0.012c0.001,0.035,0.002,0.071,0.003,0.107
		c0.002,0.018,0.002,0.035,0.002,0.054v0.017v0.021c0,0.018,0.001,0.035,0.001,0.053C10.818,5.437,10.817,5.485,10.815,5.534z"/>
	<path display="inline" d="M7.425,4.673H6.184V2.314c0-0.508-0.413-0.92-0.92-0.92s-0.919,0.412-0.919,0.92v3.278
		c0,0.508,0.412,0.922,0.919,0.922h2.161c0.508,0,0.921-0.414,0.921-0.922C8.346,5.087,7.933,4.673,7.425,4.673z"/>
</g>
<g id="_x37_57-paper-airplane_x40_2x.png_12_" display="none">
	<g display="inline">
		<path d="M12.966-1.923c0-0.15-0.121-0.271-0.271-0.271c-0.037,0-0.075,0.008-0.107,0.025L-2.03,4.055
			c-0.097,0.04-0.165,0.137-0.165,0.249c0,0.113,0.068,0.213,0.169,0.252l5.851,2.391l2.392,5.852h0.002
			c0.04,0.101,0.138,0.168,0.25,0.168c0.113,0,0.209-0.067,0.247-0.162l0.003-0.005l6.226-14.615l-0.002-0.002
			C12.956-1.852,12.966-1.886,12.966-1.923z M-1.222,4.299l12.737-5.426l-7.548,7.55L-1.222,4.299z M6.473,11.992L4.349,6.805
			l7.55-7.548L6.473,11.992z"/>
	</g>
</g>
<g id="_x37_08-search_x40_2x.png_16_" display="none">
	<g display="inline">
		<path d="M13.626,13.209L8.937,8.52c1.117-1.217,1.805-2.836,1.805-4.619c0-3.778-3.062-6.84-6.841-6.84S-2.94,0.123-2.94,3.9
			c0,3.779,3.062,6.842,6.841,6.842c1.783,0,3.401-0.688,4.619-1.807l4.689,4.689c0.115,0.115,0.302,0.115,0.417,0
			C13.74,13.51,13.74,13.324,13.626,13.209z M3.9,10.146c-3.449,0-6.246-2.795-6.246-6.246c0-3.45,2.797-6.246,6.246-6.246
			s6.246,2.796,6.246,6.246C10.146,7.352,7.35,10.146,3.9,10.146z"/>
	</g>
</g>
<path display="none" fill-rule="evenodd" clip-rule="evenodd" d="M5.385-8.215c-7.51,0-13.6,6.089-13.6,13.601
	c0,7.511,6.09,13.601,13.6,13.601c7.512,0,13.602-6.09,13.602-13.601C18.986-2.126,12.896-8.215,5.385-8.215z M12.761,2.439
	l-8.322,8.322c-0.283,0.283-0.674,0.457-1.104,0.457c-0.432,0-0.822-0.174-1.104-0.457L-2.45,6.08
	c-0.283-0.281-0.457-0.672-0.457-1.104c0-0.861,0.699-1.561,1.561-1.561c0.43,0,0.82,0.176,1.104,0.457l3.578,3.578l7.219-7.219
	c0.281-0.281,0.672-0.457,1.104-0.457c0.861,0,1.561,0.699,1.561,1.561C13.218,1.768,13.042,2.156,12.761,2.439z"/>
<g display="none">
	<path display="inline" d="M27.62,3.773c-0.734-2.916-4.383-6.652-8.777-6.652c-0.145,0-0.287,0.004-0.43,0.008
		c-1.979-4.316-7.076-7.826-13.053-7.826c-5.986,0-11.09,4.389-13.061,8.717C-7.983-2-8.271-2.01-8.562-2.01
		c-4.422,0-8.088,2.244-8.791,5.184c-2.875,0.439-5.078,3.572-5.078,6.568v1.41c0,3.305,2.682,5.986,5.986,5.986H1.39v-2.404h-4.332
		c-0.572-0.008-1.131-0.199-1.527-0.705c-0.18-0.234-0.293-0.539-0.291-0.852c-0.002-0.359,0.146-0.703,0.371-0.949l8.33-9.34
		c0.396-0.43,0.914-0.6,1.445-0.604c0.533,0.004,1.051,0.174,1.447,0.604l8.328,9.34c0.227,0.246,0.375,0.592,0.373,0.949
		c0,0.312-0.111,0.617-0.291,0.852c-0.396,0.506-0.957,0.697-1.527,0.705H9.382v2.404h17.836c3.305,0,5.984-2.682,5.984-5.986v-1.41
		C33.202,6.572,30.737,3.98,27.62,3.773z"/>
	<path display="inline" d="M5.546,4.057C5.542,4.055,5.534,4.051,5.522,4.045C5.493,4.035,5.44,4.021,5.386,4.021
		C5.312,4.02,5.245,4.045,5.228,4.057l-7.975,8.939h5.875v8.4c0.053,0.031,0.166,0.074,0.303,0.072h3.91
		c0.102,0,0.189-0.021,0.25-0.047c0.023-0.01,0.039-0.018,0.053-0.025v-8.4h5.875L5.546,4.057z"/>
</g>
<g display="none">
	<g display="inline">
		<path d="M3.913,10.402c-3.141,0-5.697-2.556-5.697-5.695c0-3.142,2.557-5.698,5.697-5.698s5.696,2.557,5.696,5.698
			C9.609,7.847,7.054,10.402,3.913,10.402z M3.913,0.93c-2.083,0-3.776,1.693-3.776,3.777c0,2.081,1.693,3.774,3.776,3.774
			c2.082,0,3.775-1.693,3.775-3.774C7.688,2.623,5.995,0.93,3.913,0.93z"/>
	</g>
	<g display="inline">
		<path d="M11.595,11.763c-0.191,0-0.383-0.056-0.549-0.173l-4.18-2.916C6.431,8.371,6.324,7.771,6.628,7.337
			c0.303-0.435,0.899-0.542,1.336-0.238l4.182,2.916c0.434,0.304,0.541,0.902,0.237,1.337
			C12.196,11.619,11.897,11.763,11.595,11.763z"/>
	</g>
</g>
</svg>
