<?xml version="1.0" encoding="utf-8"?>
<!-- Generator: Adobe Illustrator 16.0.0, SVG Export Plug-In . SVG Version: 6.00 Build 0)  -->
<!DOCTYPE svg PUBLIC "-//W3C//DTD SVG 1.1//EN" "http://www.w3.org/Graphics/SVG/1.1/DTD/svg11.dtd">
<svg version="1.1" id="Layer_1" xmlns="http://www.w3.org/2000/svg" xmlns:xlink="http://www.w3.org/1999/xlink" x="0px" y="0px"
	 width="8.262px" height="5.971px" viewBox="0 0 8.262 5.971" enable-background="new 0 0 8.262 5.971" xml:space="preserve">
<path display="none" d="M5.423,3.396v0.801c0.145,0.063,0.312,0.138,0.499,0.22c0.188,0.081,0.38,0.167,0.579,0.253
	c0.199,0.088,0.4,0.174,0.604,0.262c0.202,0.086,0.396,0.166,0.578,0.242c0.182,0.074,0.347,0.143,0.492,0.202
	c0.147,0.06,0.266,0.106,0.356,0.138C8.724,5.582,8.88,5.685,8.998,5.825c0.12,0.14,0.212,0.28,0.281,0.428
	C9.36,6.422,9.419,6.6,9.456,6.787v0.869h-10.65V6.787C-1.153,6.6-1.093,6.422-1.01,6.253c0.068-0.147,0.161-0.288,0.28-0.428
	c0.119-0.141,0.271-0.243,0.459-0.312c0.096-0.031,0.221-0.079,0.377-0.142c0.156-0.062,0.33-0.133,0.521-0.212
	c0.19-0.078,0.394-0.166,0.605-0.258c0.212-0.09,0.423-0.182,0.633-0.273c0.212-0.092,0.409-0.177,0.596-0.26
	C2.65,4.286,2.815,4.213,2.956,4.15V3.369C2.948,3.332,2.933,3.277,2.911,3.2C2.891,3.125,2.869,3.05,2.847,2.972
	c-0.027-0.091-0.06-0.189-0.096-0.295C2.618,2.431,2.514,2.151,2.435,1.838C2.358,1.524,2.319,1.192,2.319,0.842
	c0-0.461,0.048-0.853,0.147-1.171c0.099-0.32,0.23-0.58,0.4-0.781C3.036-1.312,3.233-1.458,3.46-1.549
	c0.227-0.092,0.47-0.137,0.729-0.137c0.257,0,0.498,0.043,0.723,0.133C5.138-1.464,5.336-1.32,5.507-1.121
	C5.679-0.923,5.813-0.662,5.912-0.34C6.01-0.019,6.06,0.376,6.06,0.842c0,0.343-0.038,0.667-0.113,0.975
	C5.87,2.126,5.767,2.403,5.635,2.65C5.598,2.764,5.563,2.872,5.531,2.972c-0.026,0.087-0.052,0.17-0.075,0.249
	C5.433,3.302,5.423,3.359,5.423,3.396z"/>
<polygon points="8.262,0 4.131,5.971 0,0 "/>
<g display="none">
	<path display="inline" d="M0.724-5.637c1.61,1.306,1.887,2.828,2.55,3.419C3.468-2.043,3.52-2.203,3.992-2.203
		c0.387,0,0.474,0.171,0.658,0.019c0.692-0.571,1.081-2.073,2.637-3.369c0.729-0.607,0.115-0.841-0.881-0.93
		C5.687-6.549,5.258-5.8,4.499-5.8c-0.704,0-2.122-0.827-2.815-0.775C0.59-6.492-0.051-6.265,0.724-5.637z"/>
	<path display="inline" d="M4.131-1.793c-3.683,0-6.668,5.898-6.668,9.105c0,3.208,2.985,5.235,6.668,5.235
		c3.684,0,6.668-2.027,6.668-5.235C10.799,4.105,7.814-1.793,4.131-1.793z M4.535,8.182l0.022,0.97
		c0.005,0.15-0.047,0.217-0.188,0.222l-0.473,0.02c-0.14,0.007-0.206-0.058-0.212-0.207L3.662,8.227
		c-1.125-0.082-1.67-0.63-1.688-1.224L1.965,6.734c-0.003-0.131,0.048-0.197,0.178-0.2l0.57-0.02
		C2.854,6.51,2.898,6.573,2.904,6.702l0.007,0.227c0.013,0.389,0.43,0.559,1.119,0.537c0.681-0.021,1.097-0.22,1.084-0.608
		l-0.01-0.291c-0.008-0.26-0.229-0.392-0.589-0.499L2.879,5.559C2.475,5.433,2.018,5.034,2,4.495L1.988,4.097
		c-0.02-0.584,0.42-1.18,1.496-1.344L3.461,1.784C3.456,1.633,3.519,1.566,3.658,1.562l0.475-0.021
		c0.141-0.005,0.195,0.058,0.199,0.21l0.024,0.968c1.042,0.117,1.52,0.678,1.538,1.25l0.009,0.259
		c0.005,0.141-0.036,0.196-0.188,0.201L5.154,4.446c-0.13,0.005-0.186-0.047-0.189-0.188L4.956,3.999
		C4.942,3.611,4.58,3.438,3.911,3.461C3.254,3.483,2.914,3.677,2.926,4.065l0.006,0.184C2.94,4.53,3.207,4.672,3.402,4.731
		L5.04,5.239c0.6,0.185,0.987,0.519,1.005,1.027l0.02,0.604C6.084,7.452,5.577,8.008,4.535,8.182z"/>
</g>
<path display="none" fill-rule="evenodd" clip-rule="evenodd" d="M8.984-5.287h-9.708c-1.879,0-3.418,1.539-3.418,3.419v9.707
	c0,1.881,1.539,3.419,3.418,3.419h9.708c1.88,0,3.419-1.538,3.419-3.419v-9.707C12.403-3.748,10.864-5.287,8.984-5.287z
	 M9.224,0.616L3.093,6.747c-0.154,0.154-0.404,0.154-0.558,0L2.411,6.622v0.001L2.278,6.49L1.7,5.911
	c-0.004-0.003-0.006-0.01-0.009-0.013L-0.96,3.228c-0.154-0.154-0.154-0.403,0-0.558l0.836-0.835c0.153-0.155,0.402-0.155,0.557,0
	l2.385,2.401l5.012-5.013c0.154-0.154,0.404-0.154,0.558,0l0.837,0.837C9.376,0.213,9.376,0.463,9.224,0.616z"/>
<g display="none">
	<path display="inline" fill-rule="evenodd" clip-rule="evenodd" d="M11.045-3.271H8.411v-1.975H7.094v1.975H1.166v-1.975h-1.315
		v1.975h-2.635c-0.363,0-0.658,0.296-0.658,0.657v1.318h15.146v-1.318C11.703-2.976,11.409-3.271,11.045-3.271z"/>
	<path display="inline" fill-rule="evenodd" clip-rule="evenodd" d="M-3.442,10.559c0,0.363,0.295,0.658,0.658,0.658h13.829
		c0.364,0,0.658-0.295,0.658-0.658V-0.638H-3.442V10.559z M7.753,0.68h2.635v2.635H7.753V0.68z M7.753,3.972h2.635v2.635H7.753
		V3.972z M7.753,7.266h2.635v2.634H7.753V7.266z M4.459,0.68h2.635v2.635H4.459V0.68z M4.459,3.972h2.635v2.635H4.459V3.972z
		 M4.459,7.266h2.635v2.634H4.459V7.266z M1.166,0.68H3.8v2.635H1.166V0.68z M1.166,3.972H3.8v2.635H1.166V3.972z M1.166,7.266H3.8
		v2.634H1.166V7.266z M-2.126,0.68h2.635v2.635h-2.635V0.68z M-2.126,3.972h2.635v2.635h-2.635V3.972z M-2.126,7.266h2.635v2.634
		h-2.635V7.266z"/>
</g>
<g display="none">
	<path display="inline" d="M3.315,3.734c0,0,0.027-8.888,0.006-8.888c-4.631,0-8.199,4.037-8.199,8.754s3.824,8.413,8.541,8.413
		s8.541-3.526,8.541-8.242C12.204,3.731,3.315,3.734,3.315,3.734z"/>
	<path display="inline" d="M13.14,2.421c0-4.517-4.029-8.464-8.546-8.464c0.062,0,0,8.464,0,8.464S13.14,2.446,13.14,2.421z"/>
</g>
<path display="none" fill-rule="evenodd" clip-rule="evenodd" d="M7.621,2.307l5.854-5.67c0.166,0.163,0.271,0.39,0.271,0.641V8.693
	c0,0.237-0.094,0.452-0.244,0.613L7.621,2.307z M-5.185-3.39c0.16-0.145,0.37-0.235,0.603-0.235h17.425
	c0.232,0,0.441,0.091,0.602,0.235L4.131,3.887L-5.185-3.39z M-5.241,9.307c-0.149-0.161-0.242-0.376-0.242-0.613V-2.723
	c0-0.251,0.103-0.478,0.269-0.641l5.854,5.67L-5.241,9.307z M4.131,5.689l2.444-2.367l6.887,6.025
	c-0.162,0.154-0.379,0.248-0.619,0.248H-4.582c-0.241,0-0.456-0.094-0.618-0.248l6.886-6.025L4.131,5.689z"/>
<polygon display="none" points="7.896,-1.002 2.58,4.315 0.365,2.099 -0.965,3.429 1.25,5.644 1.25,5.644 2.58,6.973 9.227,0.327 
	"/>
<g display="none">
	<g display="inline">
		<path d="M4.13,7.848c-0.42,0-0.762-0.341-0.762-0.762v-8.201c0-0.421,0.342-0.762,0.762-0.762s0.762,0.341,0.762,0.762v8.201
			C4.892,7.507,4.55,7.848,4.13,7.848z"/>
	</g>
	<g display="inline">
		<path d="M8.231,3.748H0.03c-0.421,0-0.762-0.342-0.762-0.762c0-0.421,0.341-0.762,0.762-0.762h8.201
			c0.42,0,0.762,0.341,0.762,0.762C8.993,3.406,8.651,3.748,8.231,3.748z"/>
	</g>
</g>
<g display="none">
	<g display="inline">
		<path d="M8.231,3.747H0.03c-0.421,0-0.762-0.341-0.762-0.762s0.341-0.762,0.762-0.762h8.201c0.42,0,0.762,0.341,0.762,0.762
			S8.651,3.747,8.231,3.747z"/>
	</g>
</g>
<g display="none">
	<path display="inline" d="M8.964,5.143L6.807,2.986l2.157-2.158c0.738-0.738,0.738-1.936,0-2.674c-0.74-0.737-1.937-0.739-2.678,0
		L4.131,0.31L1.974-1.846c-0.739-0.739-1.936-0.739-2.674,0c-0.74,0.738-0.74,1.937,0,2.674l2.156,2.158L-0.7,5.143
		c-0.74,0.738-0.74,1.938,0,2.676c0.738,0.738,1.935,0.738,2.674,0l2.157-2.156l2.155,2.156c0.741,0.738,1.938,0.738,2.678,0
		C9.702,7.08,9.702,5.881,8.964,5.143z"/>
</g>
<g display="none">
	<path display="inline" d="M10.359-0.88L9.274-1.964c-0.424-0.425-1.114-0.425-1.538,0L2.312,3.459L0.524,1.674
		c-0.425-0.426-1.113-0.426-1.537,0l-1.086,1.084c-0.425,0.426-0.425,1.113,0,1.537l3.438,3.438C1.363,7.76,1.39,7.781,1.417,7.803
		l0.128,0.133c0.427,0.424,1.115,0.424,1.539,0l7.275-7.275C10.785,0.235,10.785-0.455,10.359-0.88z"/>
</g>
<g display="none">
	<path display="inline" d="M11.376,2.79c-0.001-0.031-0.004-0.063-0.004-0.096l-0.001-0.019L11.37,2.66
		c0-0.021-0.001-0.041-0.002-0.062c-0.003-0.044-0.006-0.087-0.009-0.131L11.358,2.45l-0.002-0.041
		c-0.004-0.048-0.008-0.094-0.013-0.143c-0.001-0.014-0.003-0.027-0.005-0.041c-0.005-0.052-0.012-0.104-0.019-0.155V2.066
		l-0.001-0.015c-0.12-0.936-0.42-1.828-0.887-2.649C9.977-1.399,9.381-2.099,8.661-2.674C8.646-2.686,8.632-2.696,8.615-2.708
		L8.608-2.713L8.606-2.714L8.604-2.716C7.315-3.727,5.771-4.261,4.131-4.261c-1.641,0-3.188,0.534-4.474,1.545l-0.003,0.002
		l-0.012,0.008c-0.015,0.011-0.029,0.021-0.042,0.031C-1.118-2.099-1.715-1.401-2.171-0.6c-0.468,0.82-0.766,1.711-0.887,2.646
		L-3.06,2.06l-0.001,0.014c-0.006,0.049-0.012,0.1-0.017,0.149C-3.079,2.238-3.08,2.254-3.082,2.271
		c-0.004,0.045-0.009,0.09-0.013,0.138C-3.096,2.429-3.098,2.45-3.099,2.47c-0.004,0.043-0.006,0.084-0.009,0.128
		c-0.001,0.019-0.002,0.039-0.002,0.059L-3.11,2.679l-0.001,0.022C-3.112,2.73-3.114,2.761-3.115,2.79
		c-0.001,0.053-0.001,0.107-0.002,0.162v0.016c0,0.006,0,0.01,0,0.01v0.01c0,0,0,0.01,0,0.015c0,0.007,0,0.012,0,0.012
		c0.001,0.061,0.001,0.113,0.002,0.167c0.001,0.031,0.003,0.062,0.004,0.094l0.001,0.021l0.001,0.027
		c0,0.017,0.001,0.033,0.002,0.05c0.003,0.044,0.005,0.088,0.01,0.132V3.52l0.003,0.042c0.004,0.048,0.009,0.095,0.013,0.142
		C-3.08,3.719-3.079,3.73-3.078,3.745C-3.073,3.797-3.066,3.848-3.061,3.9l0.001,0.009l0.001,0.01
		c0.121,0.938,0.419,1.828,0.887,2.649C-1.716,7.37-1.12,8.068-0.4,8.646c0.015,0.011,0.031,0.021,0.046,0.032l0.006,0.006
		l0.003,0.001l0.003,0.002c1.286,1.01,2.833,1.544,4.474,1.545c1.64-0.001,3.187-0.535,4.473-1.545l0.003-0.002l0.003-0.002
		l0.009-0.006C8.634,8.665,8.647,8.656,8.66,8.646C9.379,8.07,9.975,7.372,10.431,6.57c0.468-0.82,0.768-1.711,0.888-2.646
		l0.002-0.019l0.001-0.008c0.006-0.05,0.012-0.1,0.017-0.148c0.002-0.016,0.005-0.033,0.006-0.049
		c0.005-0.045,0.009-0.09,0.013-0.137c0.001-0.021,0.002-0.042,0.004-0.063c0.002-0.042,0.005-0.084,0.008-0.125
		c0.001-0.022,0.002-0.043,0.002-0.063l0.001-0.02l0.001-0.021c0.002-0.031,0.003-0.061,0.004-0.091
		c0.001-0.054,0.001-0.107,0.002-0.162c0-0.005,0-0.012,0-0.018V2.987V2.983c0,0,0-0.01,0-0.015c0-0.007,0-0.012,0-0.019
		C11.377,2.897,11.377,2.843,11.376,2.79z M9.561,3.134C9.56,3.156,9.56,3.179,9.559,3.201v0.01
		C9.558,3.233,9.557,3.255,9.555,3.277C9.553,3.31,9.552,3.342,9.548,3.372c0,0.016-0.001,0.031-0.002,0.045
		C9.542,3.453,9.539,3.489,9.535,3.524L9.533,3.548v0.005c-0.005,0.041-0.01,0.081-0.015,0.121v0.003v0.002
		C9.365,4.875,8.831,5.964,7.972,6.824c-1.028,1.025-2.393,1.59-3.841,1.59c-1.449,0-2.814-0.564-3.841-1.59
		c-0.883-0.884-1.438-2.05-1.563-3.282L-1.274,3.54V3.538c-0.004-0.043-0.008-0.086-0.011-0.13l-0.002-0.014V3.389
		C-1.29,3.35-1.292,3.311-1.295,3.271V3.249l-0.001-0.013C-1.297,3.2-1.299,3.164-1.299,3.128C-1.3,3.11-1.3,3.092-1.3,3.074V3.057
		V3.035c-0.002-0.018-0.002-0.034-0.002-0.052c0-0.049,0.002-0.098,0.003-0.146c0-0.02,0.001-0.039,0.001-0.059l0.001-0.018
		c0.001-0.022,0.002-0.046,0.004-0.068c0.001-0.03,0.003-0.063,0.005-0.095c0.001-0.015,0.001-0.03,0.003-0.045
		c0.003-0.036,0.006-0.072,0.011-0.108l0.002-0.027c0.005-0.04,0.01-0.081,0.014-0.121l0.002-0.003
		C-1.104,1.095-0.57,0.007,0.29-0.854C1.316-1.88,2.68-2.444,4.131-2.445C5.579-2.444,6.943-1.88,7.972-0.854
		C8.854,0.03,9.409,1.196,9.534,2.43v0.001v0.001c0.005,0.044,0.01,0.087,0.012,0.13l0.001,0.021C9.551,2.621,9.553,2.66,9.555,2.7
		l0.002,0.023l0.001,0.012C9.559,2.771,9.56,2.807,9.561,2.843C9.562,2.86,9.562,2.878,9.562,2.896v0.017v0.021
		c0,0.018,0.001,0.035,0.001,0.053C9.563,3.036,9.562,3.085,9.561,3.134z"/>
	<path display="inline" d="M6.17,2.272H4.929v-2.358c0-0.508-0.413-0.92-0.92-0.92S3.09-0.594,3.09-0.086v3.278
		c0,0.508,0.412,0.922,0.919,0.922H6.17c0.508,0,0.921-0.414,0.921-0.922C7.091,2.687,6.678,2.272,6.17,2.272z"/>
</g>
<g id="_x37_57-paper-airplane_x40_2x.png_12_" display="none">
	<g display="inline">
		<path d="M11.711-4.323c0-0.15-0.121-0.271-0.271-0.271c-0.037,0-0.075,0.008-0.107,0.025L-3.285,1.654
			C-3.382,1.694-3.45,1.791-3.45,1.903c0,0.113,0.068,0.213,0.169,0.252l5.851,2.391l2.392,5.852h0.002
			c0.04,0.101,0.138,0.168,0.25,0.168c0.113,0,0.209-0.067,0.247-0.162l0.003-0.005l6.226-14.615l-0.002-0.002
			C11.701-4.252,11.711-4.286,11.711-4.323z M-2.477,1.898l12.737-5.426l-7.548,7.55L-2.477,1.898z M5.218,9.592L3.094,4.404
			l7.55-7.548L5.218,9.592z"/>
	</g>
</g>
<g id="_x37_08-search_x40_2x.png_16_" display="none">
	<g display="inline">
		<path d="M12.371,10.809L7.682,6.119C8.799,4.902,9.486,3.283,9.486,1.5c0-3.778-3.062-6.84-6.841-6.84S-4.195-2.278-4.195,1.5
			c0,3.779,3.062,6.842,6.841,6.842c1.783,0,3.401-0.688,4.619-1.807l4.689,4.689c0.115,0.115,0.302,0.115,0.417,0
			C12.485,11.109,12.485,10.924,12.371,10.809z M2.646,7.746c-3.449,0-6.246-2.795-6.246-6.246c0-3.45,2.797-6.246,6.246-6.246
			S8.892-1.95,8.892,1.5C8.892,4.951,6.095,7.746,2.646,7.746z"/>
	</g>
</g>
<path display="none" fill-rule="evenodd" clip-rule="evenodd" d="M4.13-10.615c-7.51,0-13.6,6.089-13.6,13.601
	c0,7.511,6.09,13.601,13.6,13.601c7.512,0,13.602-6.09,13.602-13.601C17.731-4.526,11.642-10.615,4.13-10.615z M11.506,0.039
	L3.184,8.361C2.9,8.645,2.51,8.818,2.08,8.818c-0.432,0-0.822-0.174-1.104-0.457L-3.705,3.68c-0.283-0.281-0.457-0.672-0.457-1.104
	c0-0.861,0.699-1.561,1.561-1.561c0.43,0,0.82,0.176,1.104,0.457L2.08,5.051l7.219-7.219c0.281-0.281,0.672-0.457,1.104-0.457
	c0.861,0,1.561,0.699,1.561,1.561C11.963-0.633,11.787-0.244,11.506,0.039z"/>
<g display="none">
	<path display="inline" d="M26.365,1.373c-0.734-2.916-4.383-6.652-8.777-6.652c-0.145,0-0.287,0.004-0.43,0.008
		c-1.979-4.316-7.076-7.826-13.053-7.826c-5.986,0-11.09,4.389-13.061,8.717C-9.238-4.4-9.525-4.41-9.816-4.41
		c-4.422,0-8.088,2.244-8.791,5.184c-2.875,0.439-5.078,3.572-5.078,6.568v1.41c0,3.305,2.682,5.986,5.986,5.986H0.135v-2.404
		h-4.332c-0.572-0.008-1.131-0.199-1.527-0.705c-0.18-0.234-0.293-0.539-0.291-0.852c-0.002-0.359,0.146-0.703,0.371-0.949
		l8.33-9.34c0.396-0.43,0.914-0.6,1.445-0.604c0.533,0.004,1.051,0.174,1.447,0.604l8.328,9.34c0.227,0.246,0.375,0.592,0.373,0.949
		c0,0.312-0.111,0.617-0.291,0.852c-0.396,0.506-0.957,0.697-1.527,0.705H8.127v2.404h17.836c3.305,0,5.984-2.682,5.984-5.986v-1.41
		C31.947,4.172,29.482,1.58,26.365,1.373z"/>
	<path display="inline" d="M4.291,1.656C4.287,1.654,4.279,1.65,4.268,1.645c-0.029-0.01-0.082-0.023-0.137-0.023
		C4.057,1.619,3.99,1.645,3.973,1.656l-7.975,8.939h5.875v8.4c0.053,0.031,0.166,0.074,0.303,0.072h3.91
		c0.102,0,0.189-0.021,0.25-0.047c0.023-0.01,0.039-0.018,0.053-0.025v-8.4h5.875L4.291,1.656z"/>
</g>
<g display="none">
	<g display="inline">
		<path d="M2.658,8.002c-3.141,0-5.697-2.556-5.697-5.695c0-3.142,2.557-5.698,5.697-5.698s5.696,2.557,5.696,5.698
			C8.354,5.446,5.799,8.002,2.658,8.002z M2.658-1.471c-2.083,0-3.776,1.693-3.776,3.777c0,2.081,1.693,3.774,3.776,3.774
			c2.082,0,3.775-1.693,3.775-3.774C6.434,0.223,4.74-1.471,2.658-1.471z"/>
	</g>
	<g display="inline">
		<path d="M10.34,9.362c-0.191,0-0.383-0.056-0.549-0.173l-4.18-2.916C5.176,5.971,5.069,5.371,5.373,4.937
			c0.303-0.435,0.899-0.542,1.336-0.238l4.182,2.916c0.434,0.304,0.541,0.902,0.237,1.337C10.941,9.219,10.643,9.362,10.34,9.362z"
			/>
	</g>
</g>
</svg>
