<?xml version="1.0" encoding="utf-8"?>
<!-- Generator: Adobe Illustrator 16.0.0, SVG Export Plug-In . SVG Version: 6.00 Build 0)  -->
<!DOCTYPE svg PUBLIC "-//W3C//DTD SVG 1.1//EN" "http://www.w3.org/Graphics/SVG/1.1/DTD/svg11.dtd">
<svg version="1.1" id="Layer_1" xmlns="http://www.w3.org/2000/svg" xmlns:xlink="http://www.w3.org/1999/xlink" x="0px" y="0px"
	 width="19.229px" height="13.221px" viewBox="0 0 19.229 13.221" enable-background="new 0 0 19.229 13.221" xml:space="preserve">
<path display="none" d="M10.906,7.021v0.801c0.145,0.063,0.312,0.138,0.499,0.22c0.188,0.081,0.38,0.167,0.579,0.253
	c0.199,0.088,0.4,0.174,0.604,0.262c0.202,0.086,0.396,0.166,0.578,0.242c0.182,0.074,0.347,0.143,0.492,0.202
	c0.147,0.06,0.266,0.106,0.356,0.138c0.192,0.068,0.349,0.171,0.467,0.312c0.12,0.14,0.212,0.28,0.281,0.428
	c0.081,0.169,0.14,0.347,0.177,0.534v0.869H4.289v-0.869c0.041-0.188,0.102-0.365,0.185-0.534C4.542,9.73,4.635,9.59,4.754,9.45
	C4.873,9.31,5.025,9.207,5.213,9.139C5.309,9.107,5.434,9.06,5.59,8.997c0.156-0.062,0.33-0.133,0.521-0.212
	c0.19-0.078,0.394-0.166,0.605-0.258C6.929,8.438,7.14,8.346,7.35,8.254c0.212-0.092,0.409-0.177,0.596-0.26
	c0.188-0.083,0.354-0.156,0.494-0.219V6.994C8.432,6.957,8.416,6.902,8.395,6.825C8.374,6.75,8.353,6.675,8.33,6.597
	c-0.027-0.091-0.06-0.189-0.096-0.295C8.102,6.056,7.997,5.776,7.918,5.463C7.842,5.149,7.803,4.817,7.803,4.467
	c0-0.461,0.048-0.853,0.147-1.171c0.099-0.32,0.23-0.58,0.4-0.781C8.52,2.313,8.717,2.167,8.943,2.076
	c0.227-0.092,0.47-0.137,0.729-0.137c0.257,0,0.498,0.043,0.723,0.133c0.227,0.089,0.425,0.232,0.596,0.432
	c0.172,0.198,0.307,0.459,0.405,0.781c0.098,0.321,0.147,0.716,0.147,1.182c0,0.343-0.038,0.667-0.113,0.975
	c-0.076,0.31-0.18,0.587-0.312,0.834c-0.037,0.113-0.071,0.222-0.104,0.321c-0.026,0.087-0.052,0.17-0.075,0.249
	C10.916,6.927,10.906,6.984,10.906,7.021z"/>
<polygon display="none" points="13.745,3.625 9.614,9.596 5.483,3.625 "/>
<g display="none">
	<path display="inline" d="M6.207-2.012c1.61,1.306,1.887,2.828,2.55,3.419c0.194,0.175,0.246,0.015,0.719,0.015
		c0.387,0,0.474,0.171,0.658,0.019c0.692-0.571,1.081-2.073,2.637-3.369c0.729-0.607,0.115-0.841-0.881-0.93
		c-0.72-0.065-1.148,0.684-1.907,0.684c-0.704,0-2.122-0.827-2.815-0.775C6.073-2.867,5.433-2.64,6.207-2.012z"/>
	<path display="inline" d="M9.614,1.832c-3.683,0-6.668,5.898-6.668,9.105c0,3.208,2.985,5.235,6.668,5.235
		c3.684,0,6.668-2.027,6.668-5.235C16.282,7.73,13.298,1.832,9.614,1.832z M10.019,11.807l0.022,0.97
		c0.005,0.15-0.047,0.217-0.188,0.222l-0.473,0.02c-0.14,0.007-0.206-0.058-0.212-0.207l-0.023-0.959
		c-1.125-0.082-1.67-0.63-1.688-1.224l-0.009-0.269c-0.003-0.131,0.048-0.197,0.178-0.2l0.57-0.02
		c0.142-0.005,0.186,0.059,0.191,0.188l0.007,0.227c0.013,0.389,0.43,0.559,1.119,0.537c0.681-0.021,1.097-0.22,1.084-0.608
		l-0.01-0.291C10.58,9.932,10.358,9.8,9.999,9.692L8.362,9.184C7.958,9.058,7.501,8.659,7.483,8.12L7.472,7.722
		c-0.02-0.584,0.42-1.18,1.496-1.344L8.944,5.409C8.939,5.258,9.002,5.191,9.142,5.187l0.475-0.021
		c0.141-0.005,0.195,0.058,0.199,0.21L9.84,6.344c1.042,0.117,1.52,0.678,1.538,1.25l0.009,0.259
		c0.005,0.141-0.036,0.196-0.188,0.201l-0.561,0.018c-0.13,0.005-0.186-0.047-0.189-0.188l-0.009-0.259
		c-0.014-0.388-0.376-0.561-1.045-0.538C8.737,7.108,8.397,7.302,8.409,7.69l0.006,0.184C8.424,8.155,8.69,8.297,8.886,8.356
		l1.638,0.508c0.6,0.185,0.987,0.519,1.005,1.027l0.02,0.604C11.567,11.077,11.061,11.633,10.019,11.807z"/>
</g>
<path display="none" fill-rule="evenodd" clip-rule="evenodd" d="M14.468-1.662H4.76c-1.879,0-3.418,1.539-3.418,3.419v9.707
	c0,1.881,1.539,3.419,3.418,3.419h9.708c1.88,0,3.419-1.538,3.419-3.419V1.757C17.887-0.123,16.348-1.662,14.468-1.662z
	 M14.707,4.241l-6.131,6.131c-0.154,0.154-0.404,0.154-0.558,0l-0.124-0.125v0.001l-0.133-0.133L7.184,9.536
	C7.18,9.533,7.178,9.526,7.175,9.523L4.523,6.853c-0.154-0.154-0.154-0.403,0-0.558L5.359,5.46c0.153-0.155,0.402-0.155,0.557,0
	l2.385,2.401l5.012-5.013c0.154-0.154,0.404-0.154,0.558,0l0.837,0.837C14.859,3.838,14.859,4.088,14.707,4.241z"/>
<g display="none">
	<path display="inline" fill-rule="evenodd" clip-rule="evenodd" d="M16.528,0.354h-2.634v-1.975h-1.317v1.975H6.649v-1.975H5.334
		v1.975H2.699c-0.363,0-0.658,0.296-0.658,0.657v1.318h15.146V1.011C17.187,0.649,16.893,0.354,16.528,0.354z"/>
	<path display="inline" fill-rule="evenodd" clip-rule="evenodd" d="M2.041,14.184c0,0.363,0.295,0.658,0.658,0.658h13.829
		c0.364,0,0.658-0.295,0.658-0.658V2.987H2.041V14.184z M13.236,4.305h2.635v2.635h-2.635V4.305z M13.236,7.597h2.635v2.635h-2.635
		V7.597z M13.236,10.891h2.635v2.634h-2.635V10.891z M9.942,4.305h2.635v2.635H9.942V4.305z M9.942,7.597h2.635v2.635H9.942V7.597z
		 M9.942,10.891h2.635v2.634H9.942V10.891z M6.649,4.305h2.634v2.635H6.649V4.305z M6.649,7.597h2.634v2.635H6.649V7.597z
		 M6.649,10.891h2.634v2.634H6.649V10.891z M3.357,4.305h2.635v2.635H3.357V4.305z M3.357,7.597h2.635v2.635H3.357V7.597z
		 M3.357,10.891h2.635v2.634H3.357V10.891z"/>
</g>
<g display="none">
	<path display="inline" d="M8.799,7.359c0,0,0.027-8.888,0.006-8.888c-4.631,0-8.199,4.037-8.199,8.754s3.824,8.413,8.541,8.413
		s8.541-3.526,8.541-8.242C17.688,7.356,8.799,7.359,8.799,7.359z"/>
	<path display="inline" d="M18.623,6.046c0-4.517-4.029-8.464-8.546-8.464c0.062,0,0,8.464,0,8.464S18.623,6.071,18.623,6.046z"/>
</g>
<path fill-rule="evenodd" clip-rule="evenodd" d="M13.104,5.932l5.854-5.67c0.166,0.163,0.271,0.39,0.271,0.641v11.416
	c0,0.237-0.094,0.452-0.244,0.613L13.104,5.932z M0.299,0.235C0.459,0.091,0.669,0,0.901,0h17.425c0.232,0,0.441,0.091,0.602,0.235
	L9.614,7.512L0.299,0.235z M0.242,12.932C0.093,12.771,0,12.556,0,12.318V0.902c0-0.251,0.103-0.478,0.269-0.641l5.854,5.67
	L0.242,12.932z M9.614,9.314l2.444-2.367l6.887,6.025c-0.162,0.154-0.379,0.248-0.619,0.248H0.901c-0.241,0-0.456-0.094-0.618-0.248
	l6.886-6.025L9.614,9.314z"/>
<polygon display="none" points="13.38,2.623 8.063,7.94 5.849,5.724 4.519,7.054 6.733,9.269 6.733,9.269 8.063,10.598 14.71,3.952 
	"/>
<g display="none">
	<g display="inline">
		<path d="M9.613,11.473c-0.42,0-0.762-0.341-0.762-0.762V2.51c0-0.421,0.342-0.762,0.762-0.762s0.762,0.341,0.762,0.762v8.201
			C10.375,11.132,10.033,11.473,9.613,11.473z"/>
	</g>
	<g display="inline">
		<path d="M13.715,7.373H5.514c-0.421,0-0.762-0.342-0.762-0.762c0-0.421,0.341-0.762,0.762-0.762h8.201
			c0.42,0,0.762,0.341,0.762,0.762C14.477,7.031,14.135,7.373,13.715,7.373z"/>
	</g>
</g>
<g display="none">
	<g display="inline">
		<path d="M13.715,7.372H5.514c-0.421,0-0.762-0.341-0.762-0.762s0.341-0.762,0.762-0.762h8.201c0.42,0,0.762,0.341,0.762,0.762
			S14.135,7.372,13.715,7.372z"/>
	</g>
</g>
<g display="none">
	<path display="inline" d="M14.447,8.768L12.29,6.611l2.157-2.158c0.738-0.738,0.738-1.936,0-2.674c-0.74-0.737-1.937-0.739-2.678,0
		L9.614,3.935L7.457,1.779c-0.739-0.739-1.936-0.739-2.674,0c-0.74,0.738-0.74,1.937,0,2.674l2.156,2.158L4.783,8.768
		c-0.74,0.738-0.74,1.938,0,2.676c0.738,0.738,1.935,0.738,2.674,0l2.157-2.156l2.155,2.156c0.741,0.738,1.938,0.738,2.678,0
		C15.186,10.705,15.186,9.506,14.447,8.768z"/>
</g>
<g display="none">
	<path display="inline" d="M15.843,2.745l-1.085-1.084c-0.424-0.425-1.114-0.425-1.538,0L7.796,7.084L6.008,5.299
		c-0.425-0.426-1.113-0.426-1.537,0L3.385,6.383c-0.425,0.426-0.425,1.113,0,1.537l3.438,3.438c0.024,0.027,0.051,0.049,0.078,0.07
		l0.128,0.133c0.427,0.424,1.115,0.424,1.539,0l7.275-7.275C16.269,3.86,16.269,3.17,15.843,2.745z"/>
</g>
<g display="none">
	<path display="inline" d="M16.859,6.415c-0.001-0.031-0.004-0.063-0.004-0.096l-0.001-0.019l-0.001-0.016
		c0-0.021-0.001-0.041-0.002-0.062c-0.003-0.044-0.006-0.087-0.009-0.131l-0.001-0.017L16.84,6.034
		c-0.004-0.048-0.008-0.094-0.013-0.143c-0.001-0.014-0.003-0.027-0.005-0.041c-0.005-0.052-0.012-0.104-0.019-0.155V5.691
		l-0.001-0.015c-0.12-0.936-0.42-1.828-0.887-2.649c-0.456-0.802-1.052-1.501-1.771-2.076c-0.015-0.012-0.029-0.022-0.046-0.034
		l-0.007-0.005L14.09,0.911l-0.003-0.002c-1.288-1.011-2.833-1.545-4.473-1.545c-1.641,0-3.188,0.534-4.474,1.545L5.138,0.911
		L5.126,0.919C5.111,0.93,5.097,0.94,5.084,0.95C4.365,1.526,3.769,2.224,3.312,3.025c-0.468,0.82-0.766,1.711-0.887,2.646
		L2.424,5.685L2.423,5.698c-0.006,0.049-0.012,0.1-0.017,0.149C2.404,5.863,2.403,5.879,2.401,5.896
		C2.397,5.94,2.393,5.985,2.389,6.033C2.388,6.054,2.386,6.075,2.385,6.095C2.381,6.138,2.379,6.179,2.376,6.223
		C2.375,6.241,2.374,6.262,2.374,6.281L2.373,6.304L2.372,6.326c-0.001,0.029-0.003,0.06-0.004,0.089
		C2.367,6.468,2.367,6.522,2.366,6.577v0.016c0,0.006,0,0.01,0,0.01v0.01c0,0,0,0.01,0,0.015c0,0.007,0,0.012,0,0.012
		c0.001,0.061,0.001,0.113,0.002,0.167c0.001,0.031,0.003,0.062,0.004,0.094L2.373,6.92l0.001,0.027c0,0.017,0.001,0.033,0.002,0.05
		c0.003,0.044,0.005,0.088,0.01,0.132v0.016l0.003,0.042c0.004,0.048,0.009,0.095,0.013,0.142C2.403,7.344,2.404,7.355,2.405,7.37
		C2.41,7.422,2.417,7.473,2.423,7.525l0.001,0.009l0.001,0.01c0.121,0.938,0.419,1.828,0.887,2.649
		c0.456,0.802,1.052,1.5,1.771,2.077c0.015,0.011,0.031,0.021,0.046,0.032l0.006,0.006l0.003,0.001l0.003,0.002
		c1.286,1.01,2.833,1.544,4.474,1.545c1.64-0.001,3.187-0.535,4.473-1.545l0.003-0.002l0.003-0.002l0.009-0.006
		c0.016-0.012,0.029-0.021,0.042-0.031c0.719-0.575,1.314-1.273,1.771-2.075c0.468-0.82,0.768-1.711,0.888-2.646l0.002-0.019
		l0.001-0.008c0.006-0.05,0.012-0.1,0.017-0.148c0.002-0.016,0.005-0.033,0.006-0.049c0.005-0.045,0.009-0.09,0.013-0.137
		c0.001-0.021,0.002-0.042,0.004-0.063C16.846,7.083,16.849,7.041,16.852,7c0.001-0.022,0.002-0.043,0.002-0.063l0.001-0.02
		l0.001-0.021c0.002-0.031,0.003-0.061,0.004-0.091c0.001-0.054,0.001-0.107,0.002-0.162c0-0.005,0-0.012,0-0.018V6.612V6.608
		c0,0,0-0.01,0-0.015c0-0.007,0-0.012,0-0.019C16.86,6.522,16.86,6.468,16.859,6.415z M15.044,6.759
		c-0.001,0.022-0.001,0.045-0.002,0.067v0.01c-0.001,0.022-0.002,0.044-0.004,0.066c-0.002,0.032-0.003,0.064-0.007,0.095
		c0,0.016-0.001,0.031-0.002,0.045c-0.004,0.036-0.007,0.072-0.011,0.107l-0.002,0.023v0.005c-0.005,0.041-0.01,0.081-0.015,0.121
		v0.003v0.002c-0.153,1.196-0.688,2.285-1.547,3.146c-1.028,1.025-2.393,1.59-3.841,1.59c-1.449,0-2.814-0.564-3.841-1.59
		C4.891,9.565,4.336,8.399,4.21,7.167L4.209,7.165V7.163C4.205,7.12,4.201,7.077,4.198,7.033L4.196,7.02V7.014
		C4.193,6.975,4.191,6.936,4.188,6.896V6.874L4.188,6.861C4.187,6.825,4.185,6.789,4.185,6.753C4.184,6.735,4.184,6.717,4.184,6.699
		V6.682V6.66C4.182,6.643,4.182,6.626,4.182,6.608c0-0.049,0.002-0.098,0.003-0.146c0-0.02,0.001-0.039,0.001-0.059l0.001-0.018
		C4.188,6.363,4.188,6.34,4.19,6.317c0.001-0.03,0.003-0.063,0.005-0.095c0.001-0.015,0.001-0.03,0.003-0.045
		c0.003-0.036,0.006-0.072,0.011-0.108l0.002-0.027c0.005-0.04,0.01-0.081,0.014-0.121l0.002-0.003
		C4.379,4.72,4.913,3.632,5.773,2.771C6.8,1.745,8.163,1.181,9.614,1.18c1.448,0.001,2.812,0.565,3.841,1.592
		c0.883,0.884,1.438,2.05,1.562,3.283v0.001v0.001c0.005,0.044,0.01,0.087,0.012,0.13l0.001,0.021
		c0.004,0.039,0.006,0.078,0.008,0.118l0.002,0.023l0.001,0.012c0.001,0.035,0.002,0.071,0.003,0.107
		c0.002,0.018,0.002,0.035,0.002,0.054v0.017V6.56c0,0.018,0.001,0.035,0.001,0.053C15.047,6.661,15.046,6.71,15.044,6.759z"/>
	<path display="inline" d="M11.653,5.897h-1.241V3.539c0-0.508-0.413-0.92-0.92-0.92s-0.919,0.412-0.919,0.92v3.278
		c0,0.508,0.412,0.922,0.919,0.922h2.161c0.508,0,0.921-0.414,0.921-0.922C12.574,6.312,12.161,5.897,11.653,5.897z"/>
</g>
<g id="_x37_57-paper-airplane_x40_2x.png_12_" display="none">
	<g display="inline">
		<path d="M17.194-0.698c0-0.15-0.121-0.271-0.271-0.271c-0.037,0-0.075,0.008-0.107,0.025L2.198,5.279
			c-0.097,0.04-0.165,0.137-0.165,0.249c0,0.113,0.068,0.213,0.169,0.252l5.851,2.391l2.392,5.852h0.002
			c0.04,0.101,0.138,0.168,0.25,0.168c0.113,0,0.209-0.067,0.247-0.162l0.003-0.005l6.226-14.615L17.17-0.594
			C17.185-0.627,17.194-0.661,17.194-0.698z M3.007,5.523l12.737-5.426l-7.548,7.55L3.007,5.523z M10.701,13.217L8.577,8.029
			l7.55-7.548L10.701,13.217z"/>
	</g>
</g>
<g id="_x37_08-search_x40_2x.png_16_" display="none">
	<g display="inline">
		<path d="M17.854,14.434l-4.689-4.689c1.117-1.217,1.805-2.836,1.805-4.619c0-3.778-3.062-6.84-6.841-6.84s-6.841,3.062-6.841,6.84
			c0,3.779,3.062,6.842,6.841,6.842c1.783,0,3.401-0.688,4.619-1.807l4.689,4.689c0.115,0.115,0.302,0.115,0.417,0
			C17.969,14.734,17.969,14.549,17.854,14.434z M8.129,11.371c-3.449,0-6.246-2.795-6.246-6.246c0-3.45,2.797-6.246,6.246-6.246
			s6.246,2.796,6.246,6.246C14.375,8.576,11.578,11.371,8.129,11.371z"/>
	</g>
</g>
<path display="none" fill-rule="evenodd" clip-rule="evenodd" d="M9.613-6.99c-7.51,0-13.6,6.089-13.6,13.601
	c0,7.511,6.09,13.601,13.6,13.601c7.512,0,13.602-6.09,13.602-13.601C23.215-0.901,17.125-6.99,9.613-6.99z M16.989,3.664
	l-8.322,8.322c-0.283,0.283-0.674,0.457-1.104,0.457c-0.432,0-0.822-0.174-1.104-0.457L1.778,7.305
	C1.495,7.023,1.321,6.633,1.321,6.201c0-0.861,0.699-1.561,1.561-1.561c0.43,0,0.82,0.176,1.104,0.457l3.578,3.578l7.219-7.219
	C15.063,1.176,15.454,1,15.886,1c0.861,0,1.561,0.699,1.561,1.561C17.446,2.992,17.271,3.381,16.989,3.664z"/>
<g display="none">
	<path display="inline" d="M31.849,4.998c-0.734-2.916-4.383-6.652-8.777-6.652c-0.145,0-0.287,0.004-0.43,0.008
		c-1.979-4.316-7.076-7.826-13.053-7.826c-5.986,0-11.09,4.389-13.061,8.717c-0.283-0.02-0.57-0.029-0.861-0.029
		c-4.422,0-8.088,2.244-8.791,5.184c-2.875,0.439-5.078,3.572-5.078,6.568v1.41c0,3.305,2.682,5.986,5.986,5.986H5.618v-2.404H1.286
		c-0.572-0.008-1.131-0.199-1.527-0.705c-0.18-0.234-0.293-0.539-0.291-0.852c-0.002-0.359,0.146-0.703,0.371-0.949l8.33-9.34
		c0.396-0.43,0.914-0.6,1.445-0.604c0.533,0.004,1.051,0.174,1.447,0.604l8.328,9.34c0.227,0.246,0.375,0.592,0.373,0.949
		c0,0.312-0.111,0.617-0.291,0.852c-0.396,0.506-0.957,0.697-1.527,0.705H13.61v2.404h17.836c3.305,0,5.984-2.682,5.984-5.986v-1.41
		C37.431,7.797,34.966,5.205,31.849,4.998z"/>
	<path display="inline" d="M9.774,5.281C9.771,5.279,9.763,5.275,9.751,5.27C9.722,5.26,9.669,5.246,9.614,5.246
		C9.54,5.244,9.474,5.27,9.456,5.281l-7.975,8.939h5.875v8.4c0.053,0.031,0.166,0.074,0.303,0.072h3.91
		c0.102,0,0.189-0.021,0.25-0.047c0.023-0.01,0.039-0.018,0.053-0.025v-8.4h5.875L9.774,5.281z"/>
</g>
<g display="none">
	<g display="inline">
		<path d="M8.142,11.627c-3.141,0-5.697-2.556-5.697-5.695c0-3.142,2.557-5.698,5.697-5.698s5.696,2.557,5.696,5.698
			C13.838,9.071,11.282,11.627,8.142,11.627z M8.142,2.154c-2.083,0-3.776,1.693-3.776,3.777c0,2.081,1.693,3.774,3.776,3.774
			c2.082,0,3.775-1.693,3.775-3.774C11.917,3.848,10.224,2.154,8.142,2.154z"/>
	</g>
	<g display="inline">
		<path d="M15.823,12.987c-0.191,0-0.383-0.056-0.549-0.173l-4.18-2.916c-0.436-0.303-0.542-0.902-0.238-1.337
			c0.303-0.435,0.899-0.542,1.336-0.238l4.182,2.916c0.434,0.304,0.541,0.902,0.237,1.337
			C16.425,12.844,16.126,12.987,15.823,12.987z"/>
	</g>
</g>
</svg>
