<?xml version="1.0" encoding="utf-8"?>
<!-- Generator: Adobe Illustrator 16.0.0, SVG Export Plug-In . SVG Version: 6.00 Build 0)  -->
<!DOCTYPE svg PUBLIC "-//W3C//DTD SVG 1.1//EN" "http://www.w3.org/Graphics/SVG/1.1/DTD/svg11.dtd">
<svg version="1.1" id="Layer_1" xmlns="http://www.w3.org/2000/svg" xmlns:xlink="http://www.w3.org/1999/xlink" x="0px" y="0px"
	 width="13.336px" height="19.125px" viewBox="0 0 13.336 19.125" enable-background="new 0 0 13.336 19.125" xml:space="preserve">
<path display="none" d="M7.96,9.974v0.801c0.145,0.063,0.312,0.138,0.499,0.22c0.188,0.081,0.38,0.167,0.579,0.253
	c0.199,0.088,0.4,0.174,0.604,0.262c0.202,0.086,0.396,0.166,0.578,0.242c0.182,0.074,0.347,0.143,0.492,0.202
	c0.147,0.06,0.266,0.106,0.356,0.138c0.192,0.068,0.349,0.171,0.467,0.312c0.12,0.14,0.212,0.28,0.281,0.428
	c0.081,0.169,0.14,0.347,0.177,0.534v0.869H1.343v-0.869C1.384,13.177,1.444,13,1.527,12.831c0.068-0.147,0.161-0.288,0.28-0.428
	c0.119-0.141,0.271-0.243,0.459-0.312c0.096-0.031,0.221-0.079,0.377-0.142c0.156-0.062,0.33-0.133,0.521-0.212
	c0.19-0.078,0.394-0.166,0.605-0.258c0.212-0.09,0.423-0.182,0.633-0.273c0.212-0.092,0.409-0.177,0.596-0.26
	c0.188-0.083,0.354-0.156,0.494-0.219V9.947C5.485,9.91,5.47,9.855,5.448,9.778c-0.021-0.075-0.042-0.15-0.064-0.229
	C5.356,9.458,5.324,9.36,5.288,9.254C5.155,9.008,5.051,8.729,4.972,8.416C4.896,8.102,4.856,7.77,4.856,7.419
	c0-0.461,0.048-0.853,0.147-1.171c0.099-0.32,0.23-0.58,0.4-0.781C5.573,5.266,5.771,5.12,5.997,5.029
	c0.227-0.092,0.47-0.137,0.729-0.137c0.257,0,0.498,0.043,0.723,0.133c0.227,0.089,0.425,0.232,0.596,0.432
	c0.172,0.198,0.307,0.459,0.405,0.781c0.098,0.321,0.147,0.716,0.147,1.182c0,0.343-0.038,0.667-0.113,0.975
	c-0.076,0.31-0.18,0.587-0.312,0.834C8.135,9.341,8.101,9.45,8.068,9.549c-0.026,0.087-0.052,0.17-0.075,0.249
	C7.97,9.879,7.96,9.937,7.96,9.974z"/>
<polygon display="none" points="10.799,6.578 6.668,12.548 2.537,6.578 "/>
<g>
	<path d="M3.261,0.941c1.61,1.306,1.887,2.828,2.55,3.419c0.194,0.175,0.246,0.015,0.719,0.015c0.387,0,0.474,0.171,0.658,0.019
		C7.88,3.822,8.269,2.32,9.824,1.024c0.729-0.607,0.115-0.841-0.881-0.93c-0.72-0.065-1.148,0.684-1.907,0.684
		c-0.704,0-2.122-0.827-2.815-0.775C3.127,0.085,2.486,0.313,3.261,0.941z"/>
	<path d="M6.668,4.785C2.985,4.785,0,10.683,0,13.89c0,3.208,2.985,5.235,6.668,5.235c3.684,0,6.668-2.027,6.668-5.235
		C13.336,10.683,10.352,4.785,6.668,4.785z M7.072,14.759l0.022,0.97c0.005,0.15-0.047,0.217-0.188,0.222l-0.473,0.02
		c-0.14,0.007-0.206-0.058-0.212-0.207l-0.023-0.959c-1.125-0.082-1.67-0.63-1.688-1.224l-0.009-0.269
		c-0.003-0.131,0.048-0.197,0.178-0.2l0.57-0.02c0.142-0.005,0.186,0.059,0.191,0.188l0.007,0.227
		c0.013,0.389,0.43,0.559,1.119,0.537c0.681-0.021,1.097-0.22,1.084-0.608l-0.01-0.291c-0.008-0.26-0.229-0.392-0.589-0.499
		l-1.637-0.509c-0.404-0.126-0.861-0.524-0.879-1.063l-0.012-0.398c-0.02-0.584,0.42-1.18,1.496-1.344L5.998,8.362
		C5.993,8.21,6.056,8.144,6.195,8.139L6.67,8.119c0.141-0.005,0.195,0.058,0.199,0.21l0.024,0.968
		c1.042,0.117,1.52,0.678,1.538,1.25l0.009,0.259c0.005,0.141-0.036,0.196-0.188,0.201l-0.561,0.018
		c-0.13,0.005-0.186-0.047-0.189-0.188l-0.009-0.259c-0.014-0.388-0.376-0.561-1.045-0.538c-0.657,0.022-0.997,0.216-0.985,0.604
		l0.006,0.184c0.009,0.281,0.275,0.423,0.471,0.482l1.638,0.508c0.6,0.185,0.987,0.519,1.005,1.027l0.02,0.604
		C8.621,14.03,8.114,14.585,7.072,14.759z"/>
</g>
<path display="none" fill-rule="evenodd" clip-rule="evenodd" d="M11.521,1.291H1.813c-1.879,0-3.418,1.539-3.418,3.419v9.707
	c0,1.881,1.539,3.419,3.418,3.419h9.708c1.88,0,3.419-1.538,3.419-3.419V4.709C14.94,2.83,13.401,1.291,11.521,1.291z M11.761,7.194
	L5.63,13.325c-0.154,0.154-0.404,0.154-0.558,0L4.948,13.2v0.001l-0.133-0.133l-0.578-0.579c-0.004-0.003-0.006-0.01-0.009-0.013
	L1.577,9.805c-0.154-0.154-0.154-0.403,0-0.558l0.836-0.835c0.153-0.155,0.402-0.155,0.557,0l2.385,2.401l5.012-5.013
	c0.154-0.154,0.404-0.154,0.558,0l0.837,0.837C11.913,6.791,11.913,7.041,11.761,7.194z"/>
<g display="none">
	<path display="inline" fill-rule="evenodd" clip-rule="evenodd" d="M13.582,3.306h-2.634V1.332H9.631v1.975H3.703V1.332H2.388
		v1.975h-2.635c-0.363,0-0.658,0.296-0.658,0.657v1.318H14.24V3.963C14.24,3.602,13.946,3.306,13.582,3.306z"/>
	<path display="inline" fill-rule="evenodd" clip-rule="evenodd" d="M-0.905,17.136c0,0.363,0.295,0.658,0.658,0.658h13.829
		c0.364,0,0.658-0.295,0.658-0.658V5.94H-0.905V17.136z M10.29,7.257h2.635v2.635H10.29V7.257z M10.29,10.549h2.635v2.635H10.29
		V10.549z M10.29,13.843h2.635v2.634H10.29V13.843z M6.996,7.257h2.635v2.635H6.996V7.257z M6.996,10.549h2.635v2.635H6.996V10.549z
		 M6.996,13.843h2.635v2.634H6.996V13.843z M3.703,7.257h2.634v2.635H3.703V7.257z M3.703,10.549h2.634v2.635H3.703V10.549z
		 M3.703,13.843h2.634v2.634H3.703V13.843z M0.411,7.257h2.635v2.635H0.411V7.257z M0.411,10.549h2.635v2.635H0.411V10.549z
		 M0.411,13.843h2.635v2.634H0.411V13.843z"/>
</g>
<g display="none">
	<path display="inline" d="M5.853,10.312c0,0,0.027-8.888,0.006-8.888c-4.631,0-8.199,4.037-8.199,8.754s3.824,8.413,8.541,8.413
		s8.541-3.526,8.541-8.242C14.741,10.309,5.853,10.312,5.853,10.312z"/>
	<path display="inline" d="M15.677,8.999c0-4.517-4.029-8.464-8.546-8.464c0.062,0,0,8.464,0,8.464S15.677,9.024,15.677,8.999z"/>
</g>
<path display="none" fill-rule="evenodd" clip-rule="evenodd" d="M10.158,8.884l5.854-5.67c0.166,0.163,0.271,0.39,0.271,0.641
	v11.416c0,0.237-0.094,0.452-0.244,0.613L10.158,8.884z M-2.647,3.188c0.16-0.145,0.37-0.235,0.603-0.235H15.38
	c0.232,0,0.441,0.091,0.602,0.235l-9.313,7.276L-2.647,3.188z M-2.704,15.884c-0.149-0.161-0.242-0.376-0.242-0.613V3.855
	c0-0.251,0.103-0.478,0.269-0.641l5.854,5.67L-2.704,15.884z M6.668,12.267L9.112,9.9l6.887,6.025
	c-0.162,0.154-0.379,0.248-0.619,0.248H-2.045c-0.241,0-0.456-0.094-0.618-0.248L4.223,9.9L6.668,12.267z"/>
<polygon display="none" points="10.434,5.576 5.117,10.893 2.902,8.676 1.572,10.006 3.787,12.221 3.787,12.221 5.117,13.55 
	11.764,6.905 "/>
<g display="none">
	<g display="inline">
		<path d="M6.667,14.425c-0.42,0-0.762-0.341-0.762-0.762V5.462c0-0.421,0.342-0.762,0.762-0.762s0.762,0.341,0.762,0.762v8.201
			C7.429,14.084,7.087,14.425,6.667,14.425z"/>
	</g>
	<g display="inline">
		<path d="M10.769,10.326H2.567c-0.421,0-0.762-0.342-0.762-0.762c0-0.421,0.341-0.762,0.762-0.762h8.201
			c0.42,0,0.762,0.341,0.762,0.762C11.53,9.984,11.188,10.326,10.769,10.326z"/>
	</g>
</g>
<g display="none">
	<g display="inline">
		<path d="M10.769,10.325H2.567c-0.421,0-0.762-0.341-0.762-0.762s0.341-0.762,0.762-0.762h8.201c0.42,0,0.762,0.341,0.762,0.762
			S11.188,10.325,10.769,10.325z"/>
	</g>
</g>
<g display="none">
	<path display="inline" d="M11.501,11.72L9.344,9.564l2.157-2.158c0.738-0.738,0.738-1.936,0-2.674c-0.74-0.737-1.937-0.739-2.678,0
		L6.668,6.888L4.511,4.731c-0.739-0.739-1.936-0.739-2.674,0c-0.74,0.738-0.74,1.937,0,2.674l2.156,2.158L1.837,11.72
		c-0.74,0.738-0.74,1.938,0,2.676c0.738,0.738,1.935,0.738,2.674,0l2.157-2.156l2.155,2.156c0.741,0.738,1.938,0.738,2.678,0
		C12.239,13.658,12.239,12.458,11.501,11.72z"/>
</g>
<g display="none">
	<path display="inline" d="M12.896,5.697l-1.085-1.084c-0.424-0.425-1.114-0.425-1.538,0L4.85,10.037L3.062,8.251
		c-0.425-0.426-1.113-0.426-1.537,0L0.438,9.335c-0.425,0.426-0.425,1.113,0,1.537l3.438,3.438c0.024,0.027,0.051,0.049,0.078,0.07
		l0.128,0.133c0.427,0.424,1.115,0.424,1.539,0l7.275-7.275C13.322,6.812,13.322,6.123,12.896,5.697z"/>
</g>
<g display="none">
	<path display="inline" d="M13.913,9.368c-0.001-0.031-0.004-0.063-0.004-0.096l-0.001-0.019l-0.001-0.016
		c0-0.021-0.001-0.041-0.002-0.062c-0.003-0.044-0.006-0.087-0.009-0.131l-0.001-0.017l-0.002-0.041
		c-0.004-0.048-0.008-0.094-0.013-0.143c-0.001-0.014-0.003-0.027-0.005-0.041c-0.005-0.052-0.012-0.104-0.019-0.155V8.644
		l-0.001-0.015c-0.12-0.936-0.42-1.828-0.887-2.649c-0.456-0.802-1.052-1.501-1.771-2.076c-0.015-0.012-0.029-0.022-0.046-0.034
		l-0.007-0.005l-0.002-0.001l-0.003-0.002C9.853,2.851,8.308,2.317,6.668,2.317c-1.641,0-3.188,0.534-4.474,1.545L2.191,3.864
		L2.18,3.872C2.165,3.882,2.15,3.893,2.138,3.903C1.419,4.479,0.822,5.176,0.366,5.978c-0.468,0.82-0.766,1.711-0.887,2.646
		l-0.002,0.013l-0.001,0.014C-0.529,8.7-0.535,8.75-0.54,8.8c-0.002,0.016-0.003,0.031-0.005,0.048
		c-0.004,0.045-0.009,0.09-0.013,0.138c-0.001,0.021-0.003,0.042-0.004,0.062C-0.565,9.09-0.567,9.131-0.57,9.175
		c-0.001,0.019-0.002,0.039-0.002,0.059l-0.001,0.022l-0.001,0.022c-0.001,0.029-0.003,0.06-0.004,0.089
		C-0.579,9.42-0.579,9.475-0.58,9.53v0.016c0,0.006,0,0.01,0,0.01v0.01c0,0,0,0.01,0,0.015c0,0.007,0,0.012,0,0.012
		c0.001,0.061,0.001,0.113,0.002,0.167c0.001,0.031,0.003,0.062,0.004,0.094l0.001,0.021L-0.572,9.9c0,0.017,0.001,0.033,0.002,0.05
		c0.003,0.044,0.005,0.088,0.01,0.132v0.016l0.003,0.042c0.004,0.048,0.009,0.095,0.013,0.142c0.002,0.016,0.003,0.027,0.004,0.042
		c0.005,0.052,0.012,0.103,0.018,0.155l0.001,0.009l0.001,0.01c0.121,0.938,0.419,1.828,0.887,2.649
		c0.456,0.802,1.052,1.5,1.771,2.077c0.015,0.011,0.031,0.021,0.046,0.032l0.006,0.006l0.003,0.001l0.003,0.002
		c1.286,1.01,2.833,1.544,4.474,1.545c1.64-0.001,3.187-0.535,4.473-1.545l0.003-0.002l0.003-0.002l0.009-0.006
		c0.016-0.012,0.029-0.021,0.042-0.031c0.719-0.575,1.314-1.273,1.771-2.075c0.468-0.82,0.768-1.711,0.888-2.646l0.002-0.019
		l0.001-0.008c0.006-0.05,0.012-0.1,0.017-0.148c0.002-0.016,0.005-0.033,0.006-0.049c0.005-0.045,0.009-0.09,0.013-0.137
		c0.001-0.021,0.002-0.042,0.004-0.063c0.002-0.042,0.005-0.084,0.008-0.125c0.001-0.022,0.002-0.043,0.002-0.063l0.001-0.02
		l0.001-0.021c0.002-0.031,0.003-0.061,0.004-0.091c0.001-0.054,0.001-0.107,0.002-0.162c0-0.005,0-0.012,0-0.018V9.565V9.561
		c0,0,0-0.01,0-0.015c0-0.007,0-0.012,0-0.019C13.914,9.475,13.914,9.42,13.913,9.368z M12.098,9.711
		c-0.001,0.022-0.001,0.045-0.002,0.067v0.01c-0.001,0.022-0.002,0.044-0.004,0.066c-0.002,0.032-0.003,0.064-0.007,0.095
		c0,0.016-0.001,0.031-0.002,0.045c-0.004,0.036-0.007,0.072-0.011,0.107l-0.002,0.023v0.005c-0.005,0.041-0.01,0.081-0.015,0.121
		v0.003v0.002c-0.153,1.196-0.688,2.285-1.547,3.146c-1.028,1.025-2.393,1.59-3.841,1.59c-1.449,0-2.814-0.564-3.841-1.59
		c-0.883-0.884-1.438-2.05-1.563-3.282l-0.001-0.002v-0.002c-0.004-0.043-0.008-0.086-0.011-0.13L1.25,9.972V9.966
		C1.247,9.927,1.245,9.888,1.242,9.848V9.827L1.241,9.814C1.24,9.778,1.238,9.742,1.238,9.706C1.237,9.688,1.237,9.669,1.237,9.652
		V9.634V9.613C1.235,9.595,1.235,9.579,1.235,9.561c0-0.049,0.002-0.098,0.003-0.146c0-0.02,0.001-0.039,0.001-0.059L1.24,9.338
		C1.241,9.316,1.242,9.292,1.244,9.27c0.001-0.03,0.003-0.063,0.005-0.095C1.25,9.161,1.25,9.145,1.252,9.13
		c0.003-0.036,0.006-0.072,0.011-0.108l0.002-0.027c0.005-0.04,0.01-0.081,0.014-0.121L1.28,8.871
		c0.152-1.198,0.687-2.286,1.547-3.146c1.026-1.026,2.39-1.591,3.841-1.592c1.448,0.001,2.812,0.565,3.841,1.592
		c0.883,0.884,1.438,2.05,1.562,3.283v0.001v0.001c0.005,0.044,0.01,0.087,0.012,0.13l0.001,0.021
		c0.004,0.039,0.006,0.078,0.008,0.118l0.002,0.023l0.001,0.012c0.001,0.035,0.002,0.071,0.003,0.107
		C12.1,9.438,12.1,9.456,12.1,9.474v0.017v0.021c0,0.018,0.001,0.035,0.001,0.053C12.101,9.614,12.1,9.663,12.098,9.711z"/>
	<path display="inline" d="M8.707,8.85H7.466V6.492c0-0.508-0.413-0.92-0.92-0.92s-0.919,0.412-0.919,0.92V9.77
		c0,0.508,0.412,0.922,0.919,0.922h2.161c0.508,0,0.921-0.414,0.921-0.922C9.628,9.264,9.215,8.85,8.707,8.85z"/>
</g>
<g id="_x37_57-paper-airplane_x40_2x.png_12_" display="none">
	<g display="inline">
		<path d="M14.248,2.254c0-0.15-0.121-0.271-0.271-0.271c-0.037,0-0.075,0.008-0.107,0.025L-0.748,8.232
			c-0.097,0.04-0.165,0.137-0.165,0.249c0,0.113,0.068,0.213,0.169,0.252l5.851,2.391l2.392,5.852H7.5
			c0.04,0.101,0.138,0.168,0.25,0.168c0.113,0,0.209-0.067,0.247-0.162L8,16.976l6.226-14.615l-0.002-0.002
			C14.238,2.326,14.248,2.292,14.248,2.254z M0.061,8.476L12.798,3.05L5.25,10.6L0.061,8.476z M7.755,16.169l-2.124-5.188
			l7.55-7.548L7.755,16.169z"/>
	</g>
</g>
<g id="_x37_08-search_x40_2x.png_16_" display="none">
	<g display="inline">
		<path d="M14.908,17.386l-4.689-4.689c1.117-1.217,1.805-2.836,1.805-4.619c0-3.778-3.062-6.84-6.841-6.84S-1.658,4.3-1.658,8.078
			c0,3.779,3.062,6.842,6.841,6.842c1.783,0,3.401-0.688,4.619-1.807l4.689,4.689c0.115,0.115,0.302,0.115,0.417,0
			C15.022,17.687,15.022,17.501,14.908,17.386z M5.183,14.324c-3.449,0-6.246-2.795-6.246-6.246c0-3.45,2.797-6.246,6.246-6.246
			s6.246,2.796,6.246,6.246C11.429,11.529,8.632,14.324,5.183,14.324z"/>
	</g>
</g>
<path display="none" fill-rule="evenodd" clip-rule="evenodd" d="M6.667-4.038c-7.51,0-13.6,6.089-13.6,13.601
	c0,7.511,6.09,13.601,13.6,13.601c7.512,0,13.602-6.09,13.602-13.601C20.269,2.051,14.179-4.038,6.667-4.038z M14.043,6.617
	l-8.322,8.322c-0.283,0.283-0.674,0.457-1.104,0.457c-0.432,0-0.822-0.174-1.104-0.457l-4.682-4.682
	c-0.283-0.281-0.457-0.672-0.457-1.104c0-0.861,0.699-1.561,1.561-1.561c0.43,0,0.82,0.176,1.104,0.457l3.578,3.578l7.219-7.219
	c0.281-0.281,0.672-0.457,1.104-0.457c0.861,0,1.561,0.699,1.561,1.561C14.5,5.945,14.324,6.333,14.043,6.617z"/>
<g display="none">
	<path display="inline" d="M28.902,7.951c-0.734-2.916-4.383-6.652-8.777-6.652c-0.145,0-0.287,0.004-0.43,0.008
		C17.717-3.01,12.619-6.52,6.643-6.52c-5.986,0-11.09,4.389-13.061,8.717c-0.283-0.02-0.57-0.029-0.861-0.029
		c-4.422,0-8.088,2.244-8.791,5.184c-2.875,0.439-5.078,3.572-5.078,6.568v1.41c0,3.305,2.682,5.986,5.986,5.986H2.672v-2.404H-1.66
		c-0.572-0.008-1.131-0.199-1.527-0.705c-0.18-0.234-0.293-0.539-0.291-0.852c-0.002-0.359,0.146-0.703,0.371-0.949l8.33-9.34
		c0.396-0.43,0.914-0.6,1.445-0.604c0.533,0.004,1.051,0.174,1.447,0.604l8.328,9.34c0.227,0.246,0.375,0.592,0.373,0.949
		c0,0.312-0.111,0.617-0.291,0.852c-0.396,0.506-0.957,0.697-1.527,0.705h-4.334v2.404H28.5c3.305,0,5.984-2.682,5.984-5.986v-1.41
		C34.484,10.75,32.02,8.158,28.902,7.951z"/>
	<path display="inline" d="M6.828,8.234C6.824,8.232,6.816,8.228,6.805,8.222c-0.029-0.01-0.082-0.023-0.137-0.023
		C6.594,8.197,6.527,8.222,6.51,8.234l-7.975,8.939H4.41v8.4c0.053,0.031,0.166,0.074,0.303,0.072h3.91
		c0.102,0,0.189-0.021,0.25-0.047c0.023-0.01,0.039-0.018,0.053-0.025v-8.4h5.875L6.828,8.234z"/>
</g>
<g display="none">
	<g display="inline">
		<path d="M5.195,14.58c-3.141,0-5.697-2.556-5.697-5.695c0-3.142,2.557-5.698,5.697-5.698s5.696,2.557,5.696,5.698
			C10.892,12.024,8.336,14.58,5.195,14.58z M5.195,5.107c-2.083,0-3.776,1.693-3.776,3.777c0,2.081,1.693,3.774,3.776,3.774
			c2.082,0,3.775-1.693,3.775-3.774C8.971,6.8,7.277,5.107,5.195,5.107z"/>
	</g>
	<g display="inline">
		<path d="M12.877,15.94c-0.191,0-0.383-0.056-0.549-0.173l-4.18-2.916c-0.436-0.303-0.542-0.902-0.238-1.337
			c0.303-0.435,0.899-0.542,1.336-0.238l4.182,2.916c0.434,0.304,0.541,0.902,0.237,1.337C13.479,15.796,13.18,15.94,12.877,15.94z"
			/>
	</g>
</g>
</svg>
