<?xml version="1.0" encoding="utf-8"?>
<!-- Generator: Adobe Illustrator 16.0.0, SVG Export Plug-In . SVG Version: 6.00 Build 0)  -->
<!DOCTYPE svg PUBLIC "-//W3C//DTD SVG 1.1//EN" "http://www.w3.org/Graphics/SVG/1.1/DTD/svg11.dtd">
<svg version="1.1" id="Layer_1" xmlns="http://www.w3.org/2000/svg" xmlns:xlink="http://www.w3.org/1999/xlink" x="0px" y="0px"
	 width="9.725px" height="1.523px" viewBox="0 0 9.725 1.523" enable-background="new 0 0 9.725 1.523" xml:space="preserve">
<path display="none" d="M6.154,1.173v0.801c0.145,0.063,0.312,0.138,0.499,0.22c0.188,0.081,0.38,0.167,0.579,0.253
	c0.199,0.088,0.4,0.174,0.604,0.262C8.038,2.794,8.232,2.874,8.414,2.95c0.182,0.074,0.347,0.143,0.492,0.202
	c0.147,0.06,0.266,0.106,0.356,0.138c0.192,0.068,0.349,0.171,0.467,0.312c0.12,0.14,0.212,0.28,0.281,0.428
	c0.081,0.169,0.14,0.347,0.177,0.534v0.869h-10.65V4.563c0.041-0.188,0.102-0.365,0.185-0.534c0.068-0.147,0.161-0.288,0.28-0.428
	C0.121,3.461,0.273,3.358,0.461,3.29c0.096-0.031,0.221-0.079,0.377-0.142c0.156-0.062,0.33-0.133,0.521-0.212
	c0.19-0.078,0.394-0.166,0.605-0.258c0.212-0.09,0.423-0.182,0.633-0.273c0.212-0.092,0.409-0.177,0.596-0.26
	c0.188-0.083,0.354-0.156,0.494-0.219V1.146C3.68,1.108,3.664,1.054,3.643,0.977c-0.021-0.075-0.042-0.15-0.064-0.229
	c-0.027-0.091-0.06-0.189-0.096-0.295C3.35,0.207,3.245-0.072,3.166-0.386C3.09-0.699,3.051-1.031,3.051-1.382
	c0-0.461,0.048-0.853,0.147-1.171c0.099-0.32,0.23-0.58,0.4-0.781c0.169-0.201,0.366-0.348,0.593-0.438
	c0.227-0.092,0.47-0.137,0.729-0.137c0.257,0,0.498,0.043,0.723,0.133c0.227,0.089,0.425,0.232,0.596,0.432
	C6.41-3.146,6.545-2.886,6.644-2.563c0.098,0.321,0.147,0.716,0.147,1.182c0,0.343-0.038,0.667-0.113,0.975
	c-0.076,0.31-0.18,0.587-0.312,0.834C6.329,0.54,6.295,0.648,6.263,0.748c-0.026,0.087-0.052,0.17-0.075,0.249
	C6.164,1.078,6.154,1.136,6.154,1.173z"/>
<polygon display="none" points="8.993,-2.224 4.862,3.747 0.731,-2.224 "/>
<g display="none">
	<path display="inline" d="M1.455-7.86c1.61,1.306,1.887,2.828,2.55,3.419c0.194,0.175,0.246,0.015,0.719,0.015
		c0.387,0,0.474,0.171,0.658,0.019c0.692-0.571,1.081-2.073,2.637-3.369c0.729-0.607,0.115-0.841-0.881-0.93
		C6.418-8.772,5.989-8.023,5.23-8.023c-0.704,0-2.122-0.827-2.815-0.775C1.321-8.716,0.681-8.488,1.455-7.86z"/>
	<path display="inline" d="M4.862-4.017c-3.683,0-6.668,5.898-6.668,9.105c0,3.208,2.985,5.235,6.668,5.235
		c3.684,0,6.668-2.027,6.668-5.235C11.53,1.882,8.546-4.017,4.862-4.017z M5.267,5.958l0.022,0.97
		c0.005,0.15-0.047,0.217-0.188,0.222l-0.473,0.02c-0.14,0.007-0.206-0.058-0.212-0.207L4.394,6.003
		c-1.125-0.082-1.67-0.63-1.688-1.224L2.696,4.511c-0.003-0.131,0.048-0.197,0.178-0.2l0.57-0.02C3.586,4.286,3.63,4.35,3.636,4.479
		l0.007,0.227c0.013,0.389,0.43,0.559,1.119,0.537c0.681-0.021,1.097-0.22,1.084-0.608l-0.01-0.291
		c-0.008-0.26-0.229-0.392-0.589-0.499L3.61,3.335C3.206,3.209,2.749,2.811,2.731,2.271L2.72,1.873
		C2.7,1.289,3.14,0.693,4.216,0.529L4.192-0.439C4.188-0.591,4.25-0.657,4.39-0.662l0.475-0.021c0.141-0.005,0.195,0.058,0.199,0.21
		l0.024,0.968c1.042,0.117,1.52,0.678,1.538,1.25l0.009,0.259C6.64,2.145,6.599,2.2,6.446,2.205L5.886,2.223
		C5.756,2.228,5.7,2.176,5.696,2.034L5.688,1.775C5.674,1.388,5.312,1.215,4.643,1.237C3.985,1.26,3.646,1.453,3.657,1.842
		l0.006,0.184c0.009,0.281,0.275,0.423,0.471,0.482l1.638,0.508c0.6,0.185,0.987,0.519,1.005,1.027l0.02,0.604
		C6.815,5.229,6.309,5.784,5.267,5.958z"/>
</g>
<path display="none" fill-rule="evenodd" clip-rule="evenodd" d="M9.716-7.511H0.008c-1.879,0-3.418,1.539-3.418,3.419v9.707
	c0,1.881,1.539,3.419,3.418,3.419h9.708c1.88,0,3.419-1.538,3.419-3.419v-9.707C13.135-5.972,11.596-7.511,9.716-7.511z
	 M9.955-1.607L3.824,4.523c-0.154,0.154-0.404,0.154-0.558,0L3.143,4.398v0.001L3.01,4.267L2.432,3.688
	c-0.004-0.003-0.006-0.01-0.009-0.013l-2.651-2.671c-0.154-0.154-0.154-0.403,0-0.558l0.836-0.835c0.153-0.155,0.402-0.155,0.557,0
	l2.385,2.401L8.561-3c0.154-0.154,0.404-0.154,0.558,0l0.837,0.837C10.107-2.011,10.107-1.761,9.955-1.607z"/>
<g display="none">
	<path display="inline" fill-rule="evenodd" clip-rule="evenodd" d="M11.776-5.495H9.143V-7.47H7.825v1.975H1.897V-7.47H0.582v1.975
		h-2.635c-0.363,0-0.658,0.296-0.658,0.657v1.318h15.146v-1.318C12.435-5.199,12.141-5.495,11.776-5.495z"/>
	<path display="inline" fill-rule="evenodd" clip-rule="evenodd" d="M-2.711,8.335c0,0.363,0.295,0.658,0.658,0.658h13.829
		c0.364,0,0.658-0.295,0.658-0.658V-2.861H-2.711V8.335z M8.484-1.544h2.635v2.635H8.484V-1.544z M8.484,1.748h2.635v2.635H8.484
		V1.748z M8.484,5.042h2.635v2.634H8.484V5.042z M5.19-1.544h2.635v2.635H5.19V-1.544z M5.19,1.748h2.635v2.635H5.19V1.748z
		 M5.19,5.042h2.635v2.634H5.19V5.042z M1.897-1.544h2.634v2.635H1.897V-1.544z M1.897,1.748h2.634v2.635H1.897V1.748z M1.897,5.042
		h2.634v2.634H1.897V5.042z M-1.395-1.544H1.24v2.635h-2.635V-1.544z M-1.395,1.748H1.24v2.635h-2.635V1.748z M-1.395,5.042H1.24
		v2.634h-2.635V5.042z"/>
</g>
<g display="none">
	<path display="inline" d="M4.047,1.511c0,0,0.027-8.888,0.006-8.888c-4.631,0-8.199,4.037-8.199,8.754S-0.322,9.79,4.395,9.79
		s8.541-3.526,8.541-8.242C12.936,1.508,4.047,1.511,4.047,1.511z"/>
	<path display="inline" d="M13.871,0.197c0-4.517-4.029-8.464-8.546-8.464c0.062,0,0,8.464,0,8.464S13.871,0.223,13.871,0.197z"/>
</g>
<path display="none" fill-rule="evenodd" clip-rule="evenodd" d="M8.353,0.083l5.854-5.67c0.166,0.163,0.271,0.39,0.271,0.641V6.47
	c0,0.237-0.094,0.452-0.244,0.613L8.353,0.083z M-4.453-5.613c0.16-0.145,0.37-0.235,0.603-0.235h17.425
	c0.232,0,0.441,0.091,0.602,0.235L4.862,1.663L-4.453-5.613z M-4.51,7.083C-4.659,6.922-4.752,6.707-4.752,6.47V-4.946
	c0-0.251,0.103-0.478,0.269-0.641l5.854,5.67L-4.51,7.083z M4.862,3.466l2.444-2.367l6.887,6.025
	c-0.162,0.154-0.379,0.248-0.619,0.248H-3.851c-0.241,0-0.456-0.094-0.618-0.248l6.886-6.025L4.862,3.466z"/>
<polygon display="none" points="8.628,-3.226 3.312,2.092 1.097,-0.125 -0.233,1.205 1.981,3.42 1.981,3.42 3.312,4.749 
	9.958,-1.896 "/>
<g display="none">
	<g display="inline">
		<path d="M4.861,5.624c-0.42,0-0.762-0.341-0.762-0.762v-8.201c0-0.421,0.342-0.762,0.762-0.762S5.623-3.76,5.623-3.339v8.201
			C5.623,5.283,5.281,5.624,4.861,5.624z"/>
	</g>
	<g display="inline">
		<path d="M8.963,1.524H0.762C0.341,1.524,0,1.183,0,0.763c0-0.421,0.341-0.762,0.762-0.762h8.201c0.42,0,0.762,0.341,0.762,0.762
			C9.725,1.183,9.383,1.524,8.963,1.524z"/>
	</g>
</g>
<g>
	<g>
		<path d="M8.963,1.523H0.762C0.341,1.523,0,1.183,0,0.762S0.341,0,0.762,0h8.201c0.42,0,0.762,0.341,0.762,0.762
			S9.383,1.523,8.963,1.523z"/>
	</g>
</g>
<g display="none">
	<path display="inline" d="M9.695,2.919L7.538,0.763l2.157-2.158c0.738-0.738,0.738-1.936,0-2.674c-0.74-0.737-1.937-0.739-2.678,0
		L4.862-1.914L2.705-4.07c-0.739-0.739-1.936-0.739-2.674,0c-0.74,0.738-0.74,1.937,0,2.674l2.156,2.158L0.031,2.919
		c-0.74,0.738-0.74,1.938,0,2.676c0.738,0.738,1.935,0.738,2.674,0l2.157-2.156l2.155,2.156c0.741,0.738,1.938,0.738,2.678,0
		C10.434,4.856,10.434,3.657,9.695,2.919z"/>
</g>
<g display="none">
	<path display="inline" d="M11.091-3.104l-1.085-1.084c-0.424-0.425-1.114-0.425-1.538,0L3.044,1.235L1.256-0.55
		c-0.425-0.426-1.113-0.426-1.537,0l-1.086,1.084c-0.425,0.426-0.425,1.113,0,1.537L2.07,5.509c0.024,0.027,0.051,0.049,0.078,0.07
		l0.128,0.133c0.427,0.424,1.115,0.424,1.539,0l7.275-7.275C11.517-1.989,11.517-2.678,11.091-3.104z"/>
</g>
<g display="none">
	<path display="inline" d="M12.107,0.566c-0.001-0.031-0.004-0.063-0.004-0.096l-0.001-0.019l-0.001-0.016
		c0-0.021-0.001-0.041-0.002-0.062c-0.003-0.044-0.006-0.087-0.009-0.131L12.09,0.227l-0.002-0.041
		c-0.004-0.048-0.008-0.094-0.013-0.143c-0.001-0.014-0.003-0.027-0.005-0.041c-0.005-0.052-0.012-0.104-0.019-0.155v-0.004
		l-0.001-0.015c-0.12-0.936-0.42-1.828-0.887-2.649c-0.456-0.802-1.052-1.501-1.771-2.076C9.378-4.909,9.363-4.92,9.347-4.932
		L9.34-4.937L9.338-4.938L9.335-4.939C8.047-5.95,6.502-6.484,4.862-6.484c-1.641,0-3.188,0.534-4.474,1.545L0.386-4.938L0.374-4.93
		C0.359-4.919,0.345-4.908,0.332-4.898c-0.719,0.576-1.315,1.273-1.771,2.075c-0.468,0.82-0.766,1.711-0.887,2.646l-0.002,0.013
		L-2.329-0.15c-0.006,0.049-0.012,0.1-0.017,0.149C-2.348,0.015-2.349,0.03-2.351,0.047c-0.004,0.045-0.009,0.09-0.013,0.138
		c-0.001,0.021-0.003,0.042-0.004,0.062C-2.371,0.289-2.373,0.33-2.376,0.374c-0.001,0.019-0.002,0.039-0.002,0.059l-0.001,0.022
		L-2.38,0.478c-0.001,0.029-0.003,0.06-0.004,0.089c-0.001,0.053-0.001,0.107-0.002,0.162v0.016c0,0.006,0,0.01,0,0.01v0.01
		c0,0,0,0.01,0,0.015c0,0.007,0,0.012,0,0.012c0.001,0.061,0.001,0.113,0.002,0.167C-2.383,0.988-2.381,1.02-2.38,1.051l0.001,0.021
		l0.001,0.027c0,0.017,0.001,0.033,0.002,0.05c0.003,0.044,0.005,0.088,0.01,0.132v0.016l0.003,0.042
		c0.004,0.048,0.009,0.095,0.013,0.142c0.002,0.016,0.003,0.027,0.004,0.042c0.005,0.052,0.012,0.103,0.018,0.155l0.001,0.009
		l0.001,0.01c0.121,0.938,0.419,1.828,0.887,2.649c0.456,0.802,1.052,1.5,1.771,2.077c0.015,0.011,0.031,0.021,0.046,0.032
		L0.383,6.46l0.003,0.001l0.003,0.002c1.286,1.01,2.833,1.544,4.474,1.545c1.64-0.001,3.187-0.535,4.473-1.545l0.003-0.002
		l0.003-0.002L9.35,6.453c0.016-0.012,0.029-0.021,0.042-0.031c0.719-0.575,1.314-1.273,1.771-2.075
		C11.63,3.526,11.93,2.636,12.05,1.7l0.002-0.019l0.001-0.008c0.006-0.05,0.012-0.1,0.017-0.148
		c0.002-0.016,0.005-0.033,0.006-0.049c0.005-0.045,0.009-0.09,0.013-0.137c0.001-0.021,0.002-0.042,0.004-0.063
		c0.002-0.042,0.005-0.084,0.008-0.125c0.001-0.022,0.002-0.043,0.002-0.063l0.001-0.02l0.001-0.021
		c0.002-0.031,0.003-0.061,0.004-0.091c0.001-0.054,0.001-0.107,0.002-0.162c0-0.005,0-0.012,0-0.018V0.764V0.76c0,0,0-0.01,0-0.015
		c0-0.007,0-0.012,0-0.019C12.108,0.674,12.108,0.619,12.107,0.566z M10.292,0.91c-0.001,0.022-0.001,0.045-0.002,0.067v0.01
		c-0.001,0.022-0.002,0.044-0.004,0.066c-0.002,0.032-0.003,0.064-0.007,0.095c0,0.016-0.001,0.031-0.002,0.045
		c-0.004,0.036-0.007,0.072-0.011,0.107l-0.002,0.023v0.005C10.26,1.37,10.255,1.41,10.25,1.45v0.003v0.002
		C10.097,2.651,9.562,3.74,8.703,4.601C7.675,5.626,6.311,6.19,4.862,6.19c-1.449,0-2.814-0.564-3.841-1.59
		c-0.883-0.884-1.438-2.05-1.563-3.282l-0.001-0.002V1.314c-0.004-0.043-0.008-0.086-0.011-0.13l-0.002-0.014V1.165
		c-0.003-0.039-0.005-0.078-0.008-0.118V1.025l-0.001-0.013C-0.565,0.977-0.567,0.94-0.567,0.904
		c-0.001-0.018-0.001-0.036-0.001-0.054V0.833V0.812C-0.57,0.794-0.57,0.777-0.57,0.76c0-0.049,0.002-0.098,0.003-0.146
		c0-0.02,0.001-0.039,0.001-0.059l0.001-0.018c0.001-0.022,0.002-0.046,0.004-0.068c0.001-0.03,0.003-0.063,0.005-0.095
		c0.001-0.015,0.001-0.03,0.003-0.045c0.003-0.036,0.006-0.072,0.011-0.108l0.002-0.027c0.005-0.04,0.01-0.081,0.014-0.121
		l0.002-0.003c0.152-1.198,0.687-2.286,1.547-3.146c1.026-1.026,2.39-1.591,3.841-1.592c1.448,0.001,2.812,0.565,3.841,1.592
		c0.883,0.884,1.438,2.05,1.562,3.283v0.001v0.001c0.005,0.044,0.01,0.087,0.012,0.13l0.001,0.021
		c0.004,0.039,0.006,0.078,0.008,0.118L10.288,0.5l0.001,0.012c0.001,0.035,0.002,0.071,0.003,0.107
		c0.002,0.018,0.002,0.035,0.002,0.054v0.017v0.021c0,0.018,0.001,0.035,0.001,0.053C10.295,0.812,10.294,0.861,10.292,0.91z"/>
	<path display="inline" d="M6.901,0.049H5.66V-2.31c0-0.508-0.413-0.92-0.92-0.92S3.821-2.817,3.821-2.31v3.278
		c0,0.508,0.412,0.922,0.919,0.922h2.161c0.508,0,0.921-0.414,0.921-0.922C7.822,0.463,7.409,0.049,6.901,0.049z"/>
</g>
<g id="_x37_57-paper-airplane_x40_2x.png_12_" display="none">
	<g display="inline">
		<path d="M12.442-6.547c0-0.15-0.121-0.271-0.271-0.271c-0.037,0-0.075,0.008-0.107,0.025L-2.554-0.569
			C-2.65-0.529-2.719-0.433-2.719-0.32c0,0.113,0.068,0.213,0.169,0.252l5.851,2.391l2.392,5.852h0.002
			c0.04,0.101,0.138,0.168,0.25,0.168c0.113,0,0.209-0.067,0.247-0.162l0.003-0.005L12.42-6.44l-0.002-0.002
			C12.433-6.476,12.442-6.51,12.442-6.547z M-1.745-0.325l12.737-5.426l-7.548,7.55L-1.745-0.325z M5.949,7.368L3.825,2.181
			l7.55-7.548L5.949,7.368z"/>
	</g>
</g>
<g id="_x37_08-search_x40_2x.png_16_" display="none">
	<g display="inline">
		<path d="M13.103,8.585L8.413,3.896c1.117-1.217,1.805-2.836,1.805-4.619c0-3.778-3.062-6.84-6.841-6.84s-6.841,3.062-6.841,6.84
			c0,3.779,3.062,6.842,6.841,6.842c1.783,0,3.401-0.688,4.619-1.807l4.689,4.689c0.115,0.115,0.302,0.115,0.417,0
			C13.217,8.886,13.217,8.7,13.103,8.585z M3.377,5.522c-3.449,0-6.246-2.795-6.246-6.246c0-3.45,2.797-6.246,6.246-6.246
			s6.246,2.796,6.246,6.246C9.623,2.728,6.826,5.522,3.377,5.522z"/>
	</g>
</g>
<path display="none" fill-rule="evenodd" clip-rule="evenodd" d="M4.861-12.839c-7.51,0-13.6,6.089-13.6,13.601
	c0,7.511,6.09,13.601,13.6,13.601c7.512,0,13.602-6.09,13.602-13.601C18.463-6.75,12.373-12.839,4.861-12.839z M12.237-2.185
	L3.915,6.138C3.632,6.421,3.241,6.595,2.812,6.595c-0.432,0-0.822-0.174-1.104-0.457l-4.682-4.682
	c-0.283-0.281-0.457-0.672-0.457-1.104c0-0.861,0.699-1.561,1.561-1.561c0.43,0,0.82,0.176,1.104,0.457l3.578,3.578l7.219-7.219
	c0.281-0.281,0.672-0.457,1.104-0.457c0.861,0,1.561,0.699,1.561,1.561C12.694-2.856,12.519-2.468,12.237-2.185z"/>
<g display="none">
	<path display="inline" d="M27.097-0.851c-0.734-2.916-4.383-6.652-8.777-6.652c-0.145,0-0.287,0.004-0.43,0.008
		c-1.979-4.316-7.076-7.826-13.053-7.826c-5.986,0-11.09,4.389-13.061,8.717c-0.283-0.02-0.57-0.029-0.861-0.029
		c-4.422,0-8.088,2.244-8.791,5.184c-2.875,0.439-5.078,3.572-5.078,6.568v1.41c0,3.305,2.682,5.986,5.986,5.986H0.866V10.11h-4.332
		c-0.572-0.008-1.131-0.199-1.527-0.705c-0.18-0.234-0.293-0.539-0.291-0.852c-0.002-0.359,0.146-0.703,0.371-0.949l8.33-9.34
		c0.396-0.43,0.914-0.6,1.445-0.604C5.396-2.335,5.913-2.165,6.31-1.735l8.328,9.34c0.227,0.246,0.375,0.592,0.373,0.949
		c0,0.312-0.111,0.617-0.291,0.852c-0.396,0.506-0.957,0.697-1.527,0.705H8.858v2.404h17.836c3.305,0,5.984-2.682,5.984-5.986v-1.41
		C32.679,1.948,30.214-0.644,27.097-0.851z"/>
	<path display="inline" d="M5.022-0.567C5.019-0.569,5.011-0.573,4.999-0.579C4.97-0.589,4.917-0.603,4.862-0.603
		C4.788-0.604,4.722-0.579,4.704-0.567l-7.975,8.939h5.875v8.4c0.053,0.031,0.166,0.074,0.303,0.072h3.91
		c0.102,0,0.189-0.021,0.25-0.047c0.023-0.01,0.039-0.018,0.053-0.025v-8.4h5.875L5.022-0.567z"/>
</g>
<g display="none">
	<g display="inline">
		<path d="M3.39,5.778c-3.141,0-5.697-2.556-5.697-5.695c0-3.142,2.557-5.698,5.697-5.698s5.696,2.557,5.696,5.698
			C9.086,3.223,6.53,5.778,3.39,5.778z M3.39-3.694c-2.083,0-3.776,1.693-3.776,3.777c0,2.081,1.693,3.774,3.776,3.774
			c2.082,0,3.775-1.693,3.775-3.774C7.165-2.001,5.472-3.694,3.39-3.694z"/>
	</g>
	<g display="inline">
		<path d="M11.071,7.139c-0.191,0-0.383-0.056-0.549-0.173L6.343,4.05C5.907,3.747,5.801,3.147,6.104,2.713
			C6.407,2.278,7.004,2.171,7.44,2.475l4.182,2.916c0.434,0.304,0.541,0.902,0.237,1.337C11.673,6.995,11.374,7.139,11.071,7.139z"
			/>
	</g>
</g>
</svg>
