<?xml version="1.0" encoding="utf-8"?>
<!-- Generator: Adobe Illustrator 16.0.0, SVG Export Plug-In . SVG Version: 6.00 Build 0)  -->
<!DOCTYPE svg PUBLIC "-//W3C//DTD SVG 1.1//EN" "http://www.w3.org/Graphics/SVG/1.1/DTD/svg11.dtd">
<svg version="1.1" id="Layer_1" xmlns="http://www.w3.org/2000/svg" xmlns:xlink="http://www.w3.org/1999/xlink" x="0px" y="0px"
	 width="15.161px" height="15.231px" viewBox="0 0 15.161 15.231" enable-background="new 0 0 15.161 15.231" xml:space="preserve">
<path display="none" d="M8.873,8.062v0.801c0.145,0.063,0.312,0.138,0.499,0.22C9.56,9.164,9.752,9.25,9.951,9.336
	c0.199,0.088,0.4,0.174,0.604,0.262c0.202,0.086,0.396,0.166,0.578,0.242c0.182,0.074,0.347,0.143,0.492,0.202
	c0.147,0.06,0.266,0.106,0.356,0.138c0.192,0.068,0.349,0.171,0.467,0.312c0.12,0.14,0.212,0.28,0.281,0.428
	c0.081,0.169,0.14,0.347,0.177,0.534v0.869H2.256v-0.869c0.041-0.188,0.102-0.365,0.185-0.534c0.068-0.147,0.161-0.288,0.28-0.428
	c0.119-0.141,0.271-0.243,0.459-0.312c0.096-0.031,0.221-0.079,0.377-0.142c0.156-0.062,0.33-0.133,0.521-0.212
	c0.19-0.078,0.394-0.166,0.605-0.258c0.212-0.09,0.423-0.182,0.633-0.273c0.212-0.092,0.409-0.177,0.596-0.26
	c0.188-0.083,0.354-0.156,0.494-0.219V8.035C6.398,7.998,6.383,7.943,6.361,7.866c-0.021-0.075-0.042-0.15-0.064-0.229
	C6.27,7.547,6.237,7.448,6.201,7.343C6.068,7.097,5.964,6.817,5.885,6.504C5.809,6.19,5.77,5.858,5.77,5.508
	c0-0.461,0.048-0.853,0.147-1.171c0.099-0.32,0.23-0.58,0.4-0.781C6.486,3.354,6.684,3.208,6.91,3.117
	C7.137,3.025,7.38,2.98,7.639,2.98c0.257,0,0.498,0.043,0.723,0.133c0.227,0.089,0.425,0.232,0.596,0.432
	c0.172,0.198,0.307,0.459,0.405,0.781C9.46,4.647,9.51,5.042,9.51,5.508c0,0.343-0.038,0.667-0.113,0.975
	c-0.076,0.31-0.18,0.587-0.312,0.834C9.048,7.43,9.014,7.538,8.981,7.638C8.955,7.725,8.93,7.808,8.906,7.887
	C8.883,7.968,8.873,8.025,8.873,8.062z"/>
<polygon display="none" points="11.712,4.666 7.581,10.637 3.45,4.666 "/>
<g display="none">
	<path display="inline" d="M4.174-0.971c1.61,1.306,1.887,2.828,2.55,3.419C6.918,2.623,6.97,2.463,7.442,2.463
		c0.387,0,0.474,0.171,0.658,0.019c0.692-0.571,1.081-2.073,2.637-3.369c0.729-0.607,0.115-0.841-0.881-0.93
		c-0.72-0.065-1.148,0.684-1.907,0.684c-0.704,0-2.122-0.827-2.815-0.775C4.04-1.826,3.399-1.599,4.174-0.971z"/>
	<path display="inline" d="M7.581,2.873c-3.683,0-6.668,5.898-6.668,9.105c0,3.208,2.985,5.235,6.668,5.235
		c3.684,0,6.668-2.027,6.668-5.235C14.249,8.771,11.265,2.873,7.581,2.873z M7.985,12.848l0.022,0.97
		c0.005,0.15-0.047,0.217-0.188,0.222l-0.473,0.02c-0.14,0.007-0.206-0.058-0.212-0.207l-0.023-0.959
		c-1.125-0.082-1.67-0.63-1.688-1.224L5.415,11.4c-0.003-0.131,0.048-0.197,0.178-0.2l0.57-0.02
		c0.142-0.005,0.186,0.059,0.191,0.188l0.007,0.227c0.013,0.389,0.43,0.559,1.119,0.537c0.681-0.021,1.097-0.22,1.084-0.608
		l-0.01-0.291c-0.008-0.26-0.229-0.392-0.589-0.499l-1.637-0.509C5.925,10.099,5.468,9.7,5.45,9.161L5.438,8.763
		c-0.02-0.584,0.42-1.18,1.496-1.344L6.911,6.45C6.906,6.299,6.969,6.232,7.108,6.228l0.475-0.021
		c0.141-0.005,0.195,0.058,0.199,0.21l0.024,0.968c1.042,0.117,1.52,0.678,1.538,1.25l0.009,0.259
		C9.358,9.034,9.317,9.09,9.165,9.095L8.604,9.112c-0.13,0.005-0.186-0.047-0.189-0.188L8.406,8.665
		C8.393,8.277,8.03,8.104,7.361,8.127C6.704,8.149,6.364,8.343,6.376,8.731l0.006,0.184c0.009,0.281,0.275,0.423,0.471,0.482
		L8.49,9.905c0.6,0.185,0.987,0.519,1.005,1.027l0.02,0.604C9.534,12.118,9.027,12.674,7.985,12.848z"/>
</g>
<path display="none" fill-rule="evenodd" clip-rule="evenodd" d="M12.435-0.621H2.727c-1.879,0-3.418,1.539-3.418,3.419v9.707
	c0,1.881,1.539,3.419,3.418,3.419h9.708c1.88,0,3.419-1.538,3.419-3.419V2.798C15.854,0.918,14.314-0.621,12.435-0.621z
	 M12.674,5.282l-6.131,6.131c-0.154,0.154-0.404,0.154-0.558,0l-0.124-0.125v0.001l-0.133-0.133L5.15,10.577
	c-0.004-0.003-0.006-0.01-0.009-0.013L2.49,7.894c-0.154-0.154-0.154-0.403,0-0.558l0.836-0.835c0.153-0.155,0.402-0.155,0.557,0
	l2.385,2.401l5.012-5.013c0.154-0.154,0.404-0.154,0.558,0l0.837,0.837C12.826,4.879,12.826,5.129,12.674,5.282z"/>
<g display="none">
	<path display="inline" fill-rule="evenodd" clip-rule="evenodd" d="M14.495,1.395h-2.634V-0.58h-1.317v1.975H4.616V-0.58H3.301
		v1.975H0.666c-0.363,0-0.658,0.296-0.658,0.657V3.37h15.146V2.052C15.153,1.69,14.859,1.395,14.495,1.395z"/>
	<path display="inline" fill-rule="evenodd" clip-rule="evenodd" d="M0.008,15.225c0,0.363,0.295,0.658,0.658,0.658h13.829
		c0.364,0,0.658-0.295,0.658-0.658V4.028H0.008V15.225z M11.203,5.346h2.635V7.98h-2.635V5.346z M11.203,8.638h2.635v2.635h-2.635
		V8.638z M11.203,11.932h2.635v2.634h-2.635V11.932z M7.909,5.346h2.635V7.98H7.909V5.346z M7.909,8.638h2.635v2.635H7.909V8.638z
		 M7.909,11.932h2.635v2.634H7.909V11.932z M4.616,5.346H7.25V7.98H4.616V5.346z M4.616,8.638H7.25v2.635H4.616V8.638z
		 M4.616,11.932H7.25v2.634H4.616V11.932z M1.324,5.346h2.635V7.98H1.324V5.346z M1.324,8.638h2.635v2.635H1.324V8.638z
		 M1.324,11.932h2.635v2.634H1.324V11.932z"/>
</g>
<g display="none">
	<path display="inline" d="M6.766,8.4c0,0,0.027-8.888,0.006-8.888c-4.631,0-8.199,4.037-8.199,8.754s3.824,8.413,8.541,8.413
		s8.541-3.526,8.541-8.242C15.654,8.397,6.766,8.4,6.766,8.4z"/>
	<path display="inline" d="M16.59,7.087c0-4.517-4.029-8.464-8.546-8.464c0.062,0,0,8.464,0,8.464S16.59,7.112,16.59,7.087z"/>
</g>
<path display="none" fill-rule="evenodd" clip-rule="evenodd" d="M11.071,6.973l5.854-5.67c0.166,0.163,0.271,0.39,0.271,0.641
	v11.416c0,0.237-0.094,0.452-0.244,0.613L11.071,6.973z M-1.734,1.276c0.16-0.145,0.37-0.235,0.603-0.235h17.425
	c0.232,0,0.441,0.091,0.602,0.235L7.581,8.553L-1.734,1.276z M-1.791,13.973c-0.149-0.161-0.242-0.376-0.242-0.613V1.943
	c0-0.251,0.103-0.478,0.269-0.641l5.854,5.67L-1.791,13.973z M7.581,10.355l2.444-2.367l6.887,6.025
	c-0.162,0.154-0.379,0.248-0.619,0.248H-1.132c-0.241,0-0.456-0.094-0.618-0.248l6.886-6.025L7.581,10.355z"/>
<polygon display="none" points="11.347,3.664 6.03,8.981 3.815,6.765 2.485,8.095 4.7,10.31 4.7,10.31 6.03,11.639 12.677,4.993 "/>
<g display="none">
	<g display="inline">
		<path d="M7.58,12.514c-0.42,0-0.762-0.341-0.762-0.762V3.551c0-0.421,0.342-0.762,0.762-0.762S8.342,3.13,8.342,3.551v8.201
			C8.342,12.173,8,12.514,7.58,12.514z"/>
	</g>
	<g display="inline">
		<path d="M11.682,8.414H3.48c-0.421,0-0.762-0.342-0.762-0.762c0-0.421,0.341-0.762,0.762-0.762h8.201
			c0.42,0,0.762,0.341,0.762,0.762C12.443,8.072,12.102,8.414,11.682,8.414z"/>
	</g>
</g>
<g display="none">
	<g display="inline">
		<path d="M11.682,8.413H3.48c-0.421,0-0.762-0.341-0.762-0.762S3.06,6.89,3.48,6.89h8.201c0.42,0,0.762,0.341,0.762,0.762
			S12.102,8.413,11.682,8.413z"/>
	</g>
</g>
<g display="none">
	<path display="inline" d="M12.414,9.809l-2.157-2.156l2.157-2.158c0.738-0.738,0.738-1.936,0-2.674
		c-0.74-0.737-1.937-0.739-2.678,0L7.581,4.976L5.424,2.82c-0.739-0.739-1.936-0.739-2.674,0c-0.74,0.738-0.74,1.937,0,2.674
		l2.156,2.158L2.75,9.809c-0.74,0.738-0.74,1.938,0,2.676c0.738,0.738,1.935,0.738,2.674,0l2.157-2.156l2.155,2.156
		c0.741,0.738,1.938,0.738,2.678,0C13.152,11.746,13.152,10.547,12.414,9.809z"/>
</g>
<g display="none">
	<path display="inline" d="M13.81,3.786l-1.085-1.084c-0.424-0.425-1.114-0.425-1.538,0L5.763,8.125L3.975,6.34
		c-0.425-0.426-1.113-0.426-1.537,0L1.352,7.424c-0.425,0.426-0.425,1.113,0,1.537l3.438,3.438c0.024,0.027,0.051,0.049,0.078,0.07
		l0.128,0.133c0.427,0.424,1.115,0.424,1.539,0l7.275-7.275C14.235,4.901,14.235,4.211,13.81,3.786z"/>
</g>
<g display="none">
	<path display="inline" d="M14.826,7.456c-0.001-0.031-0.004-0.063-0.004-0.096l-0.001-0.019L14.82,7.326
		c0-0.021-0.001-0.041-0.002-0.062c-0.003-0.044-0.006-0.087-0.009-0.131l-0.001-0.017l-0.002-0.041
		c-0.004-0.048-0.008-0.094-0.013-0.143c-0.001-0.014-0.003-0.027-0.005-0.041c-0.005-0.052-0.012-0.104-0.019-0.155V6.732
		L14.77,6.718c-0.12-0.936-0.42-1.828-0.887-2.649c-0.456-0.802-1.052-1.501-1.771-2.076c-0.015-0.012-0.029-0.022-0.046-0.034
		l-0.007-0.005l-0.002-0.001L12.054,1.95c-1.288-1.011-2.833-1.545-4.473-1.545c-1.641,0-3.188,0.534-4.474,1.545L3.104,1.952
		L3.093,1.96C3.078,1.971,3.063,1.981,3.051,1.991C2.332,2.567,1.735,3.265,1.279,4.066c-0.468,0.82-0.766,1.711-0.887,2.646
		L0.391,6.726L0.39,6.739c-0.006,0.049-0.012,0.1-0.017,0.149C0.371,6.904,0.37,6.92,0.368,6.937
		c-0.004,0.045-0.009,0.09-0.013,0.138C0.354,7.095,0.353,7.116,0.352,7.136C0.348,7.179,0.346,7.22,0.343,7.264
		C0.342,7.282,0.341,7.303,0.341,7.322L0.34,7.345L0.339,7.367c-0.001,0.029-0.003,0.06-0.004,0.089
		C0.334,7.509,0.334,7.563,0.333,7.618v0.016c0,0.006,0,0.01,0,0.01v0.01c0,0,0,0.01,0,0.015c0,0.007,0,0.012,0,0.012
		C0.334,7.74,0.334,7.793,0.335,7.847C0.336,7.878,0.338,7.909,0.339,7.94L0.34,7.961l0.001,0.027c0,0.017,0.001,0.033,0.002,0.05
		c0.003,0.044,0.005,0.088,0.01,0.132v0.016l0.003,0.042c0.004,0.048,0.009,0.095,0.013,0.142C0.37,8.385,0.371,8.396,0.372,8.411
		C0.377,8.463,0.384,8.514,0.39,8.566l0.001,0.009l0.001,0.01c0.121,0.938,0.419,1.828,0.887,2.649
		c0.456,0.802,1.052,1.5,1.771,2.077c0.015,0.011,0.031,0.021,0.046,0.032l0.006,0.006l0.003,0.001l0.003,0.002
		c1.286,1.01,2.833,1.544,4.474,1.545c1.64-0.001,3.187-0.535,4.473-1.545l0.003-0.002l0.003-0.002l0.009-0.006
		c0.016-0.012,0.029-0.021,0.042-0.031c0.719-0.575,1.314-1.273,1.771-2.075c0.468-0.82,0.768-1.711,0.888-2.646l0.002-0.019
		l0.001-0.008c0.006-0.05,0.012-0.1,0.017-0.148c0.002-0.016,0.005-0.033,0.006-0.049c0.005-0.045,0.009-0.09,0.013-0.137
		c0.001-0.021,0.002-0.042,0.004-0.063c0.002-0.042,0.005-0.084,0.008-0.125c0.001-0.022,0.002-0.043,0.002-0.063l0.001-0.02
		l0.001-0.021c0.002-0.031,0.003-0.061,0.004-0.091c0.001-0.054,0.001-0.107,0.002-0.162c0-0.005,0-0.012,0-0.018V7.653V7.649
		c0,0,0-0.01,0-0.015c0-0.007,0-0.012,0-0.019C14.827,7.563,14.827,7.509,14.826,7.456z M13.011,7.8
		c-0.001,0.022-0.001,0.045-0.002,0.067v0.01c-0.001,0.022-0.002,0.044-0.004,0.066c-0.002,0.032-0.003,0.064-0.007,0.095
		c0,0.016-0.001,0.031-0.002,0.045c-0.004,0.036-0.007,0.072-0.011,0.107l-0.002,0.023v0.005C12.979,8.26,12.974,8.3,12.969,8.34
		v0.003v0.002c-0.153,1.196-0.688,2.285-1.547,3.146c-1.028,1.025-2.393,1.59-3.841,1.59c-1.449,0-2.814-0.564-3.841-1.59
		c-0.883-0.884-1.438-2.05-1.563-3.282L2.176,8.206V8.204c-0.004-0.043-0.008-0.086-0.011-0.13L2.163,8.061V8.055
		C2.16,8.016,2.158,7.977,2.155,7.937V7.915L2.154,7.902C2.153,7.866,2.151,7.83,2.151,7.794C2.15,7.776,2.15,7.758,2.15,7.74V7.723
		V7.701C2.148,7.684,2.148,7.667,2.148,7.649c0-0.049,0.002-0.098,0.003-0.146c0-0.02,0.001-0.039,0.001-0.059l0.001-0.018
		c0.001-0.022,0.002-0.046,0.004-0.068c0.001-0.03,0.003-0.063,0.005-0.095c0.001-0.015,0.001-0.03,0.003-0.045
		C2.168,7.183,2.171,7.146,2.176,7.11l0.002-0.027c0.005-0.04,0.01-0.081,0.014-0.121l0.002-0.003
		C2.346,5.761,2.88,4.673,3.74,3.812c1.026-1.026,2.39-1.591,3.841-1.592c1.448,0.001,2.812,0.565,3.841,1.592
		c0.883,0.884,1.438,2.05,1.562,3.283v0.001v0.001c0.005,0.044,0.01,0.087,0.012,0.13l0.001,0.021
		c0.004,0.039,0.006,0.078,0.008,0.118l0.002,0.023l0.001,0.012c0.001,0.035,0.002,0.071,0.003,0.107
		c0.002,0.018,0.002,0.035,0.002,0.054v0.017v0.021c0,0.018,0.001,0.035,0.001,0.053C13.014,7.702,13.013,7.751,13.011,7.8z"/>
	<path display="inline" d="M9.62,6.938H8.379V4.58c0-0.508-0.413-0.92-0.92-0.92S6.54,4.072,6.54,4.58v3.278
		c0,0.508,0.412,0.922,0.919,0.922H9.62c0.508,0,0.921-0.414,0.921-0.922C10.541,7.353,10.128,6.938,9.62,6.938z"/>
</g>
<g id="_x37_57-paper-airplane_x40_2x.png_12_">
	<g>
		<path d="M15.161,0.343c0-0.15-0.121-0.271-0.271-0.271c-0.037,0-0.075,0.008-0.107,0.025L0.165,6.32C0.068,6.36,0,6.457,0,6.569
			c0,0.113,0.068,0.213,0.169,0.252L6.02,9.212l2.392,5.852h0.002c0.04,0.101,0.138,0.168,0.25,0.168
			c0.113,0,0.209-0.067,0.247-0.162l0.003-0.005l6.226-14.615l-0.002-0.002C15.151,0.414,15.161,0.38,15.161,0.343z M0.974,6.564
			l12.737-5.426l-7.548,7.55L0.974,6.564z M8.668,14.258L6.544,9.07l7.55-7.548L8.668,14.258z"/>
	</g>
</g>
<g id="_x37_08-search_x40_2x.png_16_" display="none">
	<g display="inline">
		<path d="M15.821,15.475l-4.689-4.689c1.117-1.217,1.805-2.836,1.805-4.619c0-3.778-3.062-6.84-6.841-6.84s-6.841,3.062-6.841,6.84
			c0,3.779,3.062,6.842,6.841,6.842c1.783,0,3.401-0.688,4.619-1.807l4.689,4.689c0.115,0.115,0.302,0.115,0.417,0
			C15.936,15.775,15.936,15.59,15.821,15.475z M6.096,12.412c-3.449,0-6.246-2.795-6.246-6.246c0-3.45,2.797-6.246,6.246-6.246
			s6.246,2.796,6.246,6.246C12.342,9.617,9.545,12.412,6.096,12.412z"/>
	</g>
</g>
<path display="none" fill-rule="evenodd" clip-rule="evenodd" d="M7.58-5.949c-7.51,0-13.6,6.089-13.6,13.601
	c0,7.511,6.09,13.601,13.6,13.601c7.512,0,13.602-6.09,13.602-13.601C21.182,0.14,15.092-5.949,7.58-5.949z M14.956,4.705
	l-8.322,8.322c-0.283,0.283-0.674,0.457-1.104,0.457c-0.432,0-0.822-0.174-1.104-0.457l-4.682-4.682
	c-0.283-0.281-0.457-0.672-0.457-1.104c0-0.861,0.699-1.561,1.561-1.561c0.43,0,0.82,0.176,1.104,0.457L5.53,9.717l7.219-7.219
	c0.281-0.281,0.672-0.457,1.104-0.457c0.861,0,1.561,0.699,1.561,1.561C15.413,4.033,15.237,4.422,14.956,4.705z"/>
<g display="none">
	<path display="inline" d="M29.815,6.039c-0.734-2.916-4.383-6.652-8.777-6.652c-0.145,0-0.287,0.004-0.43,0.008
		C18.63-4.922,13.532-8.432,7.556-8.432c-5.986,0-11.09,4.389-13.061,8.717c-0.283-0.02-0.57-0.029-0.861-0.029
		c-4.422,0-8.088,2.244-8.791,5.184c-2.875,0.439-5.078,3.572-5.078,6.568v1.41c0,3.305,2.682,5.986,5.986,5.986H3.585V17h-4.332
		c-0.572-0.008-1.131-0.199-1.527-0.705c-0.18-0.234-0.293-0.539-0.291-0.852c-0.002-0.359,0.146-0.703,0.371-0.949l8.33-9.34
		c0.396-0.43,0.914-0.6,1.445-0.604c0.533,0.004,1.051,0.174,1.447,0.604l8.328,9.34c0.227,0.246,0.375,0.592,0.373,0.949
		c0,0.312-0.111,0.617-0.291,0.852c-0.396,0.506-0.957,0.697-1.527,0.705h-4.334v2.404h17.836c3.305,0,5.984-2.682,5.984-5.986
		v-1.41C35.397,8.838,32.933,6.246,29.815,6.039z"/>
	<path display="inline" d="M7.741,6.322C7.737,6.32,7.729,6.316,7.718,6.311c-0.029-0.01-0.082-0.023-0.137-0.023
		C7.507,6.285,7.44,6.311,7.423,6.322l-7.975,8.939h5.875v8.4c0.053,0.031,0.166,0.074,0.303,0.072h3.91
		c0.102,0,0.189-0.021,0.25-0.047c0.023-0.01,0.039-0.018,0.053-0.025v-8.4h5.875L7.741,6.322z"/>
</g>
<g display="none">
	<g display="inline">
		<path d="M6.108,12.668c-3.141,0-5.697-2.556-5.697-5.695c0-3.142,2.557-5.698,5.697-5.698s5.696,2.557,5.696,5.698
			C11.805,10.112,9.249,12.668,6.108,12.668z M6.108,3.195c-2.083,0-3.776,1.693-3.776,3.777c0,2.081,1.693,3.774,3.776,3.774
			c2.082,0,3.775-1.693,3.775-3.774C9.884,4.889,8.19,3.195,6.108,3.195z"/>
	</g>
	<g display="inline">
		<path d="M13.79,14.028c-0.191,0-0.383-0.056-0.549-0.173l-4.18-2.916c-0.436-0.303-0.542-0.902-0.238-1.337
			c0.303-0.435,0.899-0.542,1.336-0.238l4.182,2.916c0.434,0.304,0.541,0.902,0.237,1.337C14.392,13.885,14.093,14.028,13.79,14.028
			z"/>
	</g>
</g>
</svg>
