<?xml version="1.0" encoding="utf-8"?>
<!-- Generator: Adobe Illustrator 16.0.0, SVG Export Plug-In . SVG Version: 6.00 Build 0)  -->
<!DOCTYPE svg PUBLIC "-//W3C//DTD SVG 1.1//EN" "http://www.w3.org/Graphics/SVG/1.1/DTD/svg11.dtd">
<svg version="1.1" id="Layer_1" xmlns="http://www.w3.org/2000/svg" xmlns:xlink="http://www.w3.org/1999/xlink" x="0px" y="0px"
	 width="9.725px" height="9.725px" viewBox="0 0 9.725 9.725" enable-background="new 0 0 9.725 9.725" xml:space="preserve">
<path display="none" d="M6.154,5.273v0.801c0.145,0.063,0.312,0.138,0.499,0.22c0.188,0.081,0.38,0.167,0.579,0.253
	c0.199,0.088,0.4,0.174,0.604,0.262c0.202,0.086,0.396,0.166,0.578,0.242c0.182,0.074,0.347,0.143,0.492,0.202
	c0.147,0.06,0.266,0.106,0.356,0.138c0.192,0.068,0.349,0.171,0.467,0.312c0.12,0.14,0.212,0.28,0.281,0.428
	c0.081,0.169,0.14,0.347,0.177,0.534v0.869h-10.65V8.664c0.041-0.188,0.102-0.365,0.185-0.534c0.068-0.147,0.161-0.288,0.28-0.428
	c0.119-0.141,0.271-0.243,0.459-0.312c0.096-0.031,0.221-0.079,0.377-0.142c0.156-0.062,0.33-0.133,0.521-0.212
	c0.19-0.078,0.394-0.166,0.605-0.258c0.212-0.09,0.423-0.182,0.633-0.273c0.212-0.092,0.409-0.177,0.596-0.26
	C3.382,6.163,3.547,6.09,3.688,6.027V5.246C3.68,5.209,3.664,5.154,3.643,5.077c-0.021-0.075-0.042-0.15-0.064-0.229
	c-0.027-0.091-0.06-0.189-0.096-0.295C3.35,4.308,3.245,4.028,3.166,3.715C3.09,3.401,3.051,3.069,3.051,2.719
	c0-0.461,0.048-0.853,0.147-1.171c0.099-0.32,0.23-0.58,0.4-0.781c0.169-0.201,0.366-0.348,0.593-0.438
	c0.227-0.092,0.47-0.137,0.729-0.137c0.257,0,0.498,0.043,0.723,0.133c0.227,0.089,0.425,0.232,0.596,0.432
	C6.41,0.954,6.545,1.215,6.644,1.537c0.098,0.321,0.147,0.716,0.147,1.182c0,0.343-0.038,0.667-0.113,0.975
	c-0.076,0.31-0.18,0.587-0.312,0.834C6.329,4.641,6.295,4.749,6.263,4.849c-0.026,0.087-0.052,0.17-0.075,0.249
	C6.164,5.179,6.154,5.236,6.154,5.273z"/>
<polygon display="none" points="8.993,1.877 4.862,7.848 0.731,1.877 "/>
<g display="none">
	<path display="inline" d="M1.455-3.76c1.61,1.306,1.887,2.828,2.55,3.419c0.194,0.175,0.246,0.015,0.719,0.015
		c0.387,0,0.474,0.171,0.658,0.019c0.692-0.571,1.081-2.073,2.637-3.369c0.729-0.607,0.115-0.841-0.881-0.93
		C6.418-4.672,5.989-3.923,5.23-3.923c-0.704,0-2.122-0.827-2.815-0.775C1.321-4.615,0.681-4.388,1.455-3.76z"/>
	<path display="inline" d="M4.862,0.084c-3.683,0-6.668,5.898-6.668,9.105c0,3.208,2.985,5.235,6.668,5.235
		c3.684,0,6.668-2.027,6.668-5.235C11.53,5.982,8.546,0.084,4.862,0.084z M5.267,10.059l0.022,0.97
		c0.005,0.15-0.047,0.217-0.188,0.222l-0.473,0.02c-0.14,0.007-0.206-0.058-0.212-0.207l-0.023-0.959
		c-1.125-0.082-1.67-0.63-1.688-1.224L2.696,8.611c-0.003-0.131,0.048-0.197,0.178-0.2l0.57-0.02C3.586,8.387,3.63,8.45,3.636,8.579
		l0.007,0.227c0.013,0.389,0.43,0.559,1.119,0.537c0.681-0.021,1.097-0.22,1.084-0.608l-0.01-0.291
		c-0.008-0.26-0.229-0.392-0.589-0.499L3.61,7.436C3.206,7.31,2.749,6.911,2.731,6.372L2.72,5.974C2.7,5.39,3.14,4.794,4.216,4.63
		L4.192,3.661C4.188,3.51,4.25,3.443,4.39,3.438l0.475-0.021c0.141-0.005,0.195,0.058,0.199,0.21l0.024,0.968
		c1.042,0.117,1.52,0.678,1.538,1.25l0.009,0.259C6.64,6.245,6.599,6.301,6.446,6.306L5.886,6.323
		C5.756,6.328,5.7,6.276,5.696,6.135L5.688,5.876C5.674,5.488,5.312,5.315,4.643,5.338C3.985,5.36,3.646,5.554,3.657,5.942
		l0.006,0.184c0.009,0.281,0.275,0.423,0.471,0.482l1.638,0.508c0.6,0.185,0.987,0.519,1.005,1.027l0.02,0.604
		C6.815,9.329,6.309,9.885,5.267,10.059z"/>
</g>
<path display="none" fill-rule="evenodd" clip-rule="evenodd" d="M9.716-3.41H0.008c-1.879,0-3.418,1.539-3.418,3.419v9.707
	c0,1.881,1.539,3.419,3.418,3.419h9.708c1.88,0,3.419-1.538,3.419-3.419V0.009C13.135-1.871,11.596-3.41,9.716-3.41z M9.955,2.493
	L3.824,8.624c-0.154,0.154-0.404,0.154-0.558,0L3.143,8.499V8.5L3.01,8.367L2.432,7.788c-0.004-0.003-0.006-0.01-0.009-0.013
	l-2.651-2.671c-0.154-0.154-0.154-0.403,0-0.558l0.836-0.835c0.153-0.155,0.402-0.155,0.557,0l2.385,2.401l5.012-5.013
	c0.154-0.154,0.404-0.154,0.558,0l0.837,0.837C10.107,2.09,10.107,2.34,9.955,2.493z"/>
<g display="none">
	<path display="inline" fill-rule="evenodd" clip-rule="evenodd" d="M11.776-1.395H9.143v-1.975H7.825v1.975H1.897v-1.975H0.582
		v1.975h-2.635c-0.363,0-0.658,0.296-0.658,0.657v1.318h15.146v-1.318C12.435-1.099,12.141-1.395,11.776-1.395z"/>
	<path display="inline" fill-rule="evenodd" clip-rule="evenodd" d="M-2.711,12.436c0,0.363,0.295,0.658,0.658,0.658h13.829
		c0.364,0,0.658-0.295,0.658-0.658V1.239H-2.711V12.436z M8.484,2.557h2.635v2.635H8.484V2.557z M8.484,5.849h2.635v2.635H8.484
		V5.849z M8.484,9.143h2.635v2.634H8.484V9.143z M5.19,2.557h2.635v2.635H5.19V2.557z M5.19,5.849h2.635v2.635H5.19V5.849z
		 M5.19,9.143h2.635v2.634H5.19V9.143z M1.897,2.557h2.634v2.635H1.897V2.557z M1.897,5.849h2.634v2.635H1.897V5.849z M1.897,9.143
		h2.634v2.634H1.897V9.143z M-1.395,2.557H1.24v2.635h-2.635V2.557z M-1.395,5.849H1.24v2.635h-2.635V5.849z M-1.395,9.143H1.24
		v2.634h-2.635V9.143z"/>
</g>
<g display="none">
	<path display="inline" d="M4.047,5.611c0,0,0.027-8.888,0.006-8.888c-4.631,0-8.199,4.037-8.199,8.754s3.824,8.413,8.541,8.413
		s8.541-3.526,8.541-8.242C12.936,5.608,4.047,5.611,4.047,5.611z"/>
	<path display="inline" d="M13.871,4.298c0-4.517-4.029-8.464-8.546-8.464c0.062,0,0,8.464,0,8.464S13.871,4.323,13.871,4.298z"/>
</g>
<path display="none" fill-rule="evenodd" clip-rule="evenodd" d="M8.353,4.184l5.854-5.67c0.166,0.163,0.271,0.39,0.271,0.641V10.57
	c0,0.237-0.094,0.452-0.244,0.613L8.353,4.184z M-4.453-1.513c0.16-0.145,0.37-0.235,0.603-0.235h17.425
	c0.232,0,0.441,0.091,0.602,0.235L4.862,5.764L-4.453-1.513z M-4.51,11.184c-0.149-0.161-0.242-0.376-0.242-0.613V-0.846
	c0-0.251,0.103-0.478,0.269-0.641l5.854,5.67L-4.51,11.184z M4.862,7.566l2.444-2.367l6.887,6.025
	c-0.162,0.154-0.379,0.248-0.619,0.248H-3.851c-0.241,0-0.456-0.094-0.618-0.248l6.886-6.025L4.862,7.566z"/>
<polygon display="none" points="8.628,0.875 3.312,6.192 1.097,3.976 -0.233,5.306 1.981,7.521 1.981,7.521 3.312,8.85 9.958,2.204 
	"/>
<g>
	<g>
		<path d="M4.861,9.725c-0.42,0-0.762-0.341-0.762-0.762V0.762C4.1,0.341,4.441,0,4.861,0s0.762,0.341,0.762,0.762v8.201
			C5.623,9.384,5.281,9.725,4.861,9.725z"/>
	</g>
	<g>
		<path d="M8.963,5.625H0.762C0.341,5.625,0,5.283,0,4.863c0-0.421,0.341-0.762,0.762-0.762h8.201c0.42,0,0.762,0.341,0.762,0.762
			C9.725,5.283,9.383,5.625,8.963,5.625z"/>
	</g>
</g>
<g display="none">
	<g display="inline">
		<path d="M8.963,5.624H0.762C0.341,5.624,0,5.283,0,4.862s0.341-0.762,0.762-0.762h8.201c0.42,0,0.762,0.341,0.762,0.762
			S9.383,5.624,8.963,5.624z"/>
	</g>
</g>
<g display="none">
	<path display="inline" d="M9.695,7.02L7.538,4.863l2.157-2.158c0.738-0.738,0.738-1.936,0-2.674c-0.74-0.737-1.937-0.739-2.678,0
		L4.862,2.187L2.705,0.031c-0.739-0.739-1.936-0.739-2.674,0c-0.74,0.738-0.74,1.937,0,2.674l2.156,2.158L0.031,7.02
		c-0.74,0.738-0.74,1.938,0,2.676c0.738,0.738,1.935,0.738,2.674,0l2.157-2.156l2.155,2.156c0.741,0.738,1.938,0.738,2.678,0
		C10.434,8.957,10.434,7.758,9.695,7.02z"/>
</g>
<g display="none">
	<path display="inline" d="M11.091,0.997l-1.085-1.084c-0.424-0.425-1.114-0.425-1.538,0L3.044,5.336L1.256,3.551
		c-0.425-0.426-1.113-0.426-1.537,0l-1.086,1.084c-0.425,0.426-0.425,1.113,0,1.537L2.07,9.609c0.024,0.027,0.051,0.049,0.078,0.07
		l0.128,0.133c0.427,0.424,1.115,0.424,1.539,0l7.275-7.275C11.517,2.112,11.517,1.422,11.091,0.997z"/>
</g>
<g display="none">
	<path display="inline" d="M12.107,4.667c-0.001-0.031-0.004-0.063-0.004-0.096l-0.001-0.019l-0.001-0.016
		c0-0.021-0.001-0.041-0.002-0.062c-0.003-0.044-0.006-0.087-0.009-0.131L12.09,4.327l-0.002-0.041
		c-0.004-0.048-0.008-0.094-0.013-0.143c-0.001-0.014-0.003-0.027-0.005-0.041c-0.005-0.052-0.012-0.104-0.019-0.155V3.943
		l-0.001-0.015c-0.12-0.936-0.42-1.828-0.887-2.649c-0.456-0.802-1.052-1.501-1.771-2.076C9.378-0.809,9.363-0.819,9.347-0.831
		L9.34-0.836L9.338-0.837L9.335-0.839C8.047-1.85,6.502-2.384,4.862-2.384c-1.641,0-3.188,0.534-4.474,1.545L0.386-0.837
		L0.374-0.829C0.359-0.818,0.345-0.808,0.332-0.798c-0.719,0.576-1.315,1.273-1.771,2.075c-0.468,0.82-0.766,1.711-0.887,2.646
		l-0.002,0.013L-2.329,3.95C-2.335,3.999-2.341,4.05-2.346,4.1c-0.002,0.016-0.003,0.031-0.005,0.048
		c-0.004,0.045-0.009,0.09-0.013,0.138c-0.001,0.021-0.003,0.042-0.004,0.062C-2.371,4.39-2.373,4.431-2.376,4.475
		c-0.001,0.019-0.002,0.039-0.002,0.059l-0.001,0.022L-2.38,4.578c-0.001,0.029-0.003,0.06-0.004,0.089
		C-2.385,4.72-2.385,4.774-2.386,4.829v0.016c0,0.006,0,0.01,0,0.01v0.01c0,0,0,0.01,0,0.015c0,0.007,0,0.012,0,0.012
		c0.001,0.061,0.001,0.113,0.002,0.167C-2.383,5.089-2.381,5.12-2.38,5.151l0.001,0.021l0.001,0.027c0,0.017,0.001,0.033,0.002,0.05
		c0.003,0.044,0.005,0.088,0.01,0.132v0.016l0.003,0.042c0.004,0.048,0.009,0.095,0.013,0.142c0.002,0.016,0.003,0.027,0.004,0.042
		c0.005,0.052,0.012,0.103,0.018,0.155l0.001,0.009l0.001,0.01c0.121,0.938,0.419,1.828,0.887,2.649
		c0.456,0.802,1.052,1.5,1.771,2.077c0.015,0.011,0.031,0.021,0.046,0.032l0.006,0.006l0.003,0.001l0.003,0.002
		c1.286,1.01,2.833,1.544,4.474,1.545c1.64-0.001,3.187-0.535,4.473-1.545l0.003-0.002l0.003-0.002l0.009-0.006
		c0.016-0.012,0.029-0.021,0.042-0.031c0.719-0.575,1.314-1.273,1.771-2.075c0.468-0.82,0.768-1.711,0.888-2.646l0.002-0.019
		l0.001-0.008c0.006-0.05,0.012-0.1,0.017-0.148c0.002-0.016,0.005-0.033,0.006-0.049c0.005-0.045,0.009-0.09,0.013-0.137
		c0.001-0.021,0.002-0.042,0.004-0.063c0.002-0.042,0.005-0.084,0.008-0.125c0.001-0.022,0.002-0.043,0.002-0.063l0.001-0.02
		l0.001-0.021c0.002-0.031,0.003-0.061,0.004-0.091c0.001-0.054,0.001-0.107,0.002-0.162c0-0.005,0-0.012,0-0.018V4.864V4.86
		c0,0,0-0.01,0-0.015c0-0.007,0-0.012,0-0.019C12.108,4.774,12.108,4.72,12.107,4.667z M10.292,5.011
		c-0.001,0.022-0.001,0.045-0.002,0.067v0.01c-0.001,0.022-0.002,0.044-0.004,0.066c-0.002,0.032-0.003,0.064-0.007,0.095
		c0,0.016-0.001,0.031-0.002,0.045c-0.004,0.036-0.007,0.072-0.011,0.107l-0.002,0.023V5.43c-0.005,0.041-0.01,0.081-0.015,0.121
		v0.003v0.002c-0.153,1.196-0.688,2.285-1.547,3.146c-1.028,1.025-2.393,1.59-3.841,1.59c-1.449,0-2.814-0.564-3.841-1.59
		c-0.883-0.884-1.438-2.05-1.563-3.282l-0.001-0.002V5.415c-0.004-0.043-0.008-0.086-0.011-0.13l-0.002-0.014V5.266
		c-0.003-0.039-0.005-0.078-0.008-0.118V5.126l-0.001-0.013c-0.001-0.036-0.003-0.072-0.003-0.108
		c-0.001-0.018-0.001-0.036-0.001-0.054V4.934V4.912C-0.57,4.895-0.57,4.878-0.57,4.86c0-0.049,0.002-0.098,0.003-0.146
		c0-0.02,0.001-0.039,0.001-0.059l0.001-0.018c0.001-0.022,0.002-0.046,0.004-0.068c0.001-0.03,0.003-0.063,0.005-0.095
		c0.001-0.015,0.001-0.03,0.003-0.045c0.003-0.036,0.006-0.072,0.011-0.108l0.002-0.027c0.005-0.04,0.01-0.081,0.014-0.121
		l0.002-0.003c0.152-1.198,0.687-2.286,1.547-3.146c1.026-1.026,2.39-1.591,3.841-1.592c1.448,0.001,2.812,0.565,3.841,1.592
		c0.883,0.884,1.438,2.05,1.562,3.283v0.001v0.001c0.005,0.044,0.01,0.087,0.012,0.13l0.001,0.021
		c0.004,0.039,0.006,0.078,0.008,0.118l0.002,0.023l0.001,0.012c0.001,0.035,0.002,0.071,0.003,0.107
		c0.002,0.018,0.002,0.035,0.002,0.054V4.79v0.021c0,0.018,0.001,0.035,0.001,0.053C10.295,4.913,10.294,4.962,10.292,5.011z"/>
	<path display="inline" d="M6.901,4.149H5.66V1.791c0-0.508-0.413-0.92-0.92-0.92s-0.919,0.412-0.919,0.92v3.278
		c0,0.508,0.412,0.922,0.919,0.922h2.161c0.508,0,0.921-0.414,0.921-0.922C7.822,4.563,7.409,4.149,6.901,4.149z"/>
</g>
<g id="_x37_57-paper-airplane_x40_2x.png_12_" display="none">
	<g display="inline">
		<path d="M12.442-2.446c0-0.15-0.121-0.271-0.271-0.271c-0.037,0-0.075,0.008-0.107,0.025L-2.554,3.531
			C-2.65,3.571-2.719,3.668-2.719,3.78c0,0.113,0.068,0.213,0.169,0.252l5.851,2.391l2.392,5.852h0.002
			c0.04,0.101,0.138,0.168,0.25,0.168c0.113,0,0.209-0.067,0.247-0.162l0.003-0.005L12.42-2.34l-0.002-0.002
			C12.433-2.375,12.442-2.409,12.442-2.446z M-1.745,3.775L10.992-1.65l-7.548,7.55L-1.745,3.775z M5.949,11.469L3.825,6.281
			l7.55-7.548L5.949,11.469z"/>
	</g>
</g>
<g id="_x37_08-search_x40_2x.png_16_" display="none">
	<g display="inline">
		<path d="M13.103,12.686L8.413,7.996c1.117-1.217,1.805-2.836,1.805-4.619c0-3.778-3.062-6.84-6.841-6.84s-6.841,3.062-6.841,6.84
			c0,3.779,3.062,6.842,6.841,6.842c1.783,0,3.401-0.688,4.619-1.807l4.689,4.689c0.115,0.115,0.302,0.115,0.417,0
			C13.217,12.986,13.217,12.801,13.103,12.686z M3.377,9.623c-3.449,0-6.246-2.795-6.246-6.246c0-3.45,2.797-6.246,6.246-6.246
			s6.246,2.796,6.246,6.246C9.623,6.828,6.826,9.623,3.377,9.623z"/>
	</g>
</g>
<path display="none" fill-rule="evenodd" clip-rule="evenodd" d="M4.861-8.738c-7.51,0-13.6,6.089-13.6,13.601
	c0,7.511,6.09,13.601,13.6,13.601c7.512,0,13.602-6.09,13.602-13.601C18.463-2.649,12.373-8.738,4.861-8.738z M12.237,1.916
	l-8.322,8.322c-0.283,0.283-0.674,0.457-1.104,0.457c-0.432,0-0.822-0.174-1.104-0.457l-4.682-4.682
	c-0.283-0.281-0.457-0.672-0.457-1.104c0-0.861,0.699-1.561,1.561-1.561c0.43,0,0.82,0.176,1.104,0.457l3.578,3.578l7.219-7.219
	c0.281-0.281,0.672-0.457,1.104-0.457c0.861,0,1.561,0.699,1.561,1.561C12.694,1.244,12.519,1.633,12.237,1.916z"/>
<g display="none">
	<path display="inline" d="M27.097,3.25c-0.734-2.916-4.383-6.652-8.777-6.652c-0.145,0-0.287,0.004-0.43,0.008
		c-1.979-4.316-7.076-7.826-13.053-7.826c-5.986,0-11.09,4.389-13.061,8.717c-0.283-0.02-0.57-0.029-0.861-0.029
		c-4.422,0-8.088,2.244-8.791,5.184c-2.875,0.439-5.078,3.572-5.078,6.568v1.41c0,3.305,2.682,5.986,5.986,5.986H0.866v-2.404
		h-4.332c-0.572-0.008-1.131-0.199-1.527-0.705c-0.18-0.234-0.293-0.539-0.291-0.852c-0.002-0.359,0.146-0.703,0.371-0.949
		l8.33-9.34c0.396-0.43,0.914-0.6,1.445-0.604C5.396,1.766,5.913,1.936,6.31,2.365l8.328,9.34c0.227,0.246,0.375,0.592,0.373,0.949
		c0,0.312-0.111,0.617-0.291,0.852c-0.396,0.506-0.957,0.697-1.527,0.705H8.858v2.404h17.836c3.305,0,5.984-2.682,5.984-5.986v-1.41
		C32.679,6.049,30.214,3.457,27.097,3.25z"/>
	<path display="inline" d="M5.022,3.533C5.019,3.531,5.011,3.527,4.999,3.521C4.97,3.512,4.917,3.498,4.862,3.498
		C4.788,3.496,4.722,3.521,4.704,3.533l-7.975,8.939h5.875v8.4c0.053,0.031,0.166,0.074,0.303,0.072h3.91
		c0.102,0,0.189-0.021,0.25-0.047c0.023-0.01,0.039-0.018,0.053-0.025v-8.4h5.875L5.022,3.533z"/>
</g>
<g display="none">
	<g display="inline">
		<path d="M3.39,9.879c-3.141,0-5.697-2.556-5.697-5.695c0-3.142,2.557-5.698,5.697-5.698s5.696,2.557,5.696,5.698
			C9.086,7.323,6.53,9.879,3.39,9.879z M3.39,0.406c-2.083,0-3.776,1.693-3.776,3.777c0,2.081,1.693,3.774,3.776,3.774
			c2.082,0,3.775-1.693,3.775-3.774C7.165,2.1,5.472,0.406,3.39,0.406z"/>
	</g>
	<g display="inline">
		<path d="M11.071,11.239c-0.191,0-0.383-0.056-0.549-0.173L6.343,8.15C5.907,7.848,5.801,7.248,6.104,6.813
			C6.407,6.379,7.004,6.271,7.44,6.575l4.182,2.916c0.434,0.304,0.541,0.902,0.237,1.337C11.673,11.096,11.374,11.239,11.071,11.239
			z"/>
	</g>
</g>
</svg>
