<?xml version="1.0" encoding="utf-8"?>
<!-- Generator: Adobe Illustrator 16.0.0, SVG Export Plug-In . SVG Version: 6.00 Build 0)  -->
<!DOCTYPE svg PUBLIC "-//W3C//DTD SVG 1.1//EN" "http://www.w3.org/Graphics/SVG/1.1/DTD/svg11.dtd">
<svg version="1.1" id="Layer_1" xmlns="http://www.w3.org/2000/svg" xmlns:xlink="http://www.w3.org/1999/xlink" x="0px" y="0px"
	 width="10.65px" height="9.342px" viewBox="0 0 10.65 9.342" enable-background="new 0 0 10.65 9.342" xml:space="preserve">
<path d="M6.617,5.082v0.801c0.145,0.063,0.312,0.138,0.499,0.22c0.188,0.081,0.38,0.167,0.579,0.253
	c0.199,0.088,0.4,0.174,0.604,0.262c0.202,0.086,0.396,0.166,0.578,0.242c0.182,0.074,0.347,0.143,0.492,0.202
	c0.147,0.06,0.266,0.106,0.356,0.138c0.192,0.068,0.349,0.171,0.467,0.312c0.12,0.14,0.212,0.28,0.281,0.428
	c0.081,0.169,0.14,0.347,0.177,0.534v0.869H0V8.473c0.041-0.188,0.102-0.365,0.185-0.534c0.068-0.147,0.161-0.288,0.28-0.428
	C0.584,7.37,0.736,7.268,0.924,7.199C1.02,7.168,1.145,7.12,1.301,7.058c0.156-0.062,0.33-0.133,0.521-0.212
	c0.19-0.078,0.394-0.166,0.605-0.258c0.212-0.09,0.423-0.182,0.633-0.273c0.212-0.092,0.409-0.177,0.596-0.26
	C3.845,5.972,4.01,5.898,4.15,5.836V5.055C4.143,5.018,4.127,4.963,4.105,4.886c-0.021-0.075-0.042-0.15-0.064-0.229
	c-0.027-0.091-0.06-0.189-0.096-0.295C3.812,4.116,3.708,3.837,3.629,3.523C3.553,3.21,3.514,2.878,3.514,2.527
	c0-0.461,0.048-0.853,0.147-1.171c0.099-0.32,0.23-0.58,0.4-0.781C4.23,0.374,4.428,0.228,4.654,0.137C4.881,0.045,5.124,0,5.383,0
	C5.64,0,5.881,0.043,6.105,0.133C6.332,0.222,6.53,0.365,6.701,0.564c0.172,0.198,0.307,0.459,0.405,0.781
	c0.098,0.321,0.147,0.716,0.147,1.182c0,0.343-0.038,0.667-0.113,0.975c-0.076,0.31-0.18,0.587-0.312,0.834
	C6.792,4.449,6.758,4.558,6.726,4.657C6.699,4.744,6.674,4.827,6.65,4.906C6.627,4.987,6.617,5.045,6.617,5.082z"/>
<polygon display="none" points="9.456,1.686 5.325,7.656 1.194,1.686 "/>
<g display="none">
	<path display="inline" d="M1.918-3.951c1.61,1.306,1.887,2.828,2.55,3.419c0.194,0.175,0.246,0.015,0.719,0.015
		c0.387,0,0.474,0.171,0.658,0.019C6.537-1.07,6.926-2.572,8.481-3.868c0.729-0.607,0.115-0.841-0.881-0.93
		c-0.72-0.065-1.148,0.684-1.907,0.684c-0.704,0-2.122-0.827-2.815-0.775C1.784-4.807,1.144-4.579,1.918-3.951z"/>
	<path display="inline" d="M5.325-0.107c-3.683,0-6.668,5.898-6.668,9.105c0,3.208,2.985,5.235,6.668,5.235
		c3.684,0,6.668-2.027,6.668-5.235C11.993,5.791,9.009-0.107,5.325-0.107z M5.729,9.867l0.022,0.97
		c0.005,0.15-0.047,0.217-0.188,0.222l-0.473,0.02c-0.14,0.007-0.206-0.058-0.212-0.207L4.856,9.912
		c-1.125-0.082-1.67-0.63-1.688-1.224L3.159,8.42c-0.003-0.131,0.048-0.197,0.178-0.2l0.57-0.02
		c0.142-0.005,0.186,0.059,0.191,0.188l0.007,0.227c0.013,0.389,0.43,0.559,1.119,0.537c0.681-0.021,1.097-0.22,1.084-0.608
		l-0.01-0.291C6.291,7.992,6.069,7.86,5.71,7.753L4.073,7.244C3.669,7.118,3.212,6.72,3.194,6.181L3.183,5.782
		c-0.02-0.584,0.42-1.18,1.496-1.344L4.655,3.47C4.65,3.318,4.713,3.252,4.853,3.247l0.475-0.021
		c0.141-0.005,0.195,0.058,0.199,0.21l0.024,0.968c1.042,0.117,1.52,0.678,1.538,1.25l0.009,0.259
		c0.005,0.141-0.036,0.196-0.188,0.201L6.349,6.132c-0.13,0.005-0.186-0.047-0.189-0.188L6.15,5.685
		C6.137,5.297,5.774,5.124,5.105,5.146C4.448,5.169,4.108,5.362,4.12,5.751l0.006,0.184c0.009,0.281,0.275,0.423,0.471,0.482
		l1.638,0.508c0.6,0.185,0.987,0.519,1.005,1.027l0.02,0.604C7.278,9.138,6.771,9.693,5.729,9.867z"/>
</g>
<path display="none" fill-rule="evenodd" clip-rule="evenodd" d="M10.179-3.602H0.471c-1.879,0-3.418,1.539-3.418,3.419v9.707
	c0,1.881,1.539,3.419,3.418,3.419h9.708c1.88,0,3.419-1.538,3.419-3.419v-9.707C13.598-2.062,12.059-3.602,10.179-3.602z
	 M10.418,2.302L4.287,8.433c-0.154,0.154-0.404,0.154-0.558,0L3.605,8.308v0.001L3.473,8.176L2.895,7.597
	c-0.004-0.003-0.006-0.01-0.009-0.013L0.234,4.913c-0.154-0.154-0.154-0.403,0-0.558L1.07,3.521c0.153-0.155,0.402-0.155,0.557,0
	l2.385,2.401l5.012-5.013c0.154-0.154,0.404-0.154,0.558,0l0.837,0.837C10.57,1.898,10.57,2.148,10.418,2.302z"/>
<g display="none">
	<path display="inline" fill-rule="evenodd" clip-rule="evenodd" d="M12.239-1.586H9.605v-1.975H8.288v1.975H2.36v-1.975H1.045
		v1.975H-1.59c-0.363,0-0.658,0.296-0.658,0.657V0.39h15.146v-1.318C12.897-1.29,12.604-1.586,12.239-1.586z"/>
	<path display="inline" fill-rule="evenodd" clip-rule="evenodd" d="M-2.248,12.244c0,0.363,0.295,0.658,0.658,0.658h13.829
		c0.364,0,0.658-0.295,0.658-0.658V1.048H-2.248V12.244z M8.947,2.365h2.635V5H8.947V2.365z M8.947,5.657h2.635v2.635H8.947V5.657z
		 M8.947,8.951h2.635v2.634H8.947V8.951z M5.653,2.365h2.635V5H5.653V2.365z M5.653,5.657h2.635v2.635H5.653V5.657z M5.653,8.951
		h2.635v2.634H5.653V8.951z M2.36,2.365h2.634V5H2.36V2.365z M2.36,5.657h2.634v2.635H2.36V5.657z M2.36,8.951h2.634v2.634H2.36
		V8.951z M-0.932,2.365h2.635V5h-2.635V2.365z M-0.932,5.657h2.635v2.635h-2.635V5.657z M-0.932,8.951h2.635v2.634h-2.635V8.951z"/>
</g>
<g display="none">
	<path display="inline" d="M4.51,5.42c0,0,0.027-8.888,0.006-8.888c-4.631,0-8.199,4.037-8.199,8.754s3.824,8.413,8.541,8.413
		s8.541-3.526,8.541-8.242C13.398,5.417,4.51,5.42,4.51,5.42z"/>
	<path display="inline" d="M14.334,4.106c0-4.517-4.029-8.464-8.546-8.464c0.062,0,0,8.464,0,8.464S14.334,4.132,14.334,4.106z"/>
</g>
<path display="none" fill-rule="evenodd" clip-rule="evenodd" d="M8.815,3.992l5.854-5.67c0.166,0.163,0.271,0.39,0.271,0.641
	v11.416c0,0.237-0.094,0.452-0.244,0.613L8.815,3.992z M-3.99-1.704c0.16-0.145,0.37-0.235,0.603-0.235h17.425
	c0.232,0,0.441,0.091,0.602,0.235L5.325,5.572L-3.99-1.704z M-4.047,10.992c-0.149-0.161-0.242-0.376-0.242-0.613V-1.037
	c0-0.251,0.103-0.478,0.269-0.641l5.854,5.67L-4.047,10.992z M5.325,7.375L7.77,5.008l6.887,6.025
	c-0.162,0.154-0.379,0.248-0.619,0.248H-3.388c-0.241,0-0.456-0.094-0.618-0.248L2.88,5.008L5.325,7.375z"/>
<polygon display="none" points="9.091,0.684 3.774,6.001 1.56,3.784 0.229,5.114 2.444,7.329 2.444,7.329 3.774,8.658 10.421,2.013 
	"/>
<g display="none">
	<g display="inline">
		<path d="M5.324,9.533c-0.42,0-0.762-0.341-0.762-0.762V0.57c0-0.421,0.342-0.762,0.762-0.762S6.086,0.149,6.086,0.57v8.201
			C6.086,9.192,5.744,9.533,5.324,9.533z"/>
	</g>
	<g display="inline">
		<path d="M9.426,5.434H1.225c-0.421,0-0.762-0.342-0.762-0.762c0-0.421,0.341-0.762,0.762-0.762h8.201
			c0.42,0,0.762,0.341,0.762,0.762C10.188,5.092,9.846,5.434,9.426,5.434z"/>
	</g>
</g>
<g display="none">
	<g display="inline">
		<path d="M9.426,5.433H1.225c-0.421,0-0.762-0.341-0.762-0.762s0.341-0.762,0.762-0.762h8.201c0.42,0,0.762,0.341,0.762,0.762
			S9.846,5.433,9.426,5.433z"/>
	</g>
</g>
<g display="none">
	<path display="inline" d="M10.158,6.828L8.001,4.672l2.157-2.158c0.738-0.738,0.738-1.936,0-2.674c-0.74-0.737-1.937-0.739-2.678,0
		L5.325,1.996L3.168-0.161C2.429-0.9,1.232-0.9,0.494-0.161c-0.74,0.738-0.74,1.937,0,2.674L2.65,4.672L0.494,6.828
		c-0.74,0.738-0.74,1.938,0,2.676c0.738,0.738,1.935,0.738,2.674,0l2.157-2.156L7.48,9.504c0.741,0.738,1.938,0.738,2.678,0
		C10.896,8.766,10.896,7.566,10.158,6.828z"/>
</g>
<g display="none">
	<path display="inline" d="M11.554,0.805l-1.085-1.084c-0.424-0.425-1.114-0.425-1.538,0L3.507,5.145L1.719,3.359
		c-0.425-0.426-1.113-0.426-1.537,0l-1.086,1.084c-0.425,0.426-0.425,1.113,0,1.537l3.438,3.438c0.024,0.027,0.051,0.049,0.078,0.07
		l0.128,0.133c0.427,0.424,1.115,0.424,1.539,0l7.275-7.275C11.979,1.92,11.979,1.231,11.554,0.805z"/>
</g>
<g display="none">
	<path display="inline" d="M12.57,4.476c-0.001-0.031-0.004-0.063-0.004-0.096l-0.001-0.019l-0.001-0.016
		c0-0.021-0.001-0.041-0.002-0.062c-0.003-0.044-0.006-0.087-0.009-0.131l-0.001-0.017l-0.002-0.041
		c-0.004-0.048-0.008-0.094-0.013-0.143c-0.001-0.014-0.003-0.027-0.005-0.041c-0.005-0.052-0.012-0.104-0.019-0.155V3.752
		l-0.001-0.015c-0.12-0.936-0.42-1.828-0.887-2.649c-0.456-0.802-1.052-1.501-1.771-2.076C9.841-1,9.826-1.011,9.81-1.022
		L9.803-1.027L9.801-1.028L9.798-1.03C8.51-2.041,6.965-2.575,5.325-2.575c-1.641,0-3.188,0.534-4.474,1.545L0.849-1.028
		L0.837-1.021C0.822-1.01,0.808-0.999,0.795-0.989C0.076-0.413-0.521,0.284-0.977,1.086c-0.468,0.82-0.766,1.711-0.887,2.646
		l-0.002,0.013l-0.001,0.014c-0.006,0.049-0.012,0.1-0.017,0.149c-0.002,0.016-0.003,0.031-0.005,0.048
		C-1.892,4.001-1.896,4.046-1.9,4.094c-0.001,0.021-0.003,0.042-0.004,0.062C-1.908,4.198-1.91,4.239-1.913,4.283
		c-0.001,0.019-0.002,0.039-0.002,0.059l-0.001,0.022l-0.001,0.022c-0.001,0.029-0.003,0.06-0.004,0.089
		c-0.001,0.053-0.001,0.107-0.002,0.162v0.016c0,0.006,0,0.01,0,0.01v0.01c0,0,0,0.01,0,0.015c0,0.007,0,0.012,0,0.012
		c0.001,0.061,0.001,0.113,0.002,0.167C-1.92,4.897-1.918,4.929-1.917,4.96l0.001,0.021l0.001,0.027c0,0.017,0.001,0.033,0.002,0.05
		c0.003,0.044,0.005,0.088,0.01,0.132v0.016L-1.9,5.247c0.004,0.048,0.009,0.095,0.013,0.142c0.002,0.016,0.003,0.027,0.004,0.042
		c0.005,0.052,0.012,0.103,0.018,0.155l0.001,0.009l0.001,0.01c0.121,0.938,0.419,1.828,0.887,2.649
		c0.456,0.802,1.052,1.5,1.771,2.077c0.015,0.011,0.031,0.021,0.046,0.032l0.006,0.006l0.003,0.001l0.003,0.002
		c1.286,1.01,2.833,1.544,4.474,1.545c1.64-0.001,3.187-0.535,4.473-1.545l0.003-0.002l0.003-0.002l0.009-0.006
		c0.016-0.012,0.029-0.021,0.042-0.031c0.719-0.575,1.314-1.273,1.771-2.075c0.468-0.82,0.768-1.711,0.888-2.646l0.002-0.019
		l0.001-0.008c0.006-0.05,0.012-0.1,0.017-0.148c0.002-0.016,0.005-0.033,0.006-0.049c0.005-0.045,0.009-0.09,0.013-0.137
		c0.001-0.021,0.002-0.042,0.004-0.063c0.002-0.042,0.005-0.084,0.008-0.125c0.001-0.022,0.002-0.043,0.002-0.063l0.001-0.02
		l0.001-0.021c0.002-0.031,0.003-0.061,0.004-0.091c0.001-0.054,0.001-0.107,0.002-0.162c0-0.005,0-0.012,0-0.018V4.673V4.669
		c0,0,0-0.01,0-0.015c0-0.007,0-0.012,0-0.019C12.571,4.583,12.571,4.528,12.57,4.476z M10.755,4.819
		c-0.001,0.022-0.001,0.045-0.002,0.067v0.01c-0.001,0.022-0.002,0.044-0.004,0.066c-0.002,0.032-0.003,0.064-0.007,0.095
		c0,0.016-0.001,0.031-0.002,0.045c-0.004,0.036-0.007,0.072-0.011,0.107l-0.002,0.023v0.005c-0.005,0.041-0.01,0.081-0.015,0.121
		v0.003v0.002C10.56,6.561,10.025,7.649,9.166,8.51C8.138,9.535,6.773,10.1,5.325,10.1c-1.449,0-2.814-0.564-3.841-1.59
		C0.602,7.626,0.047,6.46-0.079,5.228L-0.08,5.226V5.224c-0.004-0.043-0.008-0.086-0.011-0.13L-0.093,5.08V5.074
		c-0.003-0.039-0.005-0.078-0.008-0.118V4.935l-0.001-0.013C-0.103,4.886-0.104,4.85-0.104,4.813
		C-0.105,4.796-0.105,4.777-0.105,4.76V4.742V4.721c-0.002-0.018-0.002-0.034-0.002-0.052c0-0.049,0.002-0.098,0.003-0.146
		c0-0.02,0.001-0.039,0.001-0.059l0.001-0.018C-0.102,4.424-0.101,4.4-0.099,4.378c0.001-0.03,0.003-0.063,0.005-0.095
		c0.001-0.015,0.001-0.03,0.003-0.045C-0.088,4.202-0.085,4.166-0.08,4.13l0.002-0.027c0.005-0.04,0.01-0.081,0.014-0.121
		l0.002-0.003C0.09,2.78,0.624,1.692,1.484,0.832c1.026-1.026,2.39-1.591,3.841-1.592c1.448,0.001,2.812,0.565,3.841,1.592
		c0.883,0.884,1.438,2.05,1.562,3.283v0.001v0.001c0.005,0.044,0.01,0.087,0.012,0.13l0.001,0.021
		c0.004,0.039,0.006,0.078,0.008,0.118l0.002,0.023l0.001,0.012c0.001,0.035,0.002,0.071,0.003,0.107
		c0.002,0.018,0.002,0.035,0.002,0.054v0.017V4.62c0,0.018,0.001,0.035,0.001,0.053C10.758,4.722,10.757,4.771,10.755,4.819z"/>
	<path display="inline" d="M7.364,3.958H6.123V1.6c0-0.508-0.413-0.92-0.92-0.92S4.284,1.092,4.284,1.6v3.278
		c0,0.508,0.412,0.922,0.919,0.922h2.161c0.508,0,0.921-0.414,0.921-0.922C8.285,4.372,7.872,3.958,7.364,3.958z"/>
</g>
<g id="_x37_57-paper-airplane_x40_2x.png_12_" display="none">
	<g display="inline">
		<path d="M12.905-2.638c0-0.15-0.121-0.271-0.271-0.271c-0.037,0-0.075,0.008-0.107,0.025L-2.091,3.34
			c-0.097,0.04-0.165,0.137-0.165,0.249c0,0.113,0.068,0.213,0.169,0.252l5.851,2.391l2.392,5.852h0.002
			c0.04,0.101,0.138,0.168,0.25,0.168c0.113,0,0.209-0.067,0.247-0.162l0.003-0.005l6.226-14.615l-0.002-0.002
			C12.896-2.566,12.905-2.601,12.905-2.638z M-1.282,3.584l12.737-5.426l-7.548,7.55L-1.282,3.584z M6.412,11.277L4.288,6.09
			l7.55-7.548L6.412,11.277z"/>
	</g>
</g>
<g id="_x37_08-search_x40_2x.png_16_" display="none">
	<g display="inline">
		<path d="M13.565,12.494L8.876,7.805c1.117-1.217,1.805-2.836,1.805-4.619c0-3.778-3.062-6.84-6.841-6.84s-6.841,3.062-6.841,6.84
			c0,3.779,3.062,6.842,6.841,6.842c1.783,0,3.401-0.688,4.619-1.807l4.689,4.689c0.115,0.115,0.302,0.115,0.417,0
			C13.68,12.795,13.68,12.609,13.565,12.494z M3.84,9.432c-3.449,0-6.246-2.795-6.246-6.246c0-3.45,2.797-6.246,6.246-6.246
			s6.246,2.796,6.246,6.246C10.086,6.637,7.289,9.432,3.84,9.432z"/>
	</g>
</g>
<path display="none" fill-rule="evenodd" clip-rule="evenodd" d="M5.324-8.93c-7.51,0-13.6,6.089-13.6,13.601
	c0,7.511,6.09,13.601,13.6,13.601c7.512,0,13.602-6.09,13.602-13.601C18.926-2.841,12.836-8.93,5.324-8.93z M12.7,1.725
	l-8.322,8.322c-0.283,0.283-0.674,0.457-1.104,0.457c-0.432,0-0.822-0.174-1.104-0.457l-4.682-4.682
	c-0.283-0.281-0.457-0.672-0.457-1.104c0-0.861,0.699-1.561,1.561-1.561c0.43,0,0.82,0.176,1.104,0.457l3.578,3.578l7.219-7.219
	c0.281-0.281,0.672-0.457,1.104-0.457c0.861,0,1.561,0.699,1.561,1.561C13.157,1.053,12.981,1.441,12.7,1.725z"/>
<g display="none">
	<path display="inline" d="M27.56,3.059c-0.734-2.916-4.383-6.652-8.777-6.652c-0.145,0-0.287,0.004-0.43,0.008
		c-1.979-4.316-7.076-7.826-13.053-7.826c-5.986,0-11.09,4.389-13.061,8.717c-0.283-0.02-0.57-0.029-0.861-0.029
		c-4.422,0-8.088,2.244-8.791,5.184c-2.875,0.439-5.078,3.572-5.078,6.568v1.41c0,3.305,2.682,5.986,5.986,5.986H1.329V14.02h-4.332
		c-0.572-0.008-1.131-0.199-1.527-0.705c-0.18-0.234-0.293-0.539-0.291-0.852c-0.002-0.359,0.146-0.703,0.371-0.949l8.33-9.34
		c0.396-0.43,0.914-0.6,1.445-0.604c0.533,0.004,1.051,0.174,1.447,0.604l8.328,9.34c0.227,0.246,0.375,0.592,0.373,0.949
		c0,0.312-0.111,0.617-0.291,0.852c-0.396,0.506-0.957,0.697-1.527,0.705H9.321v2.404h17.836c3.305,0,5.984-2.682,5.984-5.986v-1.41
		C33.142,5.857,30.677,3.266,27.56,3.059z"/>
	<path display="inline" d="M5.485,3.342C5.481,3.34,5.474,3.336,5.462,3.33C5.433,3.32,5.38,3.307,5.325,3.307
		C5.251,3.305,5.185,3.33,5.167,3.342l-7.975,8.939h5.875v8.4c0.053,0.031,0.166,0.074,0.303,0.072h3.91
		c0.102,0,0.189-0.021,0.25-0.047c0.023-0.01,0.039-0.018,0.053-0.025v-8.4h5.875L5.485,3.342z"/>
</g>
<g display="none">
	<g display="inline">
		<path d="M3.853,9.688c-3.141,0-5.697-2.556-5.697-5.695c0-3.142,2.557-5.698,5.697-5.698s5.696,2.557,5.696,5.698
			C9.549,7.132,6.993,9.688,3.853,9.688z M3.853,0.215c-2.083,0-3.776,1.693-3.776,3.777c0,2.081,1.693,3.774,3.776,3.774
			c2.082,0,3.775-1.693,3.775-3.774C7.628,1.908,5.935,0.215,3.853,0.215z"/>
	</g>
	<g display="inline">
		<path d="M11.534,11.048c-0.191,0-0.383-0.056-0.549-0.173l-4.18-2.916C6.37,7.656,6.264,7.057,6.567,6.622
			C6.87,6.188,7.467,6.08,7.903,6.384L12.085,9.3c0.434,0.304,0.541,0.902,0.237,1.337C12.136,10.904,11.837,11.048,11.534,11.048z"
			/>
	</g>
</g>
</svg>
