<?xml version="1.0" encoding="utf-8"?>
<!-- Generator: Adobe Illustrator 16.0.0, SVG Export Plug-In . SVG Version: 6.00 Build 0)  -->
<!DOCTYPE svg PUBLIC "-//W3C//DTD SVG 1.1//EN" "http://www.w3.org/Graphics/SVG/1.1/DTD/svg11.dtd">
<svg version="1.1" id="Layer_1" xmlns="http://www.w3.org/2000/svg" xmlns:xlink="http://www.w3.org/1999/xlink" x="0px" y="0px"
	 width="18.018px" height="18.039px" viewBox="0 0 18.018 18.039" enable-background="new 0 0 18.018 18.039" xml:space="preserve">
<path display="none" d="M10.301,9.439v0.801c0.145,0.063,0.312,0.138,0.499,0.22c0.188,0.081,0.38,0.167,0.579,0.253
	c0.199,0.088,0.4,0.174,0.604,0.262c0.202,0.086,0.396,0.166,0.578,0.242c0.182,0.074,0.347,0.143,0.492,0.202
	c0.147,0.06,0.266,0.106,0.356,0.138c0.192,0.068,0.349,0.171,0.467,0.312c0.12,0.14,0.212,0.28,0.281,0.428
	c0.081,0.169,0.14,0.347,0.177,0.534v0.869H3.684V12.83c0.041-0.188,0.102-0.365,0.185-0.534c0.068-0.147,0.161-0.288,0.28-0.428
	c0.119-0.141,0.271-0.243,0.459-0.312c0.096-0.031,0.221-0.079,0.377-0.142c0.156-0.062,0.33-0.133,0.521-0.212
	c0.19-0.078,0.394-0.166,0.605-0.258c0.212-0.09,0.423-0.182,0.633-0.273c0.212-0.092,0.409-0.177,0.596-0.26
	c0.188-0.083,0.354-0.156,0.494-0.219V9.412C7.826,9.375,7.811,9.32,7.789,9.243c-0.021-0.075-0.042-0.15-0.064-0.229
	C7.697,8.924,7.665,8.825,7.629,8.72C7.496,8.474,7.392,8.194,7.312,7.881C7.236,7.567,7.197,7.235,7.197,6.885
	c0-0.461,0.048-0.853,0.147-1.171c0.099-0.32,0.23-0.58,0.4-0.781c0.169-0.201,0.366-0.348,0.593-0.438
	c0.227-0.092,0.47-0.137,0.729-0.137c0.257,0,0.498,0.043,0.723,0.133c0.227,0.089,0.425,0.232,0.596,0.432
	c0.172,0.198,0.307,0.459,0.405,0.781c0.098,0.321,0.147,0.716,0.147,1.182c0,0.343-0.038,0.667-0.113,0.975
	c-0.076,0.31-0.18,0.587-0.312,0.834c-0.037,0.113-0.071,0.222-0.104,0.321c-0.026,0.087-0.052,0.17-0.075,0.249
	C10.311,9.345,10.301,9.402,10.301,9.439z"/>
<polygon display="none" points="13.14,6.043 9.009,12.014 4.878,6.043 "/>
<g display="none">
	<path display="inline" d="M5.602,0.406c1.61,1.306,1.887,2.828,2.55,3.419C8.346,4,8.397,3.84,8.87,3.84
		c0.387,0,0.474,0.171,0.658,0.019c0.692-0.571,1.081-2.073,2.637-3.369c0.729-0.607,0.115-0.841-0.881-0.93
		c-0.72-0.065-1.148,0.684-1.907,0.684c-0.704,0-2.122-0.827-2.815-0.775C5.468-0.449,4.827-0.222,5.602,0.406z"/>
	<path display="inline" d="M9.009,4.25c-3.683,0-6.668,5.898-6.668,9.105c0,3.208,2.985,5.235,6.668,5.235
		c3.684,0,6.668-2.027,6.668-5.235C15.677,10.148,12.692,4.25,9.009,4.25z M9.413,14.225l0.022,0.97
		c0.005,0.15-0.047,0.217-0.188,0.222l-0.473,0.02c-0.14,0.007-0.206-0.058-0.212-0.207L8.54,14.27
		c-1.125-0.082-1.67-0.63-1.688-1.224l-0.009-0.269c-0.003-0.131,0.048-0.197,0.178-0.2l0.57-0.02
		c0.142-0.005,0.186,0.059,0.191,0.188l0.007,0.227c0.013,0.389,0.43,0.559,1.119,0.537c0.681-0.021,1.097-0.22,1.084-0.608
		l-0.01-0.291c-0.008-0.26-0.229-0.392-0.589-0.499l-1.637-0.509c-0.404-0.126-0.861-0.524-0.879-1.063L6.866,10.14
		c-0.02-0.584,0.42-1.18,1.496-1.344L8.339,7.827C8.334,7.676,8.396,7.609,8.536,7.604l0.475-0.021
		c0.141-0.005,0.195,0.058,0.199,0.21l0.024,0.968c1.042,0.117,1.52,0.678,1.538,1.25l0.009,0.259
		c0.005,0.141-0.036,0.196-0.188,0.201l-0.561,0.018c-0.13,0.005-0.186-0.047-0.189-0.188l-0.009-0.259
		C9.82,9.654,9.458,9.481,8.789,9.504C8.132,9.526,7.792,9.72,7.804,10.108l0.006,0.184c0.009,0.281,0.275,0.423,0.471,0.482
		l1.638,0.508c0.6,0.185,0.987,0.519,1.005,1.027l0.02,0.604C10.962,13.495,10.455,14.051,9.413,14.225z"/>
</g>
<path display="none" fill-rule="evenodd" clip-rule="evenodd" d="M13.862,0.756H4.154c-1.879,0-3.418,1.539-3.418,3.419v9.707
	c0,1.881,1.539,3.419,3.418,3.419h9.708c1.88,0,3.419-1.538,3.419-3.419V4.175C17.281,2.295,15.742,0.756,13.862,0.756z
	 M14.102,6.659L7.971,12.79c-0.154,0.154-0.404,0.154-0.558,0l-0.124-0.125v0.001l-0.133-0.133l-0.578-0.579
	c-0.004-0.003-0.006-0.01-0.009-0.013L3.918,9.271c-0.154-0.154-0.154-0.403,0-0.558l0.836-0.835c0.153-0.155,0.402-0.155,0.557,0
	l2.385,2.401l5.012-5.013c0.154-0.154,0.404-0.154,0.558,0l0.837,0.837C14.254,6.256,14.254,6.506,14.102,6.659z"/>
<g display="none">
	<path display="inline" fill-rule="evenodd" clip-rule="evenodd" d="M15.923,2.771h-2.634V0.797h-1.317v1.975H6.044V0.797H4.729
		v1.975H2.094c-0.363,0-0.658,0.296-0.658,0.657v1.318h15.146V3.429C16.581,3.067,16.287,2.771,15.923,2.771z"/>
	<path display="inline" fill-rule="evenodd" clip-rule="evenodd" d="M1.436,16.602c0,0.363,0.295,0.658,0.658,0.658h13.829
		c0.364,0,0.658-0.295,0.658-0.658V5.405H1.436V16.602z M12.631,6.723h2.635v2.635h-2.635V6.723z M12.631,10.015h2.635v2.635h-2.635
		V10.015z M12.631,13.309h2.635v2.634h-2.635V13.309z M9.337,6.723h2.635v2.635H9.337V6.723z M9.337,10.015h2.635v2.635H9.337
		V10.015z M9.337,13.309h2.635v2.634H9.337V13.309z M6.044,6.723h2.634v2.635H6.044V6.723z M6.044,10.015h2.634v2.635H6.044V10.015z
		 M6.044,13.309h2.634v2.634H6.044V13.309z M2.752,6.723h2.635v2.635H2.752V6.723z M2.752,10.015h2.635v2.635H2.752V10.015z
		 M2.752,13.309h2.635v2.634H2.752V13.309z"/>
</g>
<g>
	<path d="M8.193,9.777c0,0,0.027-8.888,0.006-8.888C3.568,0.89,0,4.927,0,9.644s3.824,8.413,8.541,8.413s8.541-3.526,8.541-8.242
		C17.082,9.774,8.193,9.777,8.193,9.777z"/>
	<path d="M18.018,8.464C18.018,3.947,13.988,0,9.472,0c0.062,0,0,8.464,0,8.464S18.018,8.489,18.018,8.464z"/>
</g>
<path display="none" fill-rule="evenodd" clip-rule="evenodd" d="M12.499,8.35l5.854-5.67c0.166,0.163,0.271,0.39,0.271,0.641
	v11.416c0,0.237-0.094,0.452-0.244,0.613L12.499,8.35z M-0.307,2.653c0.16-0.145,0.37-0.235,0.603-0.235h17.425
	c0.232,0,0.441,0.091,0.602,0.235L9.009,9.93L-0.307,2.653z M-0.363,15.35c-0.149-0.161-0.242-0.376-0.242-0.613V3.32
	c0-0.251,0.103-0.478,0.269-0.641l5.854,5.67L-0.363,15.35z M9.009,11.732l2.444-2.367l6.887,6.025
	c-0.162,0.154-0.379,0.248-0.619,0.248H0.296c-0.241,0-0.456-0.094-0.618-0.248l6.886-6.025L9.009,11.732z"/>
<polygon display="none" points="12.774,5.041 7.458,10.358 5.243,8.142 3.913,9.472 6.128,11.687 6.128,11.687 7.458,13.016 
	14.104,6.37 "/>
<g display="none">
	<g display="inline">
		<path d="M9.008,13.891c-0.42,0-0.762-0.341-0.762-0.762V4.928c0-0.421,0.342-0.762,0.762-0.762S9.77,4.507,9.77,4.928v8.201
			C9.77,13.55,9.428,13.891,9.008,13.891z"/>
	</g>
	<g display="inline">
		<path d="M13.109,9.791H4.908c-0.421,0-0.762-0.342-0.762-0.762c0-0.421,0.341-0.762,0.762-0.762h8.201
			c0.42,0,0.762,0.341,0.762,0.762C13.871,9.449,13.529,9.791,13.109,9.791z"/>
	</g>
</g>
<g display="none">
	<g display="inline">
		<path d="M13.109,9.79H4.908c-0.421,0-0.762-0.341-0.762-0.762s0.341-0.762,0.762-0.762h8.201c0.42,0,0.762,0.341,0.762,0.762
			S13.529,9.79,13.109,9.79z"/>
	</g>
</g>
<g display="none">
	<path display="inline" d="M13.842,11.186l-2.157-2.156l2.157-2.158c0.738-0.738,0.738-1.936,0-2.674
		c-0.74-0.737-1.937-0.739-2.678,0L9.009,6.353L6.852,4.197c-0.739-0.739-1.936-0.739-2.674,0c-0.74,0.738-0.74,1.937,0,2.674
		l2.156,2.158l-2.156,2.156c-0.74,0.738-0.74,1.938,0,2.676c0.738,0.738,1.935,0.738,2.674,0l2.157-2.156l2.155,2.156
		c0.741,0.738,1.938,0.738,2.678,0C14.58,13.123,14.58,11.924,13.842,11.186z"/>
</g>
<g display="none">
	<path display="inline" d="M15.237,5.163l-1.085-1.084c-0.424-0.425-1.114-0.425-1.538,0L7.19,9.502L5.402,7.717
		c-0.425-0.426-1.113-0.426-1.537,0L2.779,8.801c-0.425,0.426-0.425,1.113,0,1.537l3.438,3.438c0.024,0.027,0.051,0.049,0.078,0.07
		l0.128,0.133c0.427,0.424,1.115,0.424,1.539,0l7.275-7.275C15.663,6.278,15.663,5.588,15.237,5.163z"/>
</g>
<g display="none">
	<path display="inline" d="M16.254,8.833C16.253,8.802,16.25,8.77,16.25,8.737l-0.001-0.019l-0.001-0.016
		c0-0.021-0.001-0.041-0.002-0.062c-0.003-0.044-0.006-0.087-0.009-0.131l-0.001-0.017l-0.002-0.041
		c-0.004-0.048-0.008-0.094-0.013-0.143c-0.001-0.014-0.003-0.027-0.005-0.041c-0.005-0.052-0.012-0.104-0.019-0.155V8.109
		l-0.001-0.015c-0.12-0.936-0.42-1.828-0.887-2.649c-0.456-0.802-1.052-1.501-1.771-2.076c-0.015-0.012-0.029-0.022-0.046-0.034
		L13.486,3.33l-0.002-0.001l-0.003-0.002c-1.288-1.011-2.833-1.545-4.473-1.545c-1.641,0-3.188,0.534-4.474,1.545L4.532,3.329
		L4.521,3.337C4.506,3.348,4.491,3.358,4.479,3.368C3.76,3.944,3.163,4.642,2.707,5.443C2.239,6.264,1.941,7.154,1.82,8.09
		L1.818,8.103L1.817,8.116c-0.006,0.049-0.012,0.1-0.017,0.149C1.799,8.281,1.798,8.297,1.796,8.313
		c-0.004,0.045-0.009,0.09-0.013,0.138C1.782,8.472,1.78,8.493,1.779,8.513C1.775,8.556,1.773,8.597,1.771,8.641
		C1.77,8.659,1.769,8.68,1.769,8.699L1.768,8.722L1.767,8.744c-0.001,0.029-0.003,0.06-0.004,0.089
		C1.762,8.886,1.762,8.94,1.761,8.995v0.016c0,0.006,0,0.01,0,0.01v0.01c0,0,0,0.01,0,0.015c0,0.007,0,0.012,0,0.012
		C1.762,9.117,1.762,9.17,1.763,9.224c0.001,0.031,0.003,0.062,0.004,0.094l0.001,0.021l0.001,0.027c0,0.017,0.001,0.033,0.002,0.05
		c0.003,0.044,0.005,0.088,0.01,0.132v0.016l0.003,0.042c0.004,0.048,0.009,0.095,0.013,0.142C1.798,9.762,1.799,9.773,1.8,9.788
		C1.805,9.84,1.812,9.891,1.817,9.943l0.001,0.009l0.001,0.01c0.121,0.938,0.419,1.828,0.887,2.649
		c0.456,0.802,1.052,1.5,1.771,2.077c0.015,0.011,0.031,0.021,0.046,0.032l0.006,0.006l0.003,0.001l0.003,0.002
		c1.286,1.01,2.833,1.544,4.474,1.545c1.64-0.001,3.187-0.535,4.473-1.545l0.003-0.002l0.003-0.002l0.009-0.006
		c0.016-0.012,0.029-0.021,0.042-0.031c0.719-0.575,1.314-1.273,1.771-2.075c0.468-0.82,0.768-1.711,0.888-2.646l0.002-0.019
		l0.001-0.008c0.006-0.05,0.012-0.1,0.017-0.148c0.002-0.016,0.005-0.033,0.006-0.049c0.005-0.045,0.009-0.09,0.013-0.137
		c0.001-0.021,0.002-0.042,0.004-0.063c0.002-0.042,0.005-0.084,0.008-0.125c0.001-0.022,0.002-0.043,0.002-0.063l0.001-0.02
		l0.001-0.021c0.002-0.031,0.003-0.061,0.004-0.091c0.001-0.054,0.001-0.107,0.002-0.162c0-0.005,0-0.012,0-0.018V9.03V9.026
		c0,0,0-0.01,0-0.015c0-0.007,0-0.012,0-0.019C16.255,8.94,16.255,8.886,16.254,8.833z M14.438,9.177
		c-0.001,0.022-0.001,0.045-0.002,0.067v0.01c-0.001,0.022-0.002,0.044-0.004,0.066c-0.002,0.032-0.003,0.064-0.007,0.095
		c0,0.016-0.001,0.031-0.002,0.045c-0.004,0.036-0.007,0.072-0.011,0.107l-0.002,0.023v0.005c-0.005,0.041-0.01,0.081-0.015,0.121
		V9.72v0.002c-0.153,1.196-0.688,2.285-1.547,3.146c-1.028,1.025-2.393,1.59-3.841,1.59c-1.449,0-2.814-0.564-3.841-1.59
		c-0.883-0.884-1.438-2.05-1.563-3.282L3.604,9.583V9.581C3.6,9.538,3.596,9.495,3.593,9.451L3.591,9.438V9.432
		C3.588,9.393,3.586,9.354,3.583,9.313V9.292L3.582,9.279C3.581,9.243,3.579,9.207,3.579,9.171C3.578,9.153,3.578,9.135,3.578,9.117
		V9.1V9.078C3.576,9.061,3.576,9.044,3.576,9.026c0-0.049,0.002-0.098,0.003-0.146c0-0.02,0.001-0.039,0.001-0.059l0.001-0.018
		c0.001-0.022,0.002-0.046,0.004-0.068c0.001-0.03,0.003-0.063,0.005-0.095c0.001-0.015,0.001-0.03,0.003-0.045
		C3.596,8.56,3.599,8.523,3.604,8.487L3.605,8.46c0.005-0.04,0.01-0.081,0.014-0.121l0.002-0.003
		C3.773,7.138,4.308,6.05,5.168,5.189c1.026-1.026,2.39-1.591,3.841-1.592c1.448,0.001,2.812,0.565,3.841,1.592
		c0.883,0.884,1.438,2.05,1.562,3.283v0.001v0.001c0.005,0.044,0.01,0.087,0.012,0.13l0.001,0.021
		c0.004,0.039,0.006,0.078,0.008,0.118l0.002,0.023l0.001,0.012c0.001,0.035,0.002,0.071,0.003,0.107
		c0.002,0.018,0.002,0.035,0.002,0.054v0.017v0.021c0,0.018,0.001,0.035,0.001,0.053C14.441,9.079,14.44,9.128,14.438,9.177z"/>
	<path display="inline" d="M11.048,8.315H9.807V5.957c0-0.508-0.413-0.92-0.92-0.92s-0.919,0.412-0.919,0.92v3.278
		c0,0.508,0.412,0.922,0.919,0.922h2.161c0.508,0,0.921-0.414,0.921-0.922C11.969,8.729,11.556,8.315,11.048,8.315z"/>
</g>
<g id="_x37_57-paper-airplane_x40_2x.png_12_" display="none">
	<g display="inline">
		<path d="M16.589,1.72c0-0.15-0.121-0.271-0.271-0.271c-0.037,0-0.075,0.008-0.107,0.025L1.593,7.697
			c-0.097,0.04-0.165,0.137-0.165,0.249c0,0.113,0.068,0.213,0.169,0.252l5.851,2.391l2.392,5.852h0.002
			c0.04,0.101,0.138,0.168,0.25,0.168c0.113,0,0.209-0.067,0.247-0.162l0.003-0.005l6.226-14.615l-0.002-0.002
			C16.579,1.791,16.589,1.757,16.589,1.72z M2.401,7.941l12.737-5.426l-7.548,7.55L2.401,7.941z M10.096,15.635l-2.124-5.188
			l7.55-7.548L10.096,15.635z"/>
	</g>
</g>
<g id="_x37_08-search_x40_2x.png_16_" display="none">
	<g display="inline">
		<path d="M17.249,16.852l-4.689-4.689c1.117-1.217,1.805-2.836,1.805-4.619c0-3.778-3.062-6.84-6.841-6.84s-6.841,3.062-6.841,6.84
			c0,3.779,3.062,6.842,6.841,6.842c1.783,0,3.401-0.688,4.619-1.807l4.689,4.689c0.115,0.115,0.302,0.115,0.417,0
			C17.363,17.152,17.363,16.967,17.249,16.852z M7.523,13.789c-3.449,0-6.246-2.795-6.246-6.246c0-3.45,2.797-6.246,6.246-6.246
			s6.246,2.796,6.246,6.246C13.77,10.994,10.973,13.789,7.523,13.789z"/>
	</g>
</g>
<path display="none" fill-rule="evenodd" clip-rule="evenodd" d="M9.008-4.572c-7.51,0-13.6,6.089-13.6,13.601
	c0,7.511,6.09,13.601,13.6,13.601c7.512,0,13.602-6.09,13.602-13.601C22.609,1.517,16.52-4.572,9.008-4.572z M16.384,6.082
	l-8.322,8.322c-0.283,0.283-0.674,0.457-1.104,0.457c-0.432,0-0.822-0.174-1.104-0.457L1.173,9.723
	C0.89,9.441,0.716,9.051,0.716,8.619c0-0.861,0.699-1.561,1.561-1.561c0.43,0,0.82,0.176,1.104,0.457l3.578,3.578l7.219-7.219
	c0.281-0.281,0.672-0.457,1.104-0.457c0.861,0,1.561,0.699,1.561,1.561C16.841,5.41,16.665,5.799,16.384,6.082z"/>
<g display="none">
	<path display="inline" d="M31.243,7.416C30.509,4.5,26.86,0.764,22.466,0.764c-0.145,0-0.287,0.004-0.43,0.008
		C20.058-3.545,14.96-7.055,8.983-7.055c-5.986,0-11.09,4.389-13.061,8.717c-0.283-0.02-0.57-0.029-0.861-0.029
		c-4.422,0-8.088,2.244-8.791,5.184c-2.875,0.439-5.078,3.572-5.078,6.568v1.41c0,3.305,2.682,5.986,5.986,5.986H5.013v-2.404H0.681
		c-0.572-0.008-1.131-0.199-1.527-0.705c-0.18-0.234-0.293-0.539-0.291-0.852c-0.002-0.359,0.146-0.703,0.371-0.949l8.33-9.34
		c0.396-0.43,0.914-0.6,1.445-0.604c0.533,0.004,1.051,0.174,1.447,0.604l8.328,9.34c0.227,0.246,0.375,0.592,0.373,0.949
		c0,0.312-0.111,0.617-0.291,0.852c-0.396,0.506-0.957,0.697-1.527,0.705h-4.334v2.404h17.836c3.305,0,5.984-2.682,5.984-5.986
		v-1.41C36.825,10.215,34.36,7.623,31.243,7.416z"/>
	<path display="inline" d="M9.169,7.699C9.165,7.697,9.157,7.693,9.146,7.688c-0.029-0.01-0.082-0.023-0.137-0.023
		C8.935,7.662,8.868,7.688,8.851,7.699l-7.975,8.939h5.875v8.4c0.053,0.031,0.166,0.074,0.303,0.072h3.91
		c0.102,0,0.189-0.021,0.25-0.047c0.023-0.01,0.039-0.018,0.053-0.025v-8.4h5.875L9.169,7.699z"/>
</g>
<g display="none">
	<g display="inline">
		<path d="M7.536,14.045c-3.141,0-5.697-2.556-5.697-5.695c0-3.142,2.557-5.698,5.697-5.698s5.696,2.557,5.696,5.698
			C13.232,11.489,10.677,14.045,7.536,14.045z M7.536,4.572c-2.083,0-3.776,1.693-3.776,3.777c0,2.081,1.693,3.774,3.776,3.774
			c2.082,0,3.775-1.693,3.775-3.774C11.312,6.266,9.618,4.572,7.536,4.572z"/>
	</g>
	<g display="inline">
		<path d="M15.218,15.405c-0.191,0-0.383-0.056-0.549-0.173l-4.18-2.916c-0.436-0.303-0.542-0.902-0.238-1.337
			c0.303-0.435,0.899-0.542,1.336-0.238l4.182,2.916c0.434,0.304,0.541,0.902,0.237,1.337
			C15.819,15.262,15.521,15.405,15.218,15.405z"/>
	</g>
</g>
</svg>
