<?xml version="1.0" encoding="utf-8"?>
<!-- Generator: Adobe Illustrator 16.0.0, SVG Export Plug-In . SVG Version: 6.00 Build 0)  -->
<!DOCTYPE svg PUBLIC "-//W3C//DTD SVG 1.1//EN" "http://www.w3.org/Graphics/SVG/1.1/DTD/svg11.dtd">
<svg version="1.1" id="Layer_1" xmlns="http://www.w3.org/2000/svg" xmlns:xlink="http://www.w3.org/1999/xlink" x="0px" y="0px"
	 width="14.411px" height="12.754px" viewBox="0 0 14.411 12.754" enable-background="new 0 0 14.411 12.754" xml:space="preserve">
<path display="none" d="M8.533,6.788v0.801c0.145,0.063,0.312,0.138,0.499,0.22C9.22,7.89,9.412,7.976,9.611,8.062
	c0.199,0.088,0.4,0.174,0.604,0.262c0.202,0.086,0.396,0.166,0.578,0.242c0.182,0.074,0.347,0.143,0.492,0.202
	c0.147,0.06,0.266,0.106,0.356,0.138c0.192,0.068,0.349,0.171,0.467,0.312c0.12,0.14,0.212,0.28,0.281,0.428
	c0.081,0.169,0.14,0.347,0.177,0.534v0.869H1.916v-0.869c0.041-0.188,0.102-0.365,0.185-0.534c0.068-0.147,0.161-0.288,0.28-0.428
	C2.5,9.076,2.652,8.974,2.84,8.905c0.096-0.031,0.221-0.079,0.377-0.142c0.156-0.062,0.33-0.133,0.521-0.212
	c0.19-0.078,0.394-0.166,0.605-0.258c0.212-0.09,0.423-0.182,0.633-0.273c0.212-0.092,0.409-0.177,0.596-0.26
	c0.188-0.083,0.354-0.156,0.494-0.219V6.761C6.059,6.724,6.043,6.669,6.021,6.592c-0.021-0.075-0.042-0.15-0.064-0.229
	C5.93,6.272,5.897,6.174,5.861,6.068C5.729,5.822,5.624,5.543,5.545,5.229C5.469,4.916,5.43,4.584,5.43,4.233
	c0-0.461,0.048-0.853,0.147-1.171c0.099-0.32,0.23-0.58,0.4-0.781C6.146,2.08,6.344,1.934,6.57,1.843
	c0.227-0.092,0.47-0.137,0.729-0.137c0.257,0,0.498,0.043,0.723,0.133c0.227,0.089,0.425,0.232,0.596,0.432
	c0.172,0.198,0.307,0.459,0.405,0.781C9.12,3.373,9.17,3.768,9.17,4.233c0,0.343-0.038,0.667-0.113,0.975
	c-0.076,0.31-0.18,0.587-0.312,0.834C8.708,6.155,8.674,6.264,8.642,6.363C8.615,6.45,8.59,6.533,8.566,6.612
	C8.543,6.693,8.533,6.751,8.533,6.788z"/>
<polygon display="none" points="11.372,3.392 7.241,9.362 3.11,3.392 "/>
<g display="none">
	<path display="inline" d="M3.834-2.245c1.61,1.306,1.887,2.828,2.55,3.419C6.578,1.349,6.63,1.188,7.103,1.188
		c0.387,0,0.474,0.171,0.658,0.019c0.692-0.571,1.081-2.073,2.637-3.369c0.729-0.607,0.115-0.841-0.881-0.93
		c-0.72-0.065-1.148,0.684-1.907,0.684c-0.704,0-2.122-0.827-2.815-0.775C3.7-3.101,3.06-2.873,3.834-2.245z"/>
	<path display="inline" d="M7.241,1.599c-3.683,0-6.668,5.898-6.668,9.105c0,3.208,2.985,5.235,6.668,5.235
		c3.684,0,6.668-2.027,6.668-5.235C13.909,7.497,10.925,1.599,7.241,1.599z M7.646,11.573l0.022,0.97
		c0.005,0.15-0.047,0.217-0.188,0.222l-0.473,0.02c-0.14,0.007-0.206-0.058-0.212-0.207l-0.023-0.959
		c-1.125-0.082-1.67-0.63-1.688-1.224l-0.009-0.269c-0.003-0.131,0.048-0.197,0.178-0.2l0.57-0.02
		c0.142-0.005,0.186,0.059,0.191,0.188l0.007,0.227c0.013,0.389,0.43,0.559,1.119,0.537c0.681-0.021,1.097-0.22,1.084-0.608
		l-0.01-0.291c-0.008-0.26-0.229-0.392-0.589-0.499L5.989,8.95C5.585,8.824,5.128,8.426,5.11,7.887L5.099,7.488
		c-0.02-0.584,0.42-1.18,1.496-1.344L6.571,5.176C6.566,5.024,6.629,4.958,6.769,4.953l0.475-0.021
		c0.141-0.005,0.195,0.058,0.199,0.21L7.467,6.11c1.042,0.117,1.52,0.678,1.538,1.25l0.009,0.259C9.019,7.76,8.978,7.815,8.825,7.82
		L8.265,7.838c-0.13,0.005-0.186-0.047-0.189-0.188L8.066,7.391C8.053,7.003,7.69,6.83,7.021,6.853
		C6.364,6.875,6.024,7.068,6.036,7.457l0.006,0.184c0.009,0.281,0.275,0.423,0.471,0.482L8.15,8.631
		c0.6,0.185,0.987,0.519,1.005,1.027l0.02,0.604C9.194,10.844,8.688,11.399,7.646,11.573z"/>
</g>
<path display="none" fill-rule="evenodd" clip-rule="evenodd" d="M12.095-1.896H2.387c-1.879,0-3.418,1.539-3.418,3.419v9.707
	c0,1.881,1.539,3.419,3.418,3.419h9.708c1.88,0,3.419-1.538,3.419-3.419V1.523C15.514-0.356,13.975-1.896,12.095-1.896z
	 M12.334,4.008l-6.131,6.131c-0.154,0.154-0.404,0.154-0.558,0l-0.124-0.125v0.001L5.389,9.882L4.811,9.303
	C4.807,9.3,4.805,9.293,4.802,9.29L2.15,6.619c-0.154-0.154-0.154-0.403,0-0.558l0.836-0.835c0.153-0.155,0.402-0.155,0.557,0
	l2.385,2.401l5.012-5.013c0.154-0.154,0.404-0.154,0.558,0l0.837,0.837C12.486,3.604,12.486,3.854,12.334,4.008z"/>
<g display="none">
	<path display="inline" fill-rule="evenodd" clip-rule="evenodd" d="M14.155,0.12h-2.634v-1.975h-1.317V0.12H4.276v-1.975H2.961
		V0.12H0.326c-0.363,0-0.658,0.296-0.658,0.657v1.318h15.146V0.777C14.813,0.416,14.52,0.12,14.155,0.12z"/>
	<path display="inline" fill-rule="evenodd" clip-rule="evenodd" d="M-0.332,13.95c0,0.363,0.295,0.658,0.658,0.658h13.829
		c0.364,0,0.658-0.295,0.658-0.658V2.754H-0.332V13.95z M10.863,4.071h2.635v2.635h-2.635V4.071z M10.863,7.363h2.635v2.635h-2.635
		V7.363z M10.863,10.657h2.635v2.634h-2.635V10.657z M7.569,4.071h2.635v2.635H7.569V4.071z M7.569,7.363h2.635v2.635H7.569V7.363z
		 M7.569,10.657h2.635v2.634H7.569V10.657z M4.276,4.071H6.91v2.635H4.276V4.071z M4.276,7.363H6.91v2.635H4.276V7.363z
		 M4.276,10.657H6.91v2.634H4.276V10.657z M0.984,4.071h2.635v2.635H0.984V4.071z M0.984,7.363h2.635v2.635H0.984V7.363z
		 M0.984,10.657h2.635v2.634H0.984V10.657z"/>
</g>
<g display="none">
	<path display="inline" d="M6.426,7.126c0,0,0.027-8.888,0.006-8.888c-4.631,0-8.199,4.037-8.199,8.754s3.824,8.413,8.541,8.413
		s8.541-3.526,8.541-8.242C15.314,7.123,6.426,7.126,6.426,7.126z"/>
	<path display="inline" d="M16.25,5.812c0-4.517-4.029-8.464-8.546-8.464c0.062,0,0,8.464,0,8.464S16.25,5.838,16.25,5.812z"/>
</g>
<path display="none" fill-rule="evenodd" clip-rule="evenodd" d="M10.731,5.698l5.854-5.67c0.166,0.163,0.271,0.39,0.271,0.641
	v11.416c0,0.237-0.094,0.452-0.244,0.613L10.731,5.698z M-2.074,0.002c0.16-0.145,0.37-0.235,0.603-0.235h17.425
	c0.232,0,0.441,0.091,0.602,0.235L7.241,7.278L-2.074,0.002z M-2.131,12.698c-0.149-0.161-0.242-0.376-0.242-0.613V0.669
	c0-0.251,0.103-0.478,0.269-0.641l5.854,5.67L-2.131,12.698z M7.241,9.081l2.444-2.367l6.887,6.025
	c-0.162,0.154-0.379,0.248-0.619,0.248H-1.472c-0.241,0-0.456-0.094-0.618-0.248l6.886-6.025L7.241,9.081z"/>
<polygon display="none" points="11.007,2.39 5.69,7.707 3.476,5.49 2.146,6.82 4.36,9.035 4.36,9.035 5.69,10.364 12.337,3.719 "/>
<g display="none">
	<g display="inline">
		<path d="M7.24,11.239c-0.42,0-0.762-0.341-0.762-0.762V2.276c0-0.421,0.342-0.762,0.762-0.762s0.762,0.341,0.762,0.762v8.201
			C8.002,10.898,7.66,11.239,7.24,11.239z"/>
	</g>
	<g display="inline">
		<path d="M11.342,7.14H3.141c-0.421,0-0.762-0.342-0.762-0.762c0-0.421,0.341-0.762,0.762-0.762h8.201
			c0.42,0,0.762,0.341,0.762,0.762C12.104,6.798,11.762,7.14,11.342,7.14z"/>
	</g>
</g>
<g display="none">
	<g display="inline">
		<path d="M11.342,7.139H3.141c-0.421,0-0.762-0.341-0.762-0.762S2.72,5.615,3.141,5.615h8.201c0.42,0,0.762,0.341,0.762,0.762
			S11.762,7.139,11.342,7.139z"/>
	</g>
</g>
<g display="none">
	<path display="inline" d="M12.074,8.534L9.917,6.378l2.157-2.158c0.738-0.738,0.738-1.936,0-2.674c-0.74-0.737-1.937-0.739-2.678,0
		L7.241,3.702L5.084,1.545c-0.739-0.739-1.936-0.739-2.674,0c-0.74,0.738-0.74,1.937,0,2.674l2.156,2.158L2.41,8.534
		c-0.74,0.738-0.74,1.938,0,2.676c0.738,0.738,1.935,0.738,2.674,0l2.157-2.156l2.155,2.156c0.741,0.738,1.938,0.738,2.678,0
		C12.812,10.472,12.812,9.272,12.074,8.534z"/>
</g>
<g display="none">
	<path display="inline" d="M13.47,2.511l-1.085-1.084c-0.424-0.425-1.114-0.425-1.538,0L5.423,6.851L3.635,5.065
		c-0.425-0.426-1.113-0.426-1.537,0L1.012,6.149c-0.425,0.426-0.425,1.113,0,1.537l3.438,3.438c0.024,0.027,0.051,0.049,0.078,0.07
		l0.128,0.133c0.427,0.424,1.115,0.424,1.539,0l7.275-7.275C13.896,3.626,13.896,2.937,13.47,2.511z"/>
</g>
<g display="none">
	<path display="inline" d="M14.486,6.182c-0.001-0.031-0.004-0.063-0.004-0.096l-0.001-0.019L14.48,6.052
		c0-0.021-0.001-0.041-0.002-0.062c-0.003-0.044-0.006-0.087-0.009-0.131l-0.001-0.017l-0.002-0.041
		c-0.004-0.048-0.008-0.094-0.013-0.143c-0.001-0.014-0.003-0.027-0.005-0.041c-0.005-0.052-0.012-0.104-0.019-0.155V5.458
		L14.43,5.443c-0.12-0.936-0.42-1.828-0.887-2.649c-0.456-0.802-1.052-1.501-1.771-2.076c-0.015-0.012-0.029-0.022-0.046-0.034
		l-0.007-0.005l-0.002-0.001l-0.003-0.002c-1.288-1.011-2.833-1.545-4.473-1.545c-1.641,0-3.188,0.534-4.474,1.545L2.765,0.678
		L2.753,0.686C2.738,0.696,2.724,0.707,2.711,0.717C1.992,1.293,1.396,1.99,0.939,2.792c-0.468,0.82-0.766,1.711-0.887,2.646
		L0.051,5.451L0.05,5.465c-0.006,0.049-0.012,0.1-0.017,0.149C0.031,5.63,0.03,5.646,0.028,5.662C0.024,5.707,0.02,5.752,0.016,5.8
		C0.015,5.82,0.013,5.842,0.012,5.861C0.008,5.904,0.006,5.945,0.003,5.989C0.002,6.008,0.001,6.028,0.001,6.048L0,6.07
		l-0.001,0.022c-0.001,0.029-0.003,0.06-0.004,0.089c-0.001,0.053-0.001,0.107-0.002,0.162v0.016c0,0.006,0,0.01,0,0.01v0.01
		c0,0,0,0.01,0,0.015c0,0.007,0,0.012,0,0.012c0.001,0.061,0.001,0.113,0.002,0.167c0.001,0.031,0.003,0.062,0.004,0.094L0,6.687
		l0.001,0.027c0,0.017,0.001,0.033,0.002,0.05c0.003,0.044,0.005,0.088,0.01,0.132v0.016l0.003,0.042
		C0.02,7.001,0.024,7.048,0.028,7.095C0.03,7.11,0.031,7.122,0.032,7.137C0.037,7.188,0.044,7.239,0.05,7.292l0.001,0.009
		l0.001,0.01C0.173,8.248,0.471,9.139,0.938,9.96c0.456,0.802,1.052,1.5,1.771,2.077c0.015,0.011,0.031,0.021,0.046,0.032
		l0.006,0.006l0.003,0.001l0.003,0.002c1.286,1.01,2.833,1.544,4.474,1.545c1.64-0.001,3.187-0.535,4.473-1.545l0.003-0.002
		l0.003-0.002l0.009-0.006c0.016-0.012,0.029-0.021,0.042-0.031c0.719-0.575,1.314-1.273,1.771-2.075
		c0.468-0.82,0.768-1.711,0.888-2.646l0.002-0.019l0.001-0.008c0.006-0.05,0.012-0.1,0.017-0.148
		c0.002-0.016,0.005-0.033,0.006-0.049c0.005-0.045,0.009-0.09,0.013-0.137c0.001-0.021,0.002-0.042,0.004-0.063
		c0.002-0.042,0.005-0.084,0.008-0.125c0.001-0.022,0.002-0.043,0.002-0.063l0.001-0.02l0.001-0.021
		c0.002-0.031,0.003-0.061,0.004-0.091c0.001-0.054,0.001-0.107,0.002-0.162c0-0.005,0-0.012,0-0.018V6.379V6.375
		c0,0,0-0.01,0-0.015c0-0.007,0-0.012,0-0.019C14.487,6.289,14.487,6.234,14.486,6.182z M12.671,6.525
		C12.67,6.548,12.67,6.57,12.669,6.593v0.01c-0.001,0.022-0.002,0.044-0.004,0.066c-0.002,0.032-0.003,0.064-0.007,0.095
		c0,0.016-0.001,0.031-0.002,0.045c-0.004,0.036-0.007,0.072-0.011,0.107l-0.002,0.023v0.005c-0.005,0.041-0.01,0.081-0.015,0.121
		v0.003V7.07c-0.153,1.196-0.688,2.285-1.547,3.146c-1.028,1.025-2.393,1.59-3.841,1.59c-1.449,0-2.814-0.564-3.841-1.59
		c-0.883-0.884-1.438-2.05-1.563-3.282L1.836,6.932V6.93C1.832,6.887,1.828,6.844,1.825,6.8L1.823,6.786V6.78
		C1.82,6.741,1.818,6.702,1.815,6.662V6.641L1.814,6.628C1.813,6.592,1.812,6.556,1.812,6.52C1.811,6.502,1.811,6.483,1.811,6.466
		V6.448V6.427C1.809,6.409,1.809,6.393,1.809,6.375c0-0.049,0.002-0.098,0.003-0.146c0-0.02,0.001-0.039,0.001-0.059l0.001-0.018
		C1.814,6.13,1.815,6.106,1.817,6.084c0.001-0.03,0.003-0.063,0.005-0.095c0.001-0.015,0.001-0.03,0.003-0.045
		c0.003-0.036,0.006-0.072,0.011-0.108l0.002-0.027c0.005-0.04,0.01-0.081,0.014-0.121l0.002-0.003
		C2.006,4.486,2.54,3.398,3.4,2.538c1.026-1.026,2.39-1.591,3.841-1.592c1.448,0.001,2.812,0.565,3.841,1.592
		c0.883,0.884,1.438,2.05,1.562,3.283v0.001v0.001c0.005,0.044,0.01,0.087,0.012,0.13l0.001,0.021
		c0.004,0.039,0.006,0.078,0.008,0.118l0.002,0.023l0.001,0.012c0.001,0.035,0.002,0.071,0.003,0.107
		c0.002,0.018,0.002,0.035,0.002,0.054v0.017v0.021c0,0.018,0.001,0.035,0.001,0.053C12.674,6.428,12.673,6.477,12.671,6.525z"/>
	<path display="inline" d="M9.28,5.664H8.039V3.306c0-0.508-0.413-0.92-0.92-0.92S6.2,2.798,6.2,3.306v3.278
		c0,0.508,0.412,0.922,0.919,0.922H9.28c0.508,0,0.921-0.414,0.921-0.922C10.201,6.078,9.788,5.664,9.28,5.664z"/>
</g>
<g id="_x37_57-paper-airplane_x40_2x.png_12_" display="none">
	<g display="inline">
		<path d="M14.821-0.932c0-0.15-0.121-0.271-0.271-0.271c-0.037,0-0.075,0.008-0.107,0.025L-0.175,5.046
			C-0.271,5.086-0.34,5.183-0.34,5.295c0,0.113,0.068,0.213,0.169,0.252L5.68,7.938l2.392,5.852h0.002
			c0.04,0.101,0.138,0.168,0.25,0.168c0.113,0,0.209-0.067,0.247-0.162l0.003-0.005l6.226-14.615l-0.002-0.002
			C14.812-0.86,14.821-0.895,14.821-0.932z M0.634,5.29l12.737-5.426l-7.548,7.55L0.634,5.29z M8.328,12.983L6.204,7.796l7.55-7.548
			L8.328,12.983z"/>
	</g>
</g>
<g id="_x37_08-search_x40_2x.png_16_" display="none">
	<g display="inline">
		<path d="M15.481,14.2l-4.689-4.689c1.117-1.217,1.805-2.836,1.805-4.619c0-3.778-3.062-6.84-6.841-6.84s-6.841,3.062-6.841,6.84
			c0,3.779,3.062,6.842,6.841,6.842c1.783,0,3.401-0.688,4.619-1.807l4.689,4.689c0.115,0.115,0.302,0.115,0.417,0
			C15.596,14.501,15.596,14.315,15.481,14.2z M5.756,11.138c-3.449,0-6.246-2.795-6.246-6.246c0-3.45,2.797-6.246,6.246-6.246
			s6.246,2.796,6.246,6.246C12.002,8.343,9.205,11.138,5.756,11.138z"/>
	</g>
</g>
<path display="none" fill-rule="evenodd" clip-rule="evenodd" d="M7.24-7.224c-7.51,0-13.6,6.089-13.6,13.601
	c0,7.511,6.09,13.601,13.6,13.601c7.512,0,13.602-6.09,13.602-13.601C20.842-1.135,14.752-7.224,7.24-7.224z M14.616,3.431
	l-8.322,8.322C6.011,12.036,5.62,12.21,5.19,12.21c-0.432,0-0.822-0.174-1.104-0.457l-4.682-4.682
	C-0.878,6.79-1.052,6.399-1.052,5.968c0-0.861,0.699-1.561,1.561-1.561c0.43,0,0.82,0.176,1.104,0.457L5.19,8.442l7.219-7.219
	c0.281-0.281,0.672-0.457,1.104-0.457c0.861,0,1.561,0.699,1.561,1.561C15.073,2.759,14.897,3.147,14.616,3.431z"/>
<g display="none">
	<path display="inline" d="M29.476,4.765c-0.734-2.916-4.383-6.652-8.777-6.652c-0.145,0-0.287,0.004-0.43,0.008
		C18.29-6.196,13.192-9.706,7.216-9.706c-5.986,0-11.09,4.389-13.061,8.717c-0.283-0.02-0.57-0.029-0.861-0.029
		c-4.422,0-8.088,2.244-8.791,5.184c-2.875,0.439-5.078,3.572-5.078,6.568v1.41c0,3.305,2.682,5.986,5.986,5.986H3.245v-2.404
		h-4.332c-0.572-0.008-1.131-0.199-1.527-0.705c-0.18-0.234-0.293-0.539-0.291-0.852c-0.002-0.359,0.146-0.703,0.371-0.949
		l8.33-9.34c0.396-0.43,0.914-0.6,1.445-0.604C7.774,3.28,8.292,3.45,8.688,3.88l8.328,9.34c0.227,0.246,0.375,0.592,0.373,0.949
		c0,0.312-0.111,0.617-0.291,0.852c-0.396,0.506-0.957,0.697-1.527,0.705h-4.334v2.404h17.836c3.305,0,5.984-2.682,5.984-5.986
		v-1.41C35.058,7.563,32.593,4.972,29.476,4.765z"/>
	<path display="inline" d="M7.401,5.048C7.397,5.046,7.39,5.042,7.378,5.036c-0.029-0.01-0.082-0.023-0.137-0.023
		C7.167,5.011,7.101,5.036,7.083,5.048l-7.975,8.939h5.875v8.4c0.053,0.031,0.166,0.074,0.303,0.072h3.91
		c0.102,0,0.189-0.021,0.25-0.047c0.023-0.01,0.039-0.018,0.053-0.025v-8.4h5.875L7.401,5.048z"/>
</g>
<g>
	<g>
		<path d="M5.769,11.394c-3.141,0-5.697-2.556-5.697-5.695C0.071,2.557,2.628,0,5.769,0s5.696,2.557,5.696,5.698
			C11.465,8.838,8.909,11.394,5.769,11.394z M5.769,1.921c-2.083,0-3.776,1.693-3.776,3.777c0,2.081,1.693,3.774,3.776,3.774
			c2.082,0,3.775-1.693,3.775-3.774C9.544,3.614,7.851,1.921,5.769,1.921z"/>
	</g>
	<g>
		<path d="M13.45,12.754c-0.191,0-0.383-0.056-0.549-0.173l-4.18-2.916C8.286,9.362,8.18,8.763,8.483,8.328
			C8.786,7.894,9.383,7.786,9.819,8.09l4.182,2.916c0.434,0.304,0.541,0.902,0.237,1.337C14.052,12.61,13.753,12.754,13.45,12.754z"
			/>
	</g>
</g>
</svg>
