<?xml version="1.0" encoding="utf-8"?>
<!-- Generator: Adobe Illustrator 16.0.0, SVG Export Plug-In . SVG Version: 6.00 Build 0)  -->
<!DOCTYPE svg PUBLIC "-//W3C//DTD SVG 1.1//EN" "http://www.w3.org/Graphics/SVG/1.1/DTD/svg11.dtd">
<svg version="1.1" id="Layer_1" xmlns="http://www.w3.org/2000/svg" xmlns:xlink="http://www.w3.org/1999/xlink" x="0px" y="0px"
	 width="16.652px" height="16.651px" viewBox="0 0 16.652 16.651" enable-background="new 0 0 16.652 16.651" xml:space="preserve">
<path display="none" d="M9.618,8.737v0.801c0.145,0.063,0.312,0.138,0.499,0.22c0.188,0.081,0.38,0.167,0.579,0.253
	c0.199,0.088,0.4,0.174,0.604,0.262c0.202,0.086,0.396,0.166,0.578,0.242c0.182,0.074,0.347,0.143,0.492,0.202
	c0.147,0.06,0.266,0.106,0.356,0.138c0.192,0.068,0.349,0.171,0.467,0.312c0.12,0.14,0.212,0.28,0.281,0.428
	c0.081,0.169,0.14,0.347,0.177,0.534v0.869H3.001v-0.869c0.041-0.188,0.102-0.365,0.185-0.534c0.068-0.147,0.161-0.288,0.28-0.428
	c0.119-0.141,0.271-0.243,0.459-0.312c0.096-0.031,0.221-0.079,0.377-0.142c0.156-0.062,0.33-0.133,0.521-0.212
	c0.19-0.078,0.394-0.166,0.605-0.258c0.212-0.09,0.423-0.182,0.633-0.273c0.212-0.092,0.409-0.177,0.596-0.26
	c0.188-0.083,0.354-0.156,0.494-0.219V8.709C7.144,8.672,7.128,8.618,7.106,8.541C7.086,8.465,7.064,8.39,7.042,8.312
	c-0.027-0.091-0.06-0.189-0.096-0.295C6.813,7.771,6.709,7.492,6.63,7.178C6.554,6.865,6.515,6.533,6.515,6.182
	c0-0.461,0.048-0.853,0.147-1.171c0.099-0.32,0.23-0.58,0.4-0.781c0.169-0.201,0.366-0.348,0.593-0.438
	C7.882,3.7,8.125,3.655,8.384,3.655c0.257,0,0.498,0.043,0.723,0.133C9.333,3.876,9.531,4.02,9.702,4.219
	C9.874,4.417,10.009,4.678,10.107,5c0.098,0.321,0.147,0.716,0.147,1.182c0,0.343-0.038,0.667-0.113,0.975
	c-0.076,0.31-0.18,0.587-0.312,0.834C9.793,8.104,9.759,8.212,9.727,8.312C9.7,8.399,9.675,8.482,9.651,8.561
	C9.628,8.642,9.618,8.7,9.618,8.737z"/>
<polygon display="none" points="12.457,5.34 8.326,11.311 4.195,5.34 "/>
<g display="none">
	<path display="inline" d="M4.919-0.296c1.61,1.306,1.887,2.828,2.55,3.419c0.194,0.175,0.246,0.015,0.719,0.015
		c0.387,0,0.474,0.171,0.658,0.019c0.692-0.571,1.081-2.073,2.637-3.369c0.729-0.607,0.115-0.841-0.881-0.93
		c-0.72-0.065-1.148,0.684-1.907,0.684c-0.704,0-2.122-0.827-2.815-0.775C4.785-1.152,4.145-0.924,4.919-0.296z"/>
	<path display="inline" d="M8.326,3.547c-3.683,0-6.668,5.898-6.668,9.105c0,3.208,2.985,5.235,6.668,5.235
		c3.684,0,6.668-2.027,6.668-5.235C14.994,9.446,12.01,3.547,8.326,3.547z M8.73,13.522l0.022,0.97
		c0.005,0.15-0.047,0.217-0.188,0.222l-0.473,0.02c-0.14,0.007-0.206-0.058-0.212-0.207l-0.023-0.959
		c-1.125-0.082-1.67-0.63-1.688-1.224L6.16,12.075c-0.003-0.131,0.048-0.197,0.178-0.2l0.57-0.02
		C7.05,11.85,7.094,11.914,7.1,12.042l0.007,0.227c0.013,0.389,0.43,0.559,1.119,0.537c0.681-0.021,1.097-0.22,1.084-0.608
		L9.3,11.907c-0.008-0.26-0.229-0.392-0.589-0.499l-1.637-0.509c-0.404-0.126-0.861-0.524-0.879-1.063L6.184,9.437
		c-0.02-0.584,0.42-1.18,1.496-1.344L7.656,7.125C7.651,6.973,7.714,6.907,7.854,6.902l0.475-0.021
		c0.141-0.005,0.195,0.058,0.199,0.21l0.024,0.968c1.042,0.117,1.52,0.678,1.538,1.25l0.009,0.259
		c0.005,0.141-0.036,0.196-0.188,0.201L9.35,9.787C9.22,9.792,9.164,9.74,9.16,9.598L9.151,9.339
		C9.138,8.952,8.775,8.779,8.106,8.801C7.449,8.824,7.109,9.017,7.121,9.406l0.006,0.184c0.009,0.281,0.275,0.423,0.471,0.482
		l1.638,0.508c0.6,0.185,0.987,0.519,1.005,1.027l0.02,0.604C10.279,12.792,9.772,13.348,8.73,13.522z"/>
</g>
<path display="none" fill-rule="evenodd" clip-rule="evenodd" d="M13.18,0.053H3.472c-1.879,0-3.418,1.539-3.418,3.419v9.707
	c0,1.881,1.539,3.419,3.418,3.419h9.708c1.88,0,3.419-1.538,3.419-3.419V3.472C16.599,1.592,15.06,0.053,13.18,0.053z M13.419,5.957
	l-6.131,6.131c-0.154,0.154-0.404,0.154-0.558,0l-0.124-0.125v0.001l-0.133-0.133l-0.578-0.579c-0.004-0.003-0.006-0.01-0.009-0.013
	L3.235,8.568c-0.154-0.154-0.154-0.403,0-0.558l0.836-0.835c0.153-0.155,0.402-0.155,0.557,0l2.385,2.401l5.012-5.013
	c0.154-0.154,0.404-0.154,0.558,0l0.837,0.837C13.571,5.553,13.571,5.803,13.419,5.957z"/>
<g display="none">
	<path display="inline" fill-rule="evenodd" clip-rule="evenodd" d="M15.24,2.069h-2.634V0.094h-1.317v1.975H5.361V0.094H4.046
		v1.975H1.411c-0.363,0-0.658,0.296-0.658,0.657v1.318h15.146V2.726C15.898,2.365,15.604,2.069,15.24,2.069z"/>
	<path display="inline" fill-rule="evenodd" clip-rule="evenodd" d="M0.753,15.899c0,0.363,0.295,0.658,0.658,0.658H15.24
		c0.364,0,0.658-0.295,0.658-0.658V4.703H0.753V15.899z M11.948,6.02h2.635v2.635h-2.635V6.02z M11.948,9.312h2.635v2.635h-2.635
		V9.312z M11.948,12.606h2.635v2.634h-2.635V12.606z M8.654,6.02h2.635v2.635H8.654V6.02z M8.654,9.312h2.635v2.635H8.654V9.312z
		 M8.654,12.606h2.635v2.634H8.654V12.606z M5.361,6.02h2.634v2.635H5.361V6.02z M5.361,9.312h2.634v2.635H5.361V9.312z
		 M5.361,12.606h2.634v2.634H5.361V12.606z M2.069,6.02h2.635v2.635H2.069V6.02z M2.069,9.312h2.635v2.635H2.069V9.312z
		 M2.069,12.606h2.635v2.634H2.069V12.606z"/>
</g>
<g display="none">
	<path display="inline" d="M7.511,9.075c0,0,0.027-8.888,0.006-8.888c-4.631,0-8.199,4.037-8.199,8.754s3.824,8.413,8.541,8.413
		s8.541-3.526,8.541-8.242C16.399,9.072,7.511,9.075,7.511,9.075z"/>
	<path display="inline" d="M17.335,7.761c0-4.517-4.029-8.464-8.546-8.464c0.062,0,0,8.464,0,8.464S17.335,7.787,17.335,7.761z"/>
</g>
<path display="none" fill-rule="evenodd" clip-rule="evenodd" d="M11.816,7.647l5.854-5.67c0.166,0.163,0.271,0.39,0.271,0.641
	v11.416c0,0.237-0.094,0.452-0.244,0.613L11.816,7.647z M-0.989,1.951c0.16-0.145,0.37-0.235,0.603-0.235h17.425
	c0.232,0,0.441,0.091,0.602,0.235L8.326,9.227L-0.989,1.951z M-1.046,14.647c-0.149-0.161-0.242-0.376-0.242-0.613V2.618
	c0-0.251,0.103-0.478,0.269-0.641l5.854,5.67L-1.046,14.647z M8.326,11.03l2.444-2.367l6.887,6.025
	c-0.162,0.154-0.379,0.248-0.619,0.248H-0.387c-0.241,0-0.456-0.094-0.618-0.248l6.886-6.025L8.326,11.03z"/>
<polygon display="none" points="12.092,4.338 6.775,9.656 4.561,7.439 3.23,8.769 5.445,10.984 5.445,10.984 6.775,12.313 
	13.422,5.667 "/>
<g display="none">
	<g display="inline">
		<path d="M8.325,13.188c-0.42,0-0.762-0.341-0.762-0.762V4.225c0-0.421,0.342-0.762,0.762-0.762s0.762,0.341,0.762,0.762v8.201
			C9.087,12.847,8.745,13.188,8.325,13.188z"/>
	</g>
	<g display="inline">
		<path d="M12.427,9.088H4.226c-0.421,0-0.762-0.342-0.762-0.762c0-0.421,0.341-0.762,0.762-0.762h8.201
			c0.42,0,0.762,0.341,0.762,0.762C13.188,8.747,12.847,9.088,12.427,9.088z"/>
	</g>
</g>
<g display="none">
	<g display="inline">
		<path d="M12.427,9.087H4.226c-0.421,0-0.762-0.341-0.762-0.762s0.341-0.762,0.762-0.762h8.201c0.42,0,0.762,0.341,0.762,0.762
			S12.847,9.087,12.427,9.087z"/>
	</g>
</g>
<g display="none">
	<path display="inline" d="M13.159,10.483l-2.157-2.156l2.157-2.158c0.738-0.738,0.738-1.936,0-2.674
		c-0.74-0.737-1.937-0.739-2.678,0L8.326,5.65L6.169,3.494c-0.739-0.739-1.936-0.739-2.674,0c-0.74,0.738-0.74,1.937,0,2.674
		l2.156,2.158l-2.156,2.156c-0.74,0.738-0.74,1.938,0,2.676c0.738,0.738,1.935,0.738,2.674,0l2.157-2.156l2.155,2.156
		c0.741,0.738,1.938,0.738,2.678,0C13.897,12.42,13.897,11.221,13.159,10.483z"/>
</g>
<g display="none">
	<path display="inline" d="M14.555,4.46L13.47,3.376c-0.424-0.425-1.114-0.425-1.538,0L6.508,8.799L4.72,7.014
		c-0.425-0.426-1.113-0.426-1.537,0L2.097,8.098c-0.425,0.426-0.425,1.113,0,1.537l3.438,3.438c0.024,0.027,0.051,0.049,0.078,0.07
		l0.128,0.133c0.427,0.424,1.115,0.424,1.539,0L14.555,6C14.98,5.575,14.98,4.886,14.555,4.46z"/>
</g>
<g display="none">
	<path display="inline" d="M15.571,8.13c-0.001-0.031-0.004-0.063-0.004-0.096l-0.001-0.019L15.565,8
		c0-0.021-0.001-0.041-0.002-0.062c-0.003-0.044-0.006-0.087-0.009-0.131l-0.001-0.017L15.552,7.75
		c-0.004-0.048-0.008-0.094-0.013-0.143c-0.001-0.014-0.003-0.027-0.005-0.041c-0.005-0.052-0.012-0.104-0.019-0.155V7.407
		l-0.001-0.015c-0.12-0.936-0.42-1.828-0.887-2.649c-0.456-0.802-1.052-1.501-1.771-2.076c-0.015-0.012-0.029-0.022-0.046-0.034
		l-0.007-0.005l-0.002-0.001l-0.003-0.002C11.511,1.614,9.966,1.08,8.326,1.08c-1.641,0-3.188,0.534-4.474,1.545L3.85,2.626
		L3.838,2.634C3.823,2.645,3.809,2.656,3.796,2.666C3.077,3.242,2.48,3.939,2.024,4.741c-0.468,0.82-0.766,1.711-0.887,2.646
		L1.136,7.4L1.135,7.414c-0.006,0.049-0.012,0.1-0.017,0.149C1.116,7.579,1.115,7.594,1.113,7.611
		c-0.004,0.045-0.009,0.09-0.013,0.138C1.1,7.769,1.098,7.791,1.097,7.81C1.093,7.853,1.091,7.894,1.088,7.938
		C1.087,7.957,1.086,7.977,1.086,7.997L1.085,8.019L1.084,8.042C1.083,8.071,1.081,8.101,1.08,8.13
		C1.079,8.183,1.079,8.238,1.078,8.292v0.016c0,0.006,0,0.01,0,0.01v0.01c0,0,0,0.01,0,0.015c0,0.007,0,0.012,0,0.012
		C1.079,8.415,1.079,8.467,1.08,8.521c0.001,0.031,0.003,0.062,0.004,0.094l0.001,0.021l0.001,0.027c0,0.017,0.001,0.033,0.002,0.05
		C1.091,8.756,1.093,8.8,1.098,8.844V8.86l0.003,0.042C1.104,8.95,1.109,8.997,1.113,9.043c0.002,0.016,0.003,0.027,0.004,0.042
		c0.005,0.052,0.012,0.103,0.018,0.155L1.136,9.25l0.001,0.01c0.121,0.938,0.419,1.828,0.887,2.649
		c0.456,0.802,1.052,1.5,1.771,2.077c0.015,0.011,0.031,0.021,0.046,0.032l0.006,0.006l0.003,0.001l0.003,0.002
		c1.286,1.01,2.833,1.544,4.474,1.545c1.64-0.001,3.187-0.535,4.473-1.545l0.003-0.002l0.003-0.002l0.009-0.006
		c0.016-0.012,0.029-0.021,0.042-0.031c0.719-0.575,1.314-1.273,1.771-2.075c0.468-0.82,0.768-1.711,0.888-2.646l0.002-0.019
		l0.001-0.008c0.006-0.05,0.012-0.1,0.017-0.148c0.002-0.016,0.005-0.033,0.006-0.049c0.005-0.045,0.009-0.09,0.013-0.137
		c0.001-0.021,0.002-0.042,0.004-0.063c0.002-0.042,0.005-0.084,0.008-0.125c0.001-0.022,0.002-0.043,0.002-0.063l0.001-0.02
		l0.001-0.021c0.002-0.031,0.003-0.061,0.004-0.091c0.001-0.054,0.001-0.107,0.002-0.162c0-0.005,0-0.012,0-0.018V8.328V8.324
		c0,0,0-0.01,0-0.015c0-0.007,0-0.012,0-0.019C15.572,8.238,15.572,8.183,15.571,8.13z M13.756,8.474
		c-0.001,0.022-0.001,0.045-0.002,0.067v0.01c-0.001,0.022-0.002,0.044-0.004,0.066c-0.002,0.032-0.003,0.064-0.007,0.095
		c0,0.016-0.001,0.031-0.002,0.045c-0.004,0.036-0.007,0.072-0.011,0.107l-0.002,0.023v0.005c-0.005,0.041-0.01,0.081-0.015,0.121
		v0.003v0.002c-0.153,1.196-0.688,2.285-1.547,3.146c-1.028,1.025-2.393,1.59-3.841,1.59c-1.449,0-2.814-0.564-3.841-1.59
		c-0.883-0.884-1.438-2.05-1.563-3.282L2.921,8.88V8.878C2.917,8.835,2.913,8.792,2.91,8.749L2.908,8.735V8.729
		C2.905,8.69,2.903,8.651,2.9,8.611V8.589L2.899,8.577C2.898,8.541,2.896,8.504,2.896,8.468C2.896,8.451,2.896,8.432,2.896,8.415
		V8.397V8.375C2.894,8.358,2.894,8.341,2.894,8.324c0-0.049,0.002-0.098,0.003-0.146c0-0.02,0.001-0.039,0.001-0.059l0.001-0.018
		C2.899,8.079,2.9,8.055,2.902,8.033c0.001-0.03,0.003-0.063,0.005-0.095c0.001-0.015,0.001-0.03,0.003-0.045
		c0.003-0.036,0.006-0.072,0.011-0.108l0.002-0.027c0.005-0.04,0.01-0.081,0.014-0.121l0.002-0.003
		c0.152-1.198,0.687-2.286,1.547-3.146c1.026-1.026,2.39-1.591,3.841-1.592c1.448,0.001,2.812,0.565,3.841,1.592
		c0.883,0.884,1.438,2.05,1.562,3.283v0.001v0.001c0.005,0.044,0.01,0.087,0.012,0.13l0.001,0.021
		C13.746,7.961,13.748,8,13.75,8.041l0.002,0.023l0.001,0.012c0.001,0.035,0.002,0.071,0.003,0.107
		c0.002,0.018,0.002,0.035,0.002,0.054v0.017v0.021c0,0.018,0.001,0.035,0.001,0.053C13.759,8.376,13.758,8.425,13.756,8.474z"/>
	<path display="inline" d="M10.365,7.613H9.124V5.254c0-0.508-0.413-0.92-0.92-0.92s-0.919,0.412-0.919,0.92v3.278
		c0,0.508,0.412,0.922,0.919,0.922h2.161c0.508,0,0.921-0.414,0.921-0.922C11.286,8.027,10.873,7.613,10.365,7.613z"/>
</g>
<g id="_x37_57-paper-airplane_x40_2x.png_12_" display="none">
	<g display="inline">
		<path d="M15.906,1.017c0-0.15-0.121-0.271-0.271-0.271c-0.037,0-0.075,0.008-0.107,0.025L0.91,6.995
			c-0.097,0.04-0.165,0.137-0.165,0.249c0,0.113,0.068,0.213,0.169,0.252l5.851,2.391l2.392,5.852h0.002
			c0.04,0.101,0.138,0.168,0.25,0.168c0.113,0,0.209-0.067,0.247-0.162l0.003-0.005l6.226-14.615l-0.002-0.002
			C15.896,1.088,15.906,1.054,15.906,1.017z M1.719,7.239l12.737-5.426l-7.548,7.55L1.719,7.239z M9.413,14.932L7.289,9.745
			l7.55-7.548L9.413,14.932z"/>
	</g>
</g>
<g id="_x37_08-search_x40_2x.png_16_">
	<g>
		<path d="M16.566,16.149l-4.689-4.689c1.117-1.217,1.805-2.836,1.805-4.619c0-3.778-3.062-6.84-6.841-6.84S0,3.062,0,6.84
			c0,3.779,3.062,6.842,6.841,6.842c1.783,0,3.401-0.688,4.619-1.807l4.689,4.689c0.115,0.115,0.302,0.115,0.417,0
			C16.681,16.45,16.681,16.264,16.566,16.149z M6.841,13.086c-3.449,0-6.246-2.795-6.246-6.246c0-3.45,2.797-6.246,6.246-6.246
			s6.246,2.796,6.246,6.246C13.087,10.292,10.29,13.086,6.841,13.086z"/>
	</g>
</g>
<path display="none" fill-rule="evenodd" clip-rule="evenodd" d="M8.325-5.275c-7.51,0-13.6,6.089-13.6,13.601
	c0,7.511,6.09,13.601,13.6,13.601c7.512,0,13.602-6.09,13.602-13.601C21.927,0.814,15.837-5.275,8.325-5.275z M15.701,5.379
	l-8.322,8.322c-0.283,0.283-0.674,0.457-1.104,0.457c-0.432,0-0.822-0.174-1.104-0.457L0.49,9.02
	C0.207,8.739,0.033,8.348,0.033,7.917c0-0.861,0.699-1.561,1.561-1.561c0.43,0,0.82,0.176,1.104,0.457l3.578,3.578l7.219-7.219
	c0.281-0.281,0.672-0.457,1.104-0.457c0.861,0,1.561,0.699,1.561,1.561C16.158,4.708,15.982,5.096,15.701,5.379z"/>
<g display="none">
	<path display="inline" d="M30.561,6.713c-0.734-2.916-4.383-6.652-8.777-6.652c-0.145,0-0.287,0.004-0.43,0.008
		c-1.979-4.316-7.076-7.826-13.053-7.826c-5.986,0-11.09,4.389-13.061,8.717C-5.043,0.94-5.33,0.93-5.621,0.93
		c-4.422,0-8.088,2.244-8.791,5.184c-2.875,0.439-5.078,3.572-5.078,6.568v1.41c0,3.305,2.682,5.986,5.986,5.986H4.33v-2.404h-4.332
		c-0.572-0.008-1.131-0.199-1.527-0.705c-0.18-0.234-0.293-0.539-0.291-0.852c-0.002-0.359,0.146-0.703,0.371-0.949l8.33-9.34
		c0.396-0.43,0.914-0.6,1.445-0.604c0.533,0.004,1.051,0.174,1.447,0.604l8.328,9.34c0.227,0.246,0.375,0.592,0.373,0.949
		c0,0.312-0.111,0.617-0.291,0.852c-0.396,0.506-0.957,0.697-1.527,0.705h-4.334v2.404h17.836c3.305,0,5.984-2.682,5.984-5.986
		v-1.41C36.143,9.512,33.678,6.92,30.561,6.713z"/>
	<path display="inline" d="M8.486,6.997C8.482,6.995,8.475,6.991,8.463,6.985c-0.029-0.01-0.082-0.023-0.137-0.023
		C8.252,6.959,8.186,6.985,8.168,6.997l-7.975,8.939h5.875v8.4c0.053,0.031,0.166,0.074,0.303,0.072h3.91
		c0.102,0,0.189-0.021,0.25-0.047c0.023-0.01,0.039-0.018,0.053-0.025v-8.4h5.875L8.486,6.997z"/>
</g>
<g display="none">
	<g display="inline">
		<path d="M6.854,13.342c-3.141,0-5.697-2.556-5.697-5.695c0-3.142,2.557-5.698,5.697-5.698s5.696,2.557,5.696,5.698
			C12.55,10.787,9.994,13.342,6.854,13.342z M6.854,3.87c-2.083,0-3.776,1.693-3.776,3.777c0,2.081,1.693,3.774,3.776,3.774
			c2.082,0,3.775-1.693,3.775-3.774C10.629,5.563,8.936,3.87,6.854,3.87z"/>
	</g>
	<g display="inline">
		<path d="M14.535,14.703c-0.191,0-0.383-0.056-0.549-0.173l-4.18-2.916c-0.436-0.303-0.542-0.902-0.238-1.337
			c0.303-0.435,0.899-0.542,1.336-0.238l4.182,2.916c0.434,0.304,0.541,0.902,0.237,1.337
			C15.137,14.559,14.838,14.703,14.535,14.703z"/>
	</g>
</g>
</svg>
