<?xml version="1.0" encoding="utf-8"?>
<!-- Generator: Adobe Illustrator 16.0.0, SVG Export Plug-In . SVG Version: 6.00 Build 0)  -->
<!DOCTYPE svg PUBLIC "-//W3C//DTD SVG 1.1//EN" "http://www.w3.org/Graphics/SVG/1.1/DTD/svg11.dtd">
<svg version="1.1" id="Layer_1" xmlns="http://www.w3.org/2000/svg" xmlns:xlink="http://www.w3.org/1999/xlink" x="0px" y="0px"
	 width="55.633px" height="32.166px" viewBox="0 0 55.633 32.166" enable-background="new 0 0 55.633 32.166" xml:space="preserve">
<path display="none" d="M29.108,16.494v0.801c0.145,0.063,0.312,0.138,0.499,0.22c0.188,0.081,0.38,0.167,0.579,0.253
	c0.199,0.088,0.4,0.174,0.604,0.262c0.202,0.086,0.396,0.166,0.578,0.242c0.182,0.074,0.347,0.143,0.492,0.202
	c0.147,0.06,0.266,0.106,0.356,0.138c0.192,0.068,0.349,0.171,0.467,0.312c0.12,0.14,0.212,0.28,0.281,0.428
	c0.081,0.169,0.14,0.347,0.177,0.534v0.869h-10.65v-0.869c0.041-0.188,0.102-0.365,0.185-0.534c0.068-0.147,0.161-0.288,0.28-0.428
	c0.119-0.141,0.271-0.243,0.459-0.312c0.096-0.031,0.221-0.079,0.377-0.142c0.156-0.062,0.33-0.133,0.521-0.212
	c0.19-0.078,0.394-0.166,0.605-0.258c0.212-0.09,0.423-0.182,0.633-0.273c0.212-0.092,0.409-0.177,0.596-0.26
	c0.188-0.083,0.354-0.156,0.494-0.219v-0.781c-0.008-0.037-0.023-0.092-0.045-0.169c-0.021-0.075-0.042-0.15-0.064-0.229
	c-0.027-0.091-0.06-0.189-0.096-0.295c-0.133-0.246-0.237-0.525-0.316-0.839c-0.076-0.313-0.115-0.646-0.115-0.996
	c0-0.461,0.048-0.853,0.147-1.171c0.099-0.32,0.23-0.58,0.4-0.781c0.169-0.201,0.366-0.348,0.593-0.438
	c0.227-0.092,0.47-0.137,0.729-0.137c0.257,0,0.498,0.043,0.723,0.133c0.227,0.089,0.425,0.232,0.596,0.432
	c0.172,0.198,0.307,0.459,0.405,0.781c0.098,0.321,0.147,0.716,0.147,1.182c0,0.343-0.038,0.667-0.113,0.975
	c-0.076,0.31-0.18,0.587-0.312,0.834c-0.037,0.113-0.071,0.222-0.104,0.321c-0.026,0.087-0.052,0.17-0.075,0.249
	C29.118,16.399,29.108,16.457,29.108,16.494z"/>
<polygon display="none" points="31.947,13.098 27.816,19.068 23.686,13.098 "/>
<g display="none">
	<path display="inline" d="M24.409,7.461c1.61,1.306,1.887,2.828,2.55,3.419c0.194,0.175,0.246,0.015,0.719,0.015
		c0.387,0,0.474,0.171,0.658,0.019c0.692-0.571,1.081-2.073,2.637-3.369c0.729-0.607,0.115-0.841-0.881-0.93
		c-0.72-0.065-1.148,0.684-1.907,0.684c-0.704,0-2.122-0.827-2.815-0.775C24.275,6.605,23.635,6.833,24.409,7.461z"/>
	<path display="inline" d="M27.816,11.305c-3.683,0-6.668,5.898-6.668,9.105c0,3.208,2.985,5.235,6.668,5.235
		c3.684,0,6.668-2.027,6.668-5.235C34.484,17.203,31.5,11.305,27.816,11.305z M28.221,21.279l0.022,0.97
		c0.005,0.15-0.047,0.217-0.188,0.222l-0.473,0.02c-0.14,0.007-0.206-0.058-0.212-0.207l-0.023-0.959
		c-1.125-0.082-1.67-0.63-1.688-1.224l-0.009-0.269c-0.003-0.131,0.048-0.197,0.178-0.2l0.57-0.02
		c0.142-0.005,0.186,0.059,0.191,0.188l0.007,0.227c0.013,0.389,0.43,0.559,1.119,0.537c0.681-0.021,1.097-0.22,1.084-0.608
		l-0.01-0.291c-0.008-0.26-0.229-0.392-0.589-0.499l-1.637-0.509c-0.404-0.126-0.861-0.524-0.879-1.063l-0.012-0.398
		c-0.02-0.584,0.42-1.18,1.496-1.344l-0.023-0.969c-0.005-0.151,0.058-0.218,0.197-0.223l0.475-0.021
		c0.141-0.005,0.195,0.058,0.199,0.21l0.024,0.968c1.042,0.117,1.52,0.678,1.538,1.25l0.009,0.259
		c0.005,0.141-0.036,0.196-0.188,0.201l-0.561,0.018c-0.13,0.005-0.186-0.047-0.189-0.188l-0.009-0.259
		c-0.014-0.388-0.376-0.561-1.045-0.538c-0.657,0.022-0.997,0.216-0.985,0.604l0.006,0.184c0.009,0.281,0.275,0.423,0.471,0.482
		l1.638,0.508c0.6,0.185,0.987,0.519,1.005,1.027l0.02,0.604C29.77,20.55,29.263,21.105,28.221,21.279z"/>
</g>
<path display="none" fill-rule="evenodd" clip-rule="evenodd" d="M32.67,7.811h-9.708c-1.879,0-3.418,1.539-3.418,3.419v9.707
	c0,1.881,1.539,3.419,3.418,3.419h9.708c1.88,0,3.419-1.538,3.419-3.419v-9.707C36.089,9.35,34.55,7.811,32.67,7.811z
	 M32.909,13.714l-6.131,6.131c-0.154,0.154-0.404,0.154-0.558,0l-0.124-0.125v0.001l-0.133-0.133l-0.578-0.579
	c-0.004-0.003-0.006-0.01-0.009-0.013l-2.651-2.671c-0.154-0.154-0.154-0.403,0-0.558l0.836-0.835c0.153-0.155,0.402-0.155,0.557,0
	l2.385,2.401l5.012-5.013c0.154-0.154,0.404-0.154,0.558,0l0.837,0.837C33.062,13.311,33.062,13.561,32.909,13.714z"/>
<g display="none">
	<path display="inline" fill-rule="evenodd" clip-rule="evenodd" d="M34.73,9.826h-2.634V7.852h-1.317v1.975h-5.928V7.852h-1.315
		v1.975h-2.635c-0.363,0-0.658,0.296-0.658,0.657v1.318h15.146v-1.318C35.389,10.122,35.095,9.826,34.73,9.826z"/>
	<path display="inline" fill-rule="evenodd" clip-rule="evenodd" d="M20.243,23.656c0,0.363,0.295,0.658,0.658,0.658H34.73
		c0.364,0,0.658-0.295,0.658-0.658V12.46H20.243V23.656z M31.438,13.777h2.635v2.635h-2.635V13.777z M31.438,17.069h2.635v2.635
		h-2.635V17.069z M31.438,20.363h2.635v2.634h-2.635V20.363z M28.145,13.777h2.635v2.635h-2.635V13.777z M28.145,17.069h2.635v2.635
		h-2.635V17.069z M28.145,20.363h2.635v2.634h-2.635V20.363z M24.852,13.777h2.634v2.635h-2.634V13.777z M24.852,17.069h2.634v2.635
		h-2.634V17.069z M24.852,20.363h2.634v2.634h-2.634V20.363z M21.56,13.777h2.635v2.635H21.56V13.777z M21.56,17.069h2.635v2.635
		H21.56V17.069z M21.56,20.363h2.635v2.634H21.56V20.363z"/>
</g>
<g display="none">
	<path display="inline" d="M27.001,16.832c0,0,0.027-8.888,0.006-8.888c-4.631,0-8.199,4.037-8.199,8.754s3.824,8.413,8.541,8.413
		s8.541-3.526,8.541-8.242C35.89,16.829,27.001,16.832,27.001,16.832z"/>
	<path display="inline" d="M36.825,15.519c0-4.517-4.029-8.464-8.546-8.464c0.062,0,0,8.464,0,8.464S36.825,15.544,36.825,15.519z"
		/>
</g>
<path display="none" fill-rule="evenodd" clip-rule="evenodd" d="M31.307,15.404l5.854-5.67c0.166,0.163,0.271,0.39,0.271,0.641
	v11.416c0,0.237-0.094,0.452-0.244,0.613L31.307,15.404z M18.501,9.708c0.16-0.145,0.37-0.235,0.603-0.235h17.425
	c0.232,0,0.441,0.091,0.602,0.235l-9.313,7.276L18.501,9.708z M18.444,22.404c-0.149-0.161-0.242-0.376-0.242-0.613V10.375
	c0-0.251,0.103-0.478,0.269-0.641l5.854,5.67L18.444,22.404z M27.816,18.787l2.444-2.367l6.887,6.025
	c-0.162,0.154-0.379,0.248-0.619,0.248H19.104c-0.241,0-0.456-0.094-0.618-0.248l6.886-6.025L27.816,18.787z"/>
<polygon display="none" points="31.582,12.096 26.266,17.413 24.051,15.196 22.721,16.526 24.936,18.741 24.936,18.741 
	26.266,20.07 32.912,13.425 "/>
<g display="none">
	<g display="inline">
		<path d="M27.815,20.945c-0.42,0-0.762-0.341-0.762-0.762v-8.201c0-0.421,0.342-0.762,0.762-0.762s0.762,0.341,0.762,0.762v8.201
			C28.577,20.604,28.235,20.945,27.815,20.945z"/>
	</g>
	<g display="inline">
		<path d="M31.917,16.846h-8.201c-0.421,0-0.762-0.342-0.762-0.762c0-0.421,0.341-0.762,0.762-0.762h8.201
			c0.42,0,0.762,0.341,0.762,0.762C32.679,16.504,32.337,16.846,31.917,16.846z"/>
	</g>
</g>
<g display="none">
	<g display="inline">
		<path d="M31.917,16.845h-8.201c-0.421,0-0.762-0.341-0.762-0.762s0.341-0.762,0.762-0.762h8.201c0.42,0,0.762,0.341,0.762,0.762
			S32.337,16.845,31.917,16.845z"/>
	</g>
</g>
<g display="none">
	<path display="inline" d="M32.649,18.24l-2.157-2.156l2.157-2.158c0.738-0.738,0.738-1.936,0-2.674
		c-0.74-0.737-1.937-0.739-2.678,0l-2.155,2.156l-2.157-2.156c-0.739-0.739-1.936-0.739-2.674,0c-0.74,0.738-0.74,1.937,0,2.674
		l2.156,2.158l-2.156,2.156c-0.74,0.738-0.74,1.938,0,2.676c0.738,0.738,1.935,0.738,2.674,0l2.157-2.156l2.155,2.156
		c0.741,0.738,1.938,0.738,2.678,0C33.388,20.178,33.388,18.979,32.649,18.24z"/>
</g>
<g display="none">
	<path display="inline" d="M34.045,12.217l-1.085-1.084c-0.424-0.425-1.114-0.425-1.538,0l-5.424,5.423l-1.788-1.785
		c-0.425-0.426-1.113-0.426-1.537,0l-1.086,1.084c-0.425,0.426-0.425,1.113,0,1.537l3.438,3.438c0.024,0.027,0.051,0.049,0.078,0.07
		l0.128,0.133c0.427,0.424,1.115,0.424,1.539,0l7.275-7.275C34.471,13.333,34.471,12.643,34.045,12.217z"/>
</g>
<g display="none">
	<path display="inline" d="M35.062,15.888c-0.001-0.031-0.004-0.063-0.004-0.096l-0.001-0.019l-0.001-0.016
		c0-0.021-0.001-0.041-0.002-0.062c-0.003-0.044-0.006-0.087-0.009-0.131l-0.001-0.017l-0.002-0.041
		c-0.004-0.048-0.008-0.094-0.013-0.143c-0.001-0.014-0.003-0.027-0.005-0.041c-0.005-0.052-0.012-0.104-0.019-0.155v-0.004
		l-0.001-0.015c-0.12-0.936-0.42-1.828-0.887-2.649c-0.456-0.802-1.052-1.501-1.771-2.076c-0.015-0.012-0.029-0.022-0.046-0.034
		l-0.007-0.005l-0.002-0.001l-0.003-0.002c-1.288-1.011-2.833-1.545-4.473-1.545c-1.641,0-3.188,0.534-4.474,1.545l-0.003,0.002
		l-0.012,0.008c-0.015,0.011-0.029,0.021-0.042,0.031c-0.719,0.576-1.315,1.273-1.771,2.075c-0.468,0.82-0.766,1.711-0.887,2.646
		l-0.002,0.013l-0.001,0.014c-0.006,0.049-0.012,0.1-0.017,0.149c-0.002,0.016-0.003,0.031-0.005,0.048
		c-0.004,0.045-0.009,0.09-0.013,0.138c-0.001,0.021-0.003,0.042-0.004,0.062c-0.004,0.043-0.006,0.084-0.009,0.128
		c-0.001,0.019-0.002,0.039-0.002,0.059l-0.001,0.022l-0.001,0.022c-0.001,0.029-0.003,0.06-0.004,0.089
		c-0.001,0.053-0.001,0.107-0.002,0.162v0.016c0,0.006,0,0.01,0,0.01v0.01c0,0,0,0.01,0,0.015c0,0.007,0,0.012,0,0.012
		c0.001,0.061,0.001,0.113,0.002,0.167c0.001,0.031,0.003,0.062,0.004,0.094l0.001,0.021l0.001,0.027
		c0,0.017,0.001,0.033,0.002,0.05c0.003,0.044,0.005,0.088,0.01,0.132v0.016l0.003,0.042c0.004,0.048,0.009,0.095,0.013,0.142
		c0.002,0.016,0.003,0.027,0.004,0.042c0.005,0.052,0.012,0.103,0.018,0.155l0.001,0.009l0.001,0.01
		c0.121,0.938,0.419,1.828,0.887,2.649c0.456,0.802,1.052,1.5,1.771,2.077c0.015,0.011,0.031,0.021,0.046,0.032l0.006,0.006
		l0.003,0.001l0.003,0.002c1.286,1.01,2.833,1.544,4.474,1.545c1.64-0.001,3.187-0.535,4.473-1.545l0.003-0.002l0.003-0.002
		l0.009-0.006c0.016-0.012,0.029-0.021,0.042-0.031c0.719-0.575,1.314-1.273,1.771-2.075c0.468-0.82,0.768-1.711,0.888-2.646
		l0.002-0.019l0.001-0.008c0.006-0.05,0.012-0.1,0.017-0.148c0.002-0.016,0.005-0.033,0.006-0.049
		c0.005-0.045,0.009-0.09,0.013-0.137c0.001-0.021,0.002-0.042,0.004-0.063c0.002-0.042,0.005-0.084,0.008-0.125
		c0.001-0.022,0.002-0.043,0.002-0.063l0.001-0.02l0.001-0.021c0.002-0.031,0.003-0.061,0.004-0.091
		c0.001-0.054,0.001-0.107,0.002-0.162c0-0.005,0-0.012,0-0.018v-0.014v-0.004c0,0,0-0.01,0-0.015c0-0.007,0-0.012,0-0.019
		C35.062,15.995,35.062,15.94,35.062,15.888z M33.246,16.231c-0.001,0.022-0.001,0.045-0.002,0.067v0.01
		c-0.001,0.022-0.002,0.044-0.004,0.066c-0.002,0.032-0.003,0.064-0.007,0.095c0,0.016-0.001,0.031-0.002,0.045
		c-0.004,0.036-0.007,0.072-0.011,0.107l-0.002,0.023v0.005c-0.005,0.041-0.01,0.081-0.015,0.121v0.003v0.002
		c-0.153,1.196-0.688,2.285-1.547,3.146c-1.028,1.025-2.393,1.59-3.841,1.59c-1.449,0-2.814-0.564-3.841-1.59
		c-0.883-0.884-1.438-2.05-1.563-3.282l-0.001-0.002v-0.002c-0.004-0.043-0.008-0.086-0.011-0.13l-0.002-0.014v-0.006
		c-0.003-0.039-0.005-0.078-0.008-0.118v-0.021l-0.001-0.013c-0.001-0.036-0.003-0.072-0.003-0.108
		c-0.001-0.018-0.001-0.036-0.001-0.054v-0.018v-0.021c-0.002-0.018-0.002-0.034-0.002-0.052c0-0.049,0.002-0.098,0.003-0.146
		c0-0.02,0.001-0.039,0.001-0.059l0.001-0.018c0.001-0.022,0.002-0.046,0.004-0.068c0.001-0.03,0.003-0.063,0.005-0.095
		c0.001-0.015,0.001-0.03,0.003-0.045c0.003-0.036,0.006-0.072,0.011-0.108l0.002-0.027c0.005-0.04,0.01-0.081,0.014-0.121
		l0.002-0.003c0.152-1.198,0.687-2.286,1.547-3.146c1.026-1.026,2.39-1.591,3.841-1.592c1.448,0.001,2.812,0.565,3.841,1.592
		c0.883,0.884,1.438,2.05,1.562,3.283v0.001v0.001c0.005,0.044,0.01,0.087,0.012,0.13l0.001,0.021
		c0.004,0.039,0.006,0.078,0.008,0.118l0.002,0.023l0.001,0.012c0.001,0.035,0.002,0.071,0.003,0.107
		c0.002,0.018,0.002,0.035,0.002,0.054v0.017v0.021c0,0.018,0.001,0.035,0.001,0.053C33.249,16.134,33.248,16.183,33.246,16.231z"/>
	<path display="inline" d="M29.855,15.37h-1.241v-2.358c0-0.508-0.413-0.92-0.92-0.92s-0.919,0.412-0.919,0.92v3.278
		c0,0.508,0.412,0.922,0.919,0.922h2.161c0.508,0,0.921-0.414,0.921-0.922C30.776,15.784,30.363,15.37,29.855,15.37z"/>
</g>
<g id="_x37_57-paper-airplane_x40_2x.png_12_" display="none">
	<g display="inline">
		<path d="M35.396,8.774c0-0.15-0.121-0.271-0.271-0.271c-0.037,0-0.075,0.008-0.107,0.025L20.4,14.752
			c-0.097,0.04-0.165,0.137-0.165,0.249c0,0.113,0.068,0.213,0.169,0.252l5.851,2.391l2.392,5.852h0.002
			c0.04,0.101,0.138,0.168,0.25,0.168c0.113,0,0.209-0.067,0.247-0.162l0.003-0.005l6.226-14.615l-0.002-0.002
			C35.387,8.846,35.396,8.812,35.396,8.774z M21.209,14.996L33.946,9.57l-7.548,7.55L21.209,14.996z M28.903,22.689l-2.124-5.188
			l7.55-7.548L28.903,22.689z"/>
	</g>
</g>
<g id="_x37_08-search_x40_2x.png_16_" display="none">
	<g display="inline">
		<path d="M36.057,23.906l-4.689-4.689c1.117-1.217,1.805-2.836,1.805-4.619c0-3.778-3.062-6.84-6.841-6.84s-6.841,3.062-6.841,6.84
			c0,3.779,3.062,6.842,6.841,6.842c1.783,0,3.401-0.688,4.619-1.807l4.689,4.689c0.115,0.115,0.302,0.115,0.417,0
			C36.171,24.207,36.171,24.021,36.057,23.906z M26.331,20.844c-3.449,0-6.246-2.795-6.246-6.246c0-3.45,2.797-6.246,6.246-6.246
			s6.246,2.796,6.246,6.246C32.577,18.049,29.78,20.844,26.331,20.844z"/>
	</g>
</g>
<path display="none" fill-rule="evenodd" clip-rule="evenodd" d="M27.815,2.482c-7.51,0-13.6,6.089-13.6,13.601
	c0,7.511,6.09,13.601,13.6,13.601c7.512,0,13.602-6.09,13.602-13.601C41.417,8.571,35.327,2.482,27.815,2.482z M35.191,13.137
	l-8.322,8.322c-0.283,0.283-0.674,0.457-1.104,0.457c-0.432,0-0.822-0.174-1.104-0.457l-4.682-4.682
	c-0.283-0.281-0.457-0.672-0.457-1.104c0-0.861,0.699-1.561,1.561-1.561c0.43,0,0.82,0.176,1.104,0.457l3.578,3.578l7.219-7.219
	c0.281-0.281,0.672-0.457,1.104-0.457c0.861,0,1.561,0.699,1.561,1.561C35.648,12.465,35.473,12.854,35.191,13.137z"/>
<g>
	<path d="M50.051,14.471c-0.734-2.916-4.383-6.652-8.777-6.652c-0.145,0-0.287,0.004-0.43,0.008C38.865,3.51,33.768,0,27.791,0
		c-5.986,0-11.09,4.389-13.061,8.717c-0.283-0.02-0.57-0.029-0.861-0.029c-4.422,0-8.088,2.244-8.791,5.184
		C2.203,14.311,0,17.443,0,20.439v1.41c0,3.305,2.682,5.986,5.986,5.986H23.82v-2.404h-4.332c-0.572-0.008-1.131-0.199-1.527-0.705
		c-0.18-0.234-0.293-0.539-0.291-0.852c-0.002-0.359,0.146-0.703,0.371-0.949l8.33-9.34c0.396-0.43,0.914-0.6,1.445-0.604
		c0.533,0.004,1.051,0.174,1.447,0.604l8.328,9.34c0.227,0.246,0.375,0.592,0.373,0.949c0,0.312-0.111,0.617-0.291,0.852
		c-0.396,0.506-0.957,0.697-1.527,0.705h-4.334v2.404h17.836c3.305,0,5.984-2.682,5.984-5.986v-1.41
		C55.633,17.27,53.168,14.678,50.051,14.471z"/>
	<path d="M27.977,14.754c-0.004-0.002-0.012-0.006-0.023-0.012c-0.029-0.01-0.082-0.023-0.137-0.023
		c-0.074-0.002-0.141,0.023-0.158,0.035l-7.975,8.939h5.875v8.4c0.053,0.031,0.166,0.074,0.303,0.072h3.91
		c0.102,0,0.189-0.021,0.25-0.047c0.023-0.01,0.039-0.018,0.053-0.025v-8.4h5.875L27.977,14.754z"/>
</g>
<g display="none">
	<g display="inline">
		<path d="M26.344,21.1c-3.141,0-5.697-2.556-5.697-5.695c0-3.142,2.557-5.698,5.697-5.698s5.696,2.557,5.696,5.698
			C32.04,18.544,29.484,21.1,26.344,21.1z M26.344,11.627c-2.083,0-3.776,1.693-3.776,3.777c0,2.081,1.693,3.774,3.776,3.774
			c2.082,0,3.775-1.693,3.775-3.774C30.119,13.32,28.426,11.627,26.344,11.627z"/>
	</g>
	<g display="inline">
		<path d="M34.025,22.46c-0.191,0-0.383-0.056-0.549-0.173l-4.18-2.916c-0.436-0.303-0.542-0.902-0.238-1.337
			c0.303-0.435,0.899-0.542,1.336-0.238l4.182,2.916c0.434,0.304,0.541,0.902,0.237,1.337C34.627,22.316,34.328,22.46,34.025,22.46z
			"/>
	</g>
</g>
</svg>
